<?xml version="1.0" standalone="no"?>
<!DOCTYPE svg PUBLIC "-//W3C//DTD SVG 1.1//EN" "http://www.w3.org/Graphics/SVG/1.1/DTD/svg11.dtd" >
<svg xmlns="http://www.w3.org/2000/svg">
<metadata></metadata>
<defs>
<font id="la_parisienne_scriptcasual" horiz-adv-x="935" >
<font-face units-per-em="2048" ascent="1638" descent="-410" />
<missing-glyph horiz-adv-x="512" />
<glyph horiz-adv-x="0" />
<glyph horiz-adv-x="682" />
<glyph unicode=" "  horiz-adv-x="512" />
<glyph unicode="&#x09;" horiz-adv-x="512" />
<glyph unicode="&#xa0;" horiz-adv-x="512" />
<glyph unicode="!" horiz-adv-x="739" d="M158 408q9 32 57.5 212.5t110.5 406.5t147 525q8 28 73 27q55 -1 68 -18q4 -5 2 -9q-109 -304 -249 -732t-154 -470q-3 0 -7.5 0.5t-16.5 3.5t-18.5 9t-13 17t0.5 28zM90 -88q-49 0 -49 65q0 45 22.5 72t55.5 27q28 0 45.5 -18.5t17.5 -41.5q0 -36 -29.5 -70t-62.5 -34z " />
<glyph unicode="&#x22;" horiz-adv-x="763" d="M311 1585q35 0 53.5 -18t6.5 -49q-12 -32 -33.5 -76t-47.5 -93t-34 -65q-4 -8 -16 -12.5t-22 -1.5t-9 14q1 13 5 69t8.5 95.5t10.5 71.5q8 40 27.5 52.5t50.5 12.5zM578 1585q35 0 53 -18t6 -49q-12 -32 -33.5 -76t-47.5 -93t-34 -65q-4 -8 -16 -12.5t-22 -1.5t-9 14 q17 197 25 236q8 40 27.5 52.5t50.5 12.5z" />
<glyph unicode="#" horiz-adv-x="915" d="M872 668l2 -2q0 -42 -24 -50q-27 -8 -166 -8l-74 -276q140 0 181 10l2 -2q0 -40 -25 -49q-20 -8 -170 -8l-109 -406q-4 -11 -31 -9q-15 3 -14 9v2l109 404q-152 4 -238 4l-110 -410q-4 -11 -31 -9q-15 3 -14 9v2l110 410q-145 0 -186 -10l-2 2q4 40 20 47q16 8 181 8 l73 276q-143 3 -190 -8l-2 2q4 40 20 47q20 9 187 9l92 344q3 9 23 9t20 -9v-2l-92 -345q39 0 119.5 -1t119.5 -1l95 349q3 9 23 9t20 -9v-2l-93 -347q129 0 174 11zM565 332l76 276q-152 4 -240 4l-73 -276q152 -4 237 -4z" />
<glyph unicode="$" horiz-adv-x="1228" d="M938 1434q75 -27 119.5 -92t44.5 -152q0 -15 -14.5 -20.5t-29 0.5t-14.5 20q0 75 -31 129t-85 76l-154 -574q20 -28 69.5 -92.5t74.5 -101t57 -91.5t46.5 -104.5t14.5 -99.5q0 -94 -39 -166.5t-106 -115.5t-149.5 -64.5t-176.5 -20.5h-18l-70 -260q-4 -11 -31 -9 q-15 3 -14 9v2l72 264q-111 26 -182 119.5t-64 167.5q2 19 20.5 30.5t33.5 10.5t18 -4q-15 -83 36 -169.5t148 -111.5l184 686q-47 58 -72.5 92.5t-58.5 90t-48 113.5t-15 122q0 146 100 240t238 94q30 0 57 -6l35 133q3 9 23 9t20 -9v-2zM743 868l144 539q-8 2 -29 2 q-88 0 -150.5 -77t-62.5 -197q0 -123 98 -267zM893 301q0 102 -41.5 182t-120.5 176l-174 -653h25q151 -1 231 77.5t80 217.5z" />
<glyph unicode="%" horiz-adv-x="1402" d="M362 -143q-3 -9 -38 -7t-35 11v2l741 1798q3 8 25 5.5t22 -11.5v-2zM494 1477q61 0 106 -51.5t41 -163.5q-5 -130 -50.5 -252t-121.5 -200.5t-160 -78.5q-86 0 -136 56t-50 151q0 109 46 218.5t121.5 181t153.5 71.5q29 0 41 -16q15 -21 -2 -41q-9 -8 -12 0q0 16 -25 16 q-51 0 -105.5 -71.5t-89 -176.5t-34.5 -200q0 -70 24 -110t68 -40q69 0 136.5 69.5t111 184t47.5 238.5q3 97 -42 147.5t-93 28.5q-7 -3 -8 7q-1 20 18 29q7 3 15 3zM1133 803q61 0 106 -51.5t41 -163.5q-5 -130 -50.5 -252t-121.5 -200.5t-160 -78.5q-86 0 -136 56t-50 151 q0 109 46 218.5t121.5 181t153.5 71.5q29 0 41 -16q15 -21 -2 -41q-9 -8 -12 0q0 16 -25 16q-51 0 -105.5 -71.5t-89 -176.5t-34.5 -200q0 -70 24 -110t68 -40q69 0 136.5 69.5t111 184t47.5 238.5q3 97 -42 147.5t-93 28.5q-7 -3 -8 7q-1 20 18 29q7 3 15 3z" />
<glyph unicode="&#x26;" horiz-adv-x="1626" d="M1499 199q12 -40 -3.5 -84.5t-51.5 -82.5t-99 -62.5t-139 -24.5q-184 0 -368 147q-98 -73 -205.5 -112t-204.5 -37q-144 3 -235 80.5t-91 199.5q0 118 81.5 239.5t228.5 268.5q-93 262 -93 506q0 108 31 198.5t81.5 146.5t111.5 87t123 31q13 0 22 -23q11 -24 -3 -26h-3 q-82 11 -150.5 -94t-68.5 -267q0 -194 67 -440q71 70 110.5 110t95 102.5t84 107.5t50 99t21.5 101q0 53 -15 94t-38.5 62.5t-51 31.5t-54.5 6.5t-48 -18.5q-3 -3 -6 5q-6 23 6 40l4 4q13 11 40.5 15.5t61.5 2t69.5 -17t65.5 -39t49 -69t19 -101.5q0 -68 -30.5 -139 t-102 -156t-121 -136t-154.5 -152q-20 -19 -30 -29q121 -377 317 -598q108 102 172 241t64 298q0 46 -9 81t-23.5 53.5t-32 30.5t-34.5 11.5t-32 -2.5q-6 3 -0.5 20t23 32t40.5 13q59 -5 98.5 -58.5t39.5 -135.5q0 -186 -75.5 -343.5t-201.5 -271.5q156 -159 320 -159 q52 0 94.5 25.5t64.5 64.5t30 85.5t-9 88.5q0 6 19.5 8.5t44 -11.5t34.5 -48zM428 -14q189 -3 377 133q-112 99 -207 240t-160 303q-126 -126 -196 -233t-70 -206q0 -108 66 -172t190 -65z" />
<glyph unicode="'" horiz-adv-x="497" d="M311 1577q35 0 53.5 -18.5t6.5 -49.5q-12 -32 -34 -76t-47.5 -92.5t-33.5 -64.5q-4 -8 -16 -12.5t-22 -1.5t-9 14q1 13 5 69t8.5 95t10.5 71q8 40 28 53t50 13z" />
<glyph unicode="(" horiz-adv-x="626" d="M553 1720q18 4 30 -17q4 -8 1 -9q-113 -14 -217.5 -220.5t-165 -496t-60.5 -555.5q0 -434 115 -510q3 -1 -3 -6.5t-16.5 -7t-27.5 5.5q-86 48 -128 211t-42 407q0 202 42.5 413t112 379.5t165 281t194.5 124.5z" />
<glyph unicode=")" horiz-adv-x="722" d="M463 1720q95 -12 151 -124.5t66.5 -281t-21.5 -379.5t-104 -413q-191 -535 -389 -618q-35 -15 -43 2q-2 4 0 6q71 46 148.5 180.5t144.5 329.5q71 198 113 418t48 404.5t-33 310.5t-122 139q-2 0 4.5 7.5t17.5 14t19 4.5z" />
<glyph unicode="*" horiz-adv-x="630" d="M291 1454q-20 -8 -26 -2q-1 1 1 2q33 33 13 78q-9 20 -5 37.5t21 21.5q34 10 49 -32q10 -31 -8 -63t-45 -42zM256 1466q-2 -20 -8 -20q-7 20 -27 29t-43 6q-51 -7 -51 32q0 37 45 37q32 0 58 -27.5t26 -56.5zM289 1413q-17 25 -8 23q45 -17 77 12q17 15 35 16t27 -12 q10 -13 6.5 -29t-20.5 -28q-30 -18 -65.5 -11.5t-51.5 29.5zM233 1438q19 -7 19 -13q-47 -16 -55 -57q-5 -21 -18.5 -33t-28.5 -6q-16 6 -23 21t0 34q11 31 43.5 45.5t62.5 8.5zM252 1405q16 22 18 14q0 -48 37 -69q19 -11 26 -28.5t-3 -29.5q-26 -30 -60 -4 q-25 21 -29.5 58.5t11.5 58.5z" />
<glyph unicode="+" horiz-adv-x="753" d="M399 555q173 -4 232 10v-2q0 -9 -8.5 -26.5t-24.5 -22.5q-33 -10 -207 -6q-33 -164 -31 -225l-2 -2q-41 0 -45 24q-4 28 31 205q-167 4 -227 -8l-2 2q14 41 28 47q27 10 211 6q33 181 31 227l4 2q39 -5 43 -20q5 -23 -33 -211z" />
<glyph unicode="," horiz-adv-x="301" d="M78 -178q-33 0 -35 16q-1 6 4 6q43 0 43 156q0 72 55 72q27 0 40.5 -19.5t13.5 -44.5q0 -74 -39.5 -130t-81.5 -56z" />
<glyph unicode="-" horiz-adv-x="749" d="M627 563q0 -40 -25 -49q-30 -11 -222 -5t-257 -7l-2 2q4 40 20 47q24 11 218.5 5.5t265.5 8.5z" />
<glyph unicode="." horiz-adv-x="284" d="M90 -88q-49 0 -49 65q0 45 22.5 72t55.5 27q28 0 45.5 -18.5t17.5 -41.5q0 -36 -29.5 -70t-62.5 -34z" />
<glyph unicode="/" horiz-adv-x="483" d="M86 -180q-4 -11 -31 -9q-15 3 -14 9v2l502 1872q3 9 23 9t20 -9v-2z" />
<glyph unicode="0" horiz-adv-x="1247" d="M803 1669q135 0 218 -105.5t83 -275.5q0 -145 -26.5 -303t-74 -308t-118 -286t-153 -237.5t-185 -161.5t-209.5 -60q-151 0 -256 129.5t-105 337.5q0 155 40 299t109.5 257t153.5 200t181 148q30 159 123.5 262.5t218.5 103.5zM338 -27q94 0 187.5 57.5t172 155.5 t147 229.5t116.5 276t75 299.5t27 297q0 154 -71.5 247t-188.5 93q-94 0 -152.5 -72.5t-83.5 -195.5q113 49 211 49q59 0 84 -20q22 -20 2 -52q-9 -14 -10 -8q-3 14 -24 26.5t-46 12.5q-110 0 -225 -76q-6 -49 -6 -104q0 -107 34 -187t66 -112q9 -9 11 -22t-0.5 -22t-4.5 -9 q-93 33 -150.5 126t-57.5 222v22q-144 -138 -237 -352.5t-93 -454.5q0 -102 10.5 -177t35 -133t67 -87t104.5 -29z" />
<glyph unicode="1" horiz-adv-x="763" d="M702 1597q0 -70 -81 -151q-58 -162 -241.5 -783.5t-189.5 -642.5q-4 -13 -40 -18.5t-69 -1t-30 15.5q32 116 103.5 346.5t166 527t132.5 419.5q-46 -32 -132.5 -87.5t-138.5 -91.5t-110.5 -82t-86.5 -85.5t-28 -75.5q0 -42 16 -66q-7 -7 -23.5 -5.5t-27.5 13.5 q-24 24 -24 74q0 45 36 92.5t102 95.5t132.5 89t156.5 94.5t144 91.5q28 90 43 141q27 93 94 126q49 25 79 1q17 -13 17 -37z" />
<glyph unicode="2" horiz-adv-x="978" d="M725 178q10 21 45 23q17 0 16 -6q-1 -1 -8 -21t-13 -33.5t-19 -38t-26 -42.5t-34.5 -39t-45 -34.5t-55 -22.5t-67.5 -9q-61 0 -127.5 14t-106.5 28t-109 42.5t-91 36.5q-105 -76 -174 -76q-42 0 -67 22t-25 60t47.5 69t107.5 31q43 0 117 -18q96 96 198 236.5t194 305 t151 346t59 330.5q0 107 -31.5 168.5t-97.5 61.5q-112 0 -208.5 -134.5t-96.5 -312.5q0 -93 33 -123l-4 -4q-30 -13 -61 -4q-15 4 -23 15q-17 25 -17 98q0 213 117.5 359.5t286.5 146.5q113 0 179.5 -76t66.5 -195q0 -122 -41.5 -266t-110 -280.5t-156.5 -268.5t-181 -241 t-183 -187q25 -9 82.5 -30.5t89.5 -32.5t78.5 -21t83.5 -10q57 0 102 17t71.5 45t36 41.5t17.5 29.5z" />
<glyph unicode="3" horiz-adv-x="1056" d="M487 887q60 8 115 -4t100 -42.5t72 -89t27 -137.5q0 -93 -25.5 -185t-78.5 -175.5t-127.5 -147t-180 -101.5t-227.5 -38q-125 0 -205 65t-92 167q-1 13 16 25.5t32 15.5t17 0q11 -115 66.5 -173.5t165.5 -58.5q90 0 169.5 41.5t134 107t94.5 147t58.5 161t18.5 149.5 q0 53 -14 95t-34 65t-46 38t-45.5 19.5t-36.5 4.5q-81 0 -137 -27q-5 -2 -9 8q-11 28 4 52q3 4 7 8q15 13 71 32q27 10 67 36t90.5 72t93 101.5t71.5 131t29 153.5q0 93 -42 147t-110 54q-75 0 -135.5 -40.5t-95 -101.5t-52.5 -123t-18 -114q0 -9 -21 2q-32 16 -32 41 q-3 33 8 78.5t40 98t70.5 97t109.5 74t148 29.5q125 0 199 -65t74 -177q0 -83 -39.5 -171t-99.5 -156t-130.5 -119t-134.5 -70z" />
<glyph unicode="4" horiz-adv-x="1118" d="M879 633q25 20 50 -1q14 -11 5 -14q-126 -126 -275 -137q-94 -355 -139 -501q-6 -20 -58 -21q-46 -2 -48 13v3q27 97 133 510q-80 8 -175 30t-191.5 49t-137.5 36q-71 -68 -123 -68q-63 0 -63 54q0 31 34 54.5t91 23.5q9 0 28.5 -1t28.5 -1q103 136 178.5 408t75.5 609 q0 13 33 6q47 -11 61 -42q4 -9 4 -19q0 -297 -88.5 -558.5t-210.5 -412.5q68 -12 227 -54t242 -54q162 633 211 805q8 28 73 27q55 -1 68 -18q4 -5 2 -9q-74 -207 -241 -813q117 2 205 96z" />
<glyph unicode="5" horiz-adv-x="1011" d="M903 1679q3 3 11.5 -6t13 -22.5t-1.5 -28.5q-35 -64 -126.5 -105.5t-195.5 -41.5q-79 0 -164 32q-117 -335 -186 -557q100 62 203 62q26 0 61 -7.5t84 -33t88.5 -64.5t67.5 -110t28 -162q0 -93 -25 -185t-76 -175.5t-121.5 -147.5t-167.5 -101.5t-208 -37.5 q-125 0 -205 64.5t-92 166.5q0 28 37 41q27 9 29 0q11 -116 66 -173.5t165 -57.5q90 0 165.5 41.5t124 106.5t82.5 147.5t48.5 161t14.5 149.5q0 82 -11 144t-27.5 97.5t-40 58t-44.5 29.5t-45 7q-112 0 -219 -82q-6 -20 -58 -21q-47 -1 -49 14v3q140 508 199 714 q8 26 32.5 31.5t52.5 -4t58 -27.5q47 -27 84 -39t90 -12q95 0 156.5 31t101.5 100z" />
<glyph unicode="6" horiz-adv-x="1042" d="M756 1597q-76 0 -161.5 -72.5t-160.5 -197t-136.5 -276t-97.5 -324.5t-36 -328q0 -201 59.5 -314.5t179.5 -113.5q69 0 130.5 49t102.5 123t71.5 162t44.5 166.5t14 136.5q0 277 -178 277q-67 0 -125.5 -40.5t-93 -102.5t-53 -131t-11 -132.5t38.5 -99.5q4 -5 -10 -10 q-34 -12 -67 7q-18 10 -27 30q-29 68 -29 139t33 139.5t82 122t119 86.5t143 33q107 0 163 -82t56 -236q0 -59 -15 -142t-48.5 -177t-79.5 -174t-114.5 -132.5t-146.5 -52.5q-166 2 -274.5 130.5t-108.5 338.5q0 153 32 309t86 291t127.5 254t155 203.5t171 133t172.5 48.5 q70 0 118 -30t60 -80q11 -43 1.5 -89.5t-34.5 -74.5q-23 -26 -64 -8q-26 11 -23 23q0 2 1 3q17 12 31.5 44t15.5 63q0 51 -30 79.5t-84 28.5z" />
<glyph unicode="7" horiz-adv-x="897" d="M874 1690q30 0 39.5 -27t-6 -64.5t-49.5 -62.5q-32 -26 -86 -41q-65 -128 -139.5 -312.5t-144.5 -395t-116 -427t-46 -370.5q0 -14 -41 -24t-82 -4.5t-41 28.5q9 236 91.5 528t189.5 532.5t219 417.5q-79 -15 -218 -27.5t-161 -15.5q-103 -14 -160 -63t-57 -133 q0 -10 -24 -6q-37 6 -47 38q-3 8 -3 17q0 68 65.5 119t186.5 65q35 4 130 12.5t176 18t142 23.5q121 174 182 174z" />
<glyph unicode="8" horiz-adv-x="964" d="M829 1460q0 -65 -25.5 -134.5t-62 -128.5t-98.5 -130t-114.5 -122.5t-129.5 -123.5q5 -12 32.5 -74t35.5 -81.5t29.5 -72.5t29.5 -81t20 -71.5t16.5 -79.5t4.5 -72q0 -151 -114 -246.5t-275 -95.5q-125 0 -202.5 76.5t-77.5 199.5q0 67 28.5 137t86.5 145t114 135 t141 142q-43 95 -66.5 155t-45 143t-21.5 151q0 153 98 244.5t228 91.5q37 0 67 -10.5t41 -24.5q23 -29 -3 -54q-12 -10 -15 -5q-4 25 -24.5 39t-49.5 14q-76 0 -137 -79.5t-61 -215.5q0 -130 92 -348q82 81 136.5 141t109.5 134.5t82.5 146t27.5 139.5q0 92 -31.5 163.5 t-74.5 96.5q-4 3 10 12.5t35 14t49 -6.5q47 -23 80.5 -96.5t33.5 -167.5zM424 289q0 65 -21 145.5t-43.5 137.5t-64.5 153q-65 -60 -109 -104t-93 -100.5t-78 -102t-48.5 -97t-19.5 -98.5q0 -107 62.5 -171t168.5 -64q98 0 172 84t74 217z" />
<glyph unicode="9" horiz-adv-x="1157" d="M879 1434q0 12 35.5 16.5t71.5 -1t36 -19.5q-2 -30 -8.5 -83.5t-23 -153.5t-38 -205t-56 -231t-76 -239.5t-100 -222t-124 -187t-152.5 -126.5t-182 -48q-114 0 -209 66.5t-92 134.5q0 18 16 27t32 8.5t16 -6.5q0 -28 14 -59.5t41 -61t74.5 -49t107.5 -19.5q74 0 142 48 t121 125.5t100.5 187t81.5 220t64 237.5t48 226.5t33 199.5q-38 -69 -83.5 -140.5t-101.5 -145.5t-110.5 -131t-111.5 -93.5t-103 -36.5q-252 0 -252 262q0 189 66.5 354t188 266t269.5 101q68 0 117 -25t64 -59q17 -39 -24 -65q-22 -13 -26 -7q-5 44 -41.5 79.5t-89.5 35.5 q-65 0 -133.5 -57t-123 -149.5t-89.5 -219t-35 -254.5q0 -100 33 -160.5t76 -60.5q60 0 142.5 72.5t157.5 177t134.5 204t91.5 170.5q3 26 6.5 59t4.5 38z" />
<glyph unicode=":" horiz-adv-x="438" d="M223 567q-49 0 -49 66q0 45 22.5 71.5t55.5 26.5q28 0 45.5 -18t17.5 -41q0 -36 -29.5 -70.5t-62.5 -34.5zM90 -74q-49 0 -49 66q0 45 22.5 71.5t55.5 26.5q28 0 45.5 -18t17.5 -41q0 -36 -29.5 -70.5t-62.5 -34.5z" />
<glyph unicode=";" horiz-adv-x="434" d="M219 571q-49 0 -49 66q0 45 22.5 71.5t55.5 26.5q28 0 45.5 -18t17.5 -41q0 -36 -29.5 -70.5t-62.5 -34.5zM78 -178q-33 0 -35 16q-1 6 4 6q43 0 43 156q0 72 55 72q27 0 40.5 -19.5t13.5 -44.5q0 -74 -39.5 -130t-81.5 -56z" />
<glyph unicode="&#x3c;" horiz-adv-x="677" d="M141 526l400 224q11 7 14 -7q4 -19 -12 -30l-310 -205l240 -205q14 -11 11 -36q-2 -15 -11 -9l-340 242q-7 5 -7.5 9.5t2.5 7t7.5 5.5t5.5 4z" />
<glyph unicode="=" horiz-adv-x="749" d="M627 690q0 -40 -25 -49q-30 -11 -222 -5t-257 -7l-2 2q4 40 20 47q24 11 218.5 5.5t265.5 8.5zM627 498q0 -40 -25 -49q-30 -11 -222 -5.5t-257 -7.5l-2 2q4 40 20 47q24 11 218.5 6t265.5 9z" />
<glyph unicode="&#x3e;" horiz-adv-x="649" d="M514 504q-68 -37 -220 -124.5t-206 -117.5q-8 -5 -7 5q0 19 17 36l6 4l314 215l-238 195q-14 12 -1 31q8 13 16 6q61 -48 172 -122t149 -102q1 -1 4 -3t5 -4t2.5 -5t-2.5 -6.5t-11 -7.5z" />
<glyph unicode="?" horiz-adv-x="1093" d="M322 393q-5 0 -11.5 1.5t-18 9.5t-11.5 22q0 46 40.5 111t101 130.5t131.5 148t131.5 161.5t101 173.5t40.5 180.5q0 96 -41 151.5t-114 55.5q-70 0 -132.5 -26t-105.5 -66.5t-75 -90.5t-47 -98.5t-15 -89.5q0 -71 36.5 -109t94.5 -38q-1 -6 -3 -15t-13 -23.5t-27 -14.5 q-49 0 -89 54.5t-40 145.5q0 45 17 98.5t52.5 109t83.5 101t117 74.5t146 29q54 0 105.5 -15.5t95.5 -44.5t71 -78t27 -110q0 -79 -36 -162t-93 -155t-126.5 -143t-138.5 -135.5t-126 -123t-93 -116t-36 -103.5zM268 -55q-49 0 -49 65q0 45 22.5 72t55.5 27q28 0 45.5 -18.5 t17.5 -41.5q0 -36 -29.5 -70t-62.5 -34z" />
<glyph unicode="@" horiz-adv-x="1605" d="M1044 387q-205 0 -149 324q-107 -209 -211 -209q-74 0 -119 50t-45 144q0 115 53.5 211t137 148.5t174.5 52.5q86 0 104 -64q4 9 11.5 29t11.5 29q8 24 65 22q48 -2 53 -18q1 -2 0 -4q-216 -600 -100 -666q13 -8 31 -8q43 0 101.5 40.5t115 109t96 177.5t39.5 228 q0 72 -13.5 135t-45.5 121t-81.5 98.5t-126 65t-173.5 24.5q-141 0 -263 -49.5t-207.5 -132t-146.5 -189.5t-90.5 -222.5t-29.5 -231.5q0 -109 28 -204t82.5 -169.5t143 -117.5t200.5 -43q257 0 367 206q3 5 19.5 -3t25 -24t-5.5 -46q-7 -12 -21 -29.5t-49.5 -47 t-80.5 -52.5t-117.5 -40.5t-155.5 -17.5q-138 0 -245 45t-172.5 123t-98.5 177.5t-33 215.5q0 124 36.5 250t109.5 241.5t173 205t238 143t293 53.5q114 0 205 -29.5t149.5 -77t97.5 -112t55.5 -130.5t16.5 -136q0 -152 -68 -292t-173 -222t-212 -82zM700 537q32 0 82.5 67 t95.5 157t72 171q4 6 8 22q0 1 1.5 3.5t1.5 3.5q9 55 -8.5 84.5t-53.5 29.5q-64 0 -122.5 -64.5t-94 -167.5t-35.5 -212q0 -94 53 -94z" />
<glyph unicode="A" horiz-adv-x="1792" d="M1794 379q8 17 23 3q16 -16 8 -32q-27 -55 -72 -130.5t-105.5 -167t-123.5 -154t-105 -62.5q-117 0 -181 80t-50 248q16 188 102 516q-18 0 -52 -1t-52 -1q-38 -1 -114.5 -2t-113.5 -2q-56 -119 -105.5 -213.5t-109.5 -195.5t-118.5 -174.5t-122.5 -134t-132.5 -91.5 t-138.5 -31q-116 0 -194 88t-78 209q0 230 183.5 382.5t490.5 186.5q133 12 289 17q31 67 87 190.5t90.5 198t80.5 166t84 155.5q63 105 125 160t116 55q60 0 88.5 -39.5t28.5 -105.5q0 -21 -8.5 -70t-26 -129.5t-34.5 -156t-44 -194t-45 -199.5q194 20 277 53q4 2 10 -10 q17 -33 -7 -57q-9 -9 -24 -15q-65 -23 -270 -33q-88 -394 -109 -580q-14 -117 5 -173t73 -56q34 0 89.5 60t112.5 147.5t101 163.5t72 131zM1190 727l115 6q34 127 89.5 317.5t88 309t37.5 170.5q2 25 -6.5 45t-32.5 20q-33 0 -79 -49.5t-95 -138.5q-45 -83 -97.5 -192.5 t-121.5 -260t-109 -235.5q138 4 211 8zM236 -125q53 0 106.5 23t102 62t98.5 99.5t93.5 125.5t91 149.5t87 163t84.5 174.5q-157 -3 -262 -13q-288 -32 -434.5 -172.5t-143.5 -361.5q2 -105 49.5 -177.5t127.5 -72.5z" />
<glyph unicode="B" horiz-adv-x="1685" d="M1593 1208q-3 -93 -47 -176t-103 -133.5t-122 -73.5q97 -13 178.5 -126.5t81.5 -274.5q0 -152 -58.5 -274.5t-174.5 -196.5t-271 -74q-89 0 -133 34.5t-51 70.5q-6 36 24 58q19 12 23 3q25 -125 139 -125q76 0 143.5 50t112 127t70 169t25.5 178q0 153 -64 245.5 t-188 92.5q-18 0 -24.5 13t-4 26t7.5 13q84 0 151.5 58.5t103 144.5t38.5 180q3 80 -21.5 143t-67.5 101t-89 60t-98 31q-51 -102 -96.5 -241t-77 -270.5t-69.5 -277t-73.5 -270.5t-88.5 -241t-115 -197t-152.5 -129.5t-202.5 -48.5q-119 0 -193.5 91.5t-74.5 240.5 q0 89 28.5 190.5t77.5 159.5q23 22 45.5 17.5t40.5 -20t13 -19.5q-71 -54 -105.5 -148t-34.5 -199q0 -116 54 -194t149 -78q85 0 155 52.5t119 140t92.5 207.5t75.5 250t69 273t71.5 270t84.5 247.5t107 200.5q-160 -7 -304.5 -78.5t-236.5 -194t-92 -264.5 q0 -63 27.5 -114.5t69.5 -61.5q6 -2 -13 -16q-39 -29 -65 -11q-70 49 -70 203q0 97 40.5 187.5t111 160t161 122t195 80t209.5 27.5q39 46 91 53q28 5 26 -9q0 -2 -2 -5l-27 -45q54 -8 103.5 -22t107 -43.5t98 -69.5t67 -105t23.5 -145z" />
<glyph unicode="C" horiz-adv-x="1187" d="M1081 1122q63 133 58.5 224t-47 138.5t-105.5 47.5q-93 0 -189 -52.5t-181.5 -153.5t-153 -235.5t-107 -310.5t-39.5 -366q0 -248 87.5 -392.5t230.5 -144.5q270 0 555 502q10 19 25 1q14 -16 6 -30q-141 -249 -287 -381.5t-313 -132.5q-75 0 -141 20t-125.5 66 t-102 114.5t-67.5 171t-25 230.5q0 178 41 349t116.5 311.5t174 248t221 167t250.5 59.5q81 0 139 -34t86 -91t27.5 -134.5t-31.5 -162.5q-14 -38 -68 -41q-32 -1 -35 9q-1 1 0 3z" />
<glyph unicode="D" horiz-adv-x="1804" d="M1194 1593q90 -12 172.5 -42.5t159.5 -87t133.5 -133.5t90.5 -187.5t34 -241.5q0 -145 -35.5 -290.5t-104 -272.5t-160.5 -225.5t-213 -155.5t-253 -57q-184 0 -440 77q-85 -57 -193 -57q-71 0 -107 24t-36 60q0 26 11.5 44t30 26t33.5 11t29 3q57 0 182 -33 q64 76 119.5 221.5t99 315.5t86.5 344t103 344.5t129 278.5q-111 -5 -217.5 -48.5t-188.5 -114t-132 -169t-50 -205.5q0 -63 27 -114.5t69 -61.5q6 -2 -10 -13q-33 -24 -59 -6q-78 55 -78 195q0 121 58 229.5t152 183.5t214.5 119t243.5 45l30 37q24 27 70 24q31 -2 29 -17 q0 -2 -2 -5q-3 -4 -12.5 -20t-14.5 -25zM1018 -47q132 0 246 79.5t191 211.5t121 303.5t44 353.5q0 131 -25.5 237.5t-67 178t-100.5 122.5t-121 77t-132 36q-64 -127 -119 -309.5t-94 -352.5t-82 -337.5t-104.5 -307.5t-139.5 -218q246 -74 383 -74zM358 -33q68 0 121 41 q-107 35 -137 35q-21 0 -34 -8.5t-13 -22.5q0 -45 63 -45z" />
<glyph unicode="E" horiz-adv-x="1017" d="M1020 379q10 19 25 5q16 -15 6 -34q-34 -63 -70.5 -120.5t-100 -138.5t-127.5 -139t-149 -99.5t-168 -40.5q-187 0 -286 90.5t-99 228.5q0 115 38.5 214t102.5 167t145 110.5t169 55.5q-82 54 -132 149t-50 220q0 119 29.5 222t79.5 174.5t114.5 122.5t134.5 75t141 24 q80 0 140.5 -36.5t89.5 -97.5t32 -140t-32 -164q-14 -38 -68 -41q-32 -1 -35 9q-1 1 0 3q64 132 60 227t-50 147t-112 52q-62 0 -128 -45.5t-120 -120.5t-88.5 -181t-34.5 -218q0 -157 64 -267t161 -110q5 0 6.5 -15t-5.5 -29.5t-23 -14.5q-103 0 -191 -42t-146 -111 t-91 -156.5t-33 -180.5q0 -124 66 -199t170 -75q68 0 141.5 38.5t134.5 95.5t120 131t98.5 135.5t70.5 119.5z" />
<glyph unicode="F" horiz-adv-x="1103" d="M1567 1491q3 7 17 -12q19 -26 7 -45q-16 -24 -28.5 -38.5t-39 -37t-65.5 -34t-88 -11.5q-77 0 -171.5 33t-182.5 80.5t-174 94.5t-172 80t-152 33q-73 0 -140.5 -37t-114 -115.5t-46.5 -181.5q0 -78 20 -140.5t76 -131.5q5 -6 -14.5 -17t-47.5 -8t-46 29q-58 88 -58 240 q0 188 113.5 295.5t292.5 107.5q95 0 197.5 -33t188 -80.5t165 -94.5t155 -80t132.5 -33q106 0 176 137zM1010 1268q38 42 103 60q36 11 34 -1q0 -1 -2 -4q-29 -35 -53 -86.5t-48 -142t-35 -138t-38 -174.5q39 5 86 19q4 1 5 -5q6 -22 -10 -47q-11 -16 -28 -22 q-37 -11 -70 -16q-19 -84 -35.5 -148.5t-40.5 -144t-50.5 -139t-60.5 -122.5t-75.5 -107.5t-91.5 -81t-112.5 -54.5t-133.5 -18t-128.5 23t-90.5 59t-49 78t-12 83q3 39 43 39q27 1 30 -9q1 -2 0 -3q-11 -23 -11.5 -51.5t16 -59t40 -56t60.5 -42t78 -16.5q51 0 96.5 15 t82.5 39t70.5 64t59.5 80.5t51 99t42.5 108t37 118.5t32 120.5t29.5 123.5q-154 13 -294 96q-33 20 -17 73q10 29 19 29q127 -104 309 -125q32 144 48 211t47.5 152t66.5 123z" />
<glyph unicode="G" horiz-adv-x="1187" d="M977 1004q5 20 44 26.5t75.5 -1t33.5 -21.5q-104 -424 -152 -592t-126 -385q-141 -388 -444 -404q-142 -9 -250 63.5t-162 223.5q-7 15 12.5 29t40 13.5t27.5 -13.5q48 -148 126 -215t201 -60q214 10 326 365q58 178 113 399q-75 -123 -172 -206t-199 -83 q-63 0 -118 13.5t-108 48t-90 89t-60 142.5t-23 201q0 194 59 378t156.5 321t231 221.5t276.5 87.5q60 1 108 -19t76.5 -54t47.5 -77t19.5 -87.5t-6.5 -86.5q-8 -38 -61 -41q-35 -3 -41 8q-1 2 0 4q40 86 31.5 155t-53.5 112t-109 43q-150 0 -282.5 -139.5t-209.5 -362.5 t-77 -463q0 -455 233 -455q59 0 128 50.5t126.5 125t103 153.5t66.5 142z" />
<glyph unicode="H" horiz-adv-x="1763" d="M1765 379q8 17 23 3q16 -16 8 -32q-26 -51 -64.5 -112t-91 -129.5t-112.5 -114t-109 -45.5q-46 0 -79.5 11.5t-55.5 36.5t-33.5 59.5t-12 87t6 111t23.5 140t39 166t53 195.5q-170 -33 -221 -37q-96 -7 -162 -2q-25 -104 -50.5 -191.5t-59.5 -180.5t-71.5 -165.5 t-86 -139.5t-102.5 -110.5t-122.5 -69.5t-144.5 -26q-71 0 -127.5 28t-91 75t-52.5 104.5t-18 120.5q0 127 38.5 238t102.5 186.5t148 118.5t174 43q38 0 64 -13q14 -6 17.5 -26t-0.5 -37t-9 -17q-38 17 -80 17q-164 0 -282 -147.5t-118 -362.5q0 -116 61.5 -201.5 t172.5 -85.5q59 0 114 32.5t101.5 94.5t87 138.5t77 177.5t66 198.5t58.5 214.5q-218 43 -334 168q-43 46 -9 89q17 18 27 16q45 -84 131 -140t197 -84q27 108 62 267t61.5 272t48.5 182q-73 -41 -165 -61.5t-162 -27.5t-135.5 -21.5t-106.5 -56.5t-53 -120q0 -8 -22 0 q-38 13 -45 51q-2 14 1 29q13 65 65.5 99t132 45.5t165 19.5t182.5 33.5t166 73.5q14 28 72 25q46 -3 53 -20q1 -4 0 -7q-31 -80 -60.5 -204t-66.5 -308t-62 -289q62 -6 121 0q34 3 74.5 9t62 10t71.5 14t58 12q3 9 8.5 28.5t8.5 28.5q118 409 190 627q9 28 74 27 q56 -1 68 -19q2 -4 1 -8q-140 -393 -206 -621q-10 -29 -11 -39q44 7 70 7q20 0 29 -15t8 -30t-6 -15q-50 5 -117 -2q-169 -587 -132 -729q14 -57 60 -57q33 0 75 29t80 72.5t76.5 98.5t66.5 102t48 87z" />
<glyph unicode="I" horiz-adv-x="1112" d="M1073 1638q33 27 94 15q31 -7 29 -15q-25 -41 -47.5 -129.5t-42 -198t-42 -242t-52 -266.5t-67 -266.5t-92.5 -247t-123.5 -203t-164.5 -139t-211 -50.5q-150 0 -242 105.5t-92 279.5q0 106 37.5 206t106.5 172q24 21 47 20t40.5 -11.5t12.5 -16.5q-84 -85 -129 -192.5 t-45 -206.5q0 -135 67 -223t173 -88q92 0 171 53.5t135 141.5t104 209.5t80 249.5t62 269.5t50 261t43.5 233t44.5 177.5q-41 -19 -106 -28.5t-125.5 -10.5t-125.5 -11t-114 -27.5t-83.5 -61.5t-39.5 -113q-5 -65 19 -117.5t67.5 -84t97 -48t111.5 -16.5q2 -3 3 -22 t-18 -41.5t-51 -22.5q-51 0 -101.5 24t-90 66t-62 106.5t-16.5 139.5q6 77 39.5 130t85 79t113 41t127 20.5t123.5 11.5t107 20.5t73 41.5l12 18q1 1 2 4t2 4h4z" />
<glyph unicode="J" horiz-adv-x="937" d="M1188 758q18 7 22 -11q4 -20 -14 -28q-279 -120 -391 -172q-30 -124 -61.5 -226.5t-73 -206.5t-90 -182t-107 -140t-131 -94t-154.5 -32q-86 0 -137 52.5t-51 146.5q0 76 36.5 151.5t96.5 141t147.5 131.5t177.5 120t199 109q38 155 115 523.5t117 490.5 q-64 -66 -141.5 -127.5t-137.5 -100.5t-121.5 -86t-104 -91t-73.5 -108.5t-41 -144.5q0 -8 -21 0q-38 14 -44 54q-2 12 0 26q10 71 50 131.5t96.5 103.5t132.5 93t150 95.5t157 116.5t145 151q16 27 75 21q46 -4 51 -22q0 -3 -1 -6q-41 -91 -78.5 -249.5t-85.5 -406.5 t-80 -386q107 50 371 162zM188 -293q52 0 100 27.5t89.5 79.5t78.5 119.5t70.5 156t61 179t55.5 198.5q-127 -66 -227.5 -130.5t-189 -141t-137 -161t-48.5 -169.5q0 -76 39.5 -117t107.5 -41z" />
<glyph unicode="K" horiz-adv-x="1759" d="M1774 1589q89 0 127.5 -48.5t27.5 -100.5q-8 -35 -42 -35q-19 1 -19 8q17 135 -72 135q-47 0 -108 -66.5t-125 -167.5t-131 -206.5t-147.5 -197t-154.5 -124.5q58 -22 93.5 -76t47 -124.5t13.5 -154t-6 -166.5t-13 -161t-6 -137t14 -95t48 -36q41 0 109 66.5t134 160.5 t119.5 179t79.5 137q8 17 23 3q16 -16 8 -32q-26 -51 -79.5 -136t-124 -182.5t-145.5 -167t-124 -69.5q-81 0 -124.5 51.5t-52 134t-3.5 183t14.5 202t10.5 187t-23.5 142t-81.5 63.5q-28 3 -29 28q0 15 8 17q54 6 104 43.5t88.5 93.5t79.5 126t76.5 142t79 141t86.5 122 t100 85.5t120 32.5zM289 -23q85 0 159.5 50t128 132.5t100.5 197t79.5 235t64 255.5t53.5 249.5t48 226.5t49 178q-73 -40 -164 -60.5t-161 -26.5t-135 -20.5t-106 -56.5t-53 -120q0 -8 -22 -1q-39 14 -44 54q-2 12 1 26q13 65 65.5 99t132 45.5t164.5 19.5t182 33.5 t166 73.5q13 16 45.5 17.5t58 -9t19.5 -23.5q-28 -61 -53.5 -151t-43 -185t-38.5 -205.5t-41 -216.5t-50 -213.5t-64.5 -201t-86.5 -176t-114.5 -141t-149.5 -92t-190 -33.5q-94 0 -161.5 48.5t-97.5 120.5t-30 158q0 127 41.5 244.5t109 200.5t155 132.5t177.5 49.5 q40 0 64 -12q14 -6 17.5 -26t-0.5 -37t-9 -17q-36 16 -80 16q-107 0 -204 -77t-156.5 -205t-59.5 -269q0 -116 61.5 -201.5t172.5 -85.5z" />
<glyph unicode="L" horiz-adv-x="1138" d="M1462 -96q2 3 17 2t32 -14t17 -31q0 -11 -5.5 -29t-22 -45t-41.5 -49.5t-70.5 -38.5t-102.5 -16q-65 0 -142.5 25.5t-143 59.5t-153.5 94.5t-143 103t-143 112.5q-106 -83 -264 -80q-93 2 -167.5 73.5t-74.5 172.5q0 70 33.5 102.5t71.5 32.5q72 0 161.5 -45t206.5 -129 q76 132 129 459q-149 4 -298.5 81.5t-192.5 155.5q-24 49 -17 78t25 46.5t21 10.5q63 -132 190 -221.5t281 -101.5q51 312 60 362q61 304 162 423q86 101 216 101q96 0 147.5 -58t51.5 -171q0 -245 -138 -440.5t-356 -249.5q-27 -183 -70 -319.5t-118 -225.5 q37 -29 119 -93.5t125 -97t113 -82t116 -74t99 -43.5t95 -19q92 0 133 49t41 129zM1126 1567q-37 0 -69 -13t-56 -34.5t-44 -57.5t-34.5 -73t-27 -90t-20.5 -100.5t-16.5 -112t-14.5 -117t-14 -123.5t-15 -123q130 31 234 131t159.5 235.5t55.5 278.5q0 90 -37 144.5 t-101 54.5zM293 49q115 0 192 90q-123 100 -197 148.5t-120 48.5q-66 0 -66 -70q0 -86 51 -151.5t140 -65.5z" />
<glyph unicode="M" horiz-adv-x="2373" d="M289 -145q81 0 165 52.5t156 137.5t145.5 203.5t132.5 239.5t118.5 256.5t102 242.5t84 211t62.5 150q68 150 116.5 212t98.5 62q43 0 70.5 -32.5t26.5 -86.5q-2 -82 -50 -281.5t-104.5 -400.5t-103.5 -419.5t-47 -335.5q0 -46 28 -46q44 0 151 174.5t206 375.5 t191.5 396.5t92.5 196.5q2 3 22.5 40.5t34 58.5t36.5 51.5t47.5 45.5t48.5 15q32 0 58 -27t26 -69q-3 -89 -47 -277t-95.5 -369.5t-94 -376t-42.5 -296.5q0 -54 14.5 -86.5t40.5 -32.5q36 0 95.5 65.5t119.5 160t107 176.5t74 137q9 18 23.5 2.5t6.5 -31.5q-17 -34 -34 -67 t-50.5 -93t-65 -110t-73.5 -107t-79.5 -96.5t-79.5 -65.5t-78 -26q-166 0 -166 174q0 130 74 429.5t150.5 570.5t80.5 317q3 16 -6 16q-11 0 -25 -13.5t-32 -42t-27 -44.5t-27 -49q-3 -6 -96 -208t-194 -410t-215.5 -387t-172.5 -179q-161 0 -164 170q-1 122 39.5 318.5 t95.5 384t107.5 359t77 277t2.5 105.5q-21 0 -55 -55t-95 -187q-21 -47 -61.5 -151t-81.5 -213.5t-100 -247t-118.5 -260.5t-136 -243.5t-154 -207.5t-171 -140.5t-188.5 -53.5q-94 0 -161 48.5t-96.5 120.5t-29.5 158q0 127 41.5 244.5t109 200.5t155 132.5t177.5 49.5 q40 0 64 -12q14 -6 17.5 -26t-0.5 -37t-9 -17q-36 16 -80 16q-107 0 -204 -77t-156.5 -205t-59.5 -269q0 -116 61.5 -201t172.5 -85z" />
<glyph unicode="N" horiz-adv-x="1716" d="M1315 -20q-61 2 -105 40t-47 119q-8 231 135 804q17 69 51 200q87 338 92 409q3 43 -11 43q-55 -4 -140 -227q-18 -48 -48.5 -152t-60 -213t-74.5 -244t-93 -256t-115.5 -239t-140.5 -203t-169.5 -137.5t-201.5 -52.5q-142 0 -226.5 89t-84.5 218q0 127 41.5 244.5 t109 200.5t155 132.5t177.5 49.5q40 0 64 -12q14 -6 17.5 -26t-0.5 -37t-9 -17q-36 16 -80 16q-107 0 -204 -77t-156.5 -205t-59.5 -269q0 -110 71.5 -188t186.5 -78q92 0 178 51.5t154.5 135t133 199t112.5 234.5t94 251.5t77.5 239t63 209t49.5 150.5q56 146 101.5 202 t99.5 58q43 2 71 -28t29 -84q2 -83 -37 -284t-87 -404t-88 -423.5t-40 -336.5q0 -23 8.5 -35t22.5 -10q19 -1 41 30.5t47 91t51.5 131t58.5 164.5q10 29 15 44q41 117 114 348.5t130.5 403.5t91.5 241t70.5 114.5t73.5 66.5t67.5 28t67.5 6q90 -1 141 -41t49 -90 q-1 -48 -48 -67q-28 -10 -34 -1q0 152 -108 158q-123 7 -217 -178q-19 -38 -70.5 -188t-139 -412t-137.5 -408q-87 -252 -116 -320q-71 -162 -144 -177q-10 -2 -20 -2z" />
<glyph unicode="O" horiz-adv-x="1525" d="M1528 379q8 14 24 -2q14 -14 7 -27q-135 -241 -367 -241q-15 0 -43 4q-73 -114 -155.5 -179t-166.5 -65q-68 0 -130 18.5t-123 64.5t-105.5 116t-71 181t-24.5 251q2 193 41 373.5t106.5 322.5t155 249.5t191.5 165.5t210 58q26 0 37 -27q6 -14 0 -14q-60 0 -127.5 -38 t-133.5 -106.5t-126.5 -171t-107 -223.5t-75 -272t-30.5 -309q-1 -125 15.5 -225.5t45.5 -167.5t70 -112t86 -65t96 -20q147 0 281 205q-61 20 -112.5 70t-86.5 117.5t-62 151t-38.5 170t-15.5 174t6 163.5q13 124 52 221t94 154t120 83t133 17q51 -7 90.5 -36t62.5 -70.5 t36.5 -98t18 -110.5t3.5 -115q-4 -221 -68.5 -454t-166.5 -408q8 -2 22 -2q203 0 332 229zM938 946q-15 -138 2.5 -300t69 -300t125.5 -180q103 173 166 412t63 452q0 42 -2.5 80.5t-12.5 90.5t-26 90t-47 67.5t-72 34.5q-105 13 -173.5 -109.5t-92.5 -337.5z" />
<glyph unicode="P" horiz-adv-x="1681" d="M1196 358q-81 0 -127 30.5t-57 70.5q-10 34 23 60q17 12 18 5q10 -51 43.5 -88.5t99.5 -36.5q48 1 96.5 31t93 89t79 139t55 189.5t20.5 231.5t-38 219.5t-101.5 157.5t-143 91.5t-167.5 31.5q-163 0 -303 -70.5t-223 -194.5t-83 -272q0 -63 27.5 -114.5t69.5 -61.5 q6 -2 -11 -13q-33 -23 -59 -5q-78 55 -78 194q0 163 91.5 296.5t242.5 207.5t326 74q80 0 161 -20t158.5 -63t137.5 -105t97 -153.5t37 -199.5q0 -164 -40 -302t-107.5 -228.5t-154.5 -140.5t-183 -50zM301 -123q-133 0 -221 104.5t-88 276.5q0 176 65 274q20 25 43 23.5 t42.5 -14t15.5 -17.5q-48 -62 -72.5 -140t-24.5 -155q0 -135 67 -223t173 -88q99 0 174.5 62.5t124 170t85.5 240.5t70 286t66.5 294.5t85.5 277.5t117 224q36 48 85 60q29 7 28 -8q-1 -2 -2 -5q-51 -102 -94 -239t-70 -266.5t-59 -272t-62 -265t-78.5 -235t-108.5 -192 t-152.5 -126.5t-209.5 -47z" />
<glyph unicode="Q" horiz-adv-x="1525" d="M1356 1348q-15 76 -78 130t-160 54q-98 0 -193.5 -58t-173 -159t-138 -229.5t-93.5 -277t-33 -292.5q0 -222 103.5 -379t240.5 -157q78 0 147 29.5t121 77.5t96 115t74 137.5t53.5 149t36.5 145t21 130.5q18 146 -9 275.5t-91.5 207.5t-149.5 78q-11 0 -5 23q8 35 39 45 q10 3 22 2q120 -13 193.5 -196t41.5 -451q-13 -106 -39.5 -211.5t-75.5 -217.5t-113 -196.5t-158 -138.5t-204 -54q-74 0 -143 19t-135 64t-115 113t-78.5 175t-29.5 240q0 116 22.5 236.5t65 236t109 216.5t149 177.5t191.5 121t231 44.5q55 0 102 -14t78 -34.5t55.5 -48.5 t37 -52t20.5 -48q6 -21 -17 -31q-16 -5 -18 3zM1395 -553q-26 0 -57 5t-58.5 12t-63.5 20.5t-62 24t-65 30t-60.5 30.5t-61 33t-54 30.5t-52.5 31t-44 25.5q-24 14 -64.5 39.5t-61.5 38t-48 23.5t-47 11q-47 0 -70 -34q-8 -12 -29 -1q-16 8 -8 17q58 70 154 70 q49 0 113 -25.5t172 -87.5q13 -7 72 -41.5t90 -51.5t91 -47t101.5 -45.5t91.5 -28.5t90 -13q25 0 43 5.5t25.5 14.5t10.5 16t3 13q0 9 10 12t20 -1t9 -11q-7 -37 -22 -56q-46 -59 -168 -59z" />
<glyph unicode="R" horiz-adv-x="1904" d="M1907 379q9 18 23.5 2.5t6.5 -31.5q-26 -51 -77 -135t-117.5 -181.5t-135 -166t-110.5 -68.5q-81 0 -130 45t-67.5 118t-25 161t-10.5 177t-15.5 164t-48 125t-100.5 56q-34 3 -43 37q-5 21 4 23q119 0 211.5 65t140 171t47.5 233q0 89 -31 159.5t-77 111.5t-104.5 68 t-107 36.5t-91.5 9.5q-163 0 -303 -70.5t-223 -194.5t-83 -272q0 -59 28 -106.5t69 -69.5q3 -1 -8.5 -10.5t-26.5 -15t-31 2.5q-82 56 -82 199q0 163 91.5 296.5t242.5 207t326 73.5q30 0 67.5 -3.5t92.5 -15.5t107 -30.5t105.5 -52.5t93 -77.5t64.5 -109.5t25 -145 q0 -182 -122 -318.5t-292 -168.5q68 -26 113 -86.5t64 -136t28.5 -161t12.5 -165.5t9 -145t25 -104.5t55 -39.5q44 0 135 113.5t164 232t111 193.5zM322 -82q87 0 154.5 62.5t113 170t82.5 240.5t72 286t71 294.5t90 277.5t119 224q36 48 85 60q29 7 28 -8q-1 -2 -2 -5 q-51 -102 -95.5 -239t-74 -266.5t-64 -272t-65.5 -265t-79 -235t-105 -192t-142 -126.5t-191 -47q-133 0 -210.5 91t-77.5 241q0 89 28.5 190.5t77.5 159.5q23 22 45.5 17.5t40.5 -20t13 -19.5q-71 -54 -105.5 -148t-34.5 -199q0 -118 58 -195t168 -77z" />
<glyph unicode="S" horiz-adv-x="1228" d="M506 -84q141 0 250 86.5t118 220.5q5 84 -19 158.5t-67 132t-96 113t-105.5 113.5t-95 120.5t-65.5 146.5t-16 179q7 90 38 164.5t77 122.5t105 81t118.5 47.5t119.5 14.5q135 0 207 -74t72 -201q0 -67 -22.5 -128t-55.5 -93q-26 -24 -55 -2q-17 15 -10 23q46 26 74 82 t28 123q0 103 -57.5 165t-161.5 62q-62 0 -122 -23.5t-111 -67.5t-84.5 -115.5t-39.5 -160.5q-6 -90 19 -168.5t69.5 -137.5t99.5 -115t110 -111.5t99.5 -114.5t69.5 -137.5t19 -167.5q-5 -81 -38.5 -148t-83.5 -110.5t-114 -74t-128.5 -43.5t-127.5 -13q-210 0 -319 111.5 t-109 285.5q0 154 89.5 243t213.5 89q17 0 29.5 -17t16 -33.5t-0.5 -15.5q-40 11 -80.5 8t-79 -26t-68.5 -56t-48 -83.5t-18 -108.5q0 -156 97 -251t259 -95z" />
<glyph unicode="T" horiz-adv-x="1093" d="M143 1032q-57 86 -57 240q0 188 113.5 295.5t292.5 107.5q95 0 197 -33t187.5 -80.5t165 -94.5t155 -80t132.5 -33q106 0 176 137q3 7 17 -12q20 -26 8 -45q-16 -24 -28.5 -38.5t-39 -37t-65.5 -34t-88 -11.5q-77 0 -171.5 33t-182.5 80.5t-174 94.5t-172 80t-152 33 q-73 0 -140.5 -37t-114 -115.5t-46.5 -181.5q0 -78 20 -140.5t76 -131.5q5 -6 -14.5 -17t-48 -8t-46.5 29zM309 -63q-94 0 -161.5 39.5t-95 93.5t-23.5 110q3 39 43 39q27 1 30 -9q1 -2 0 -3q-12 -22 -13 -50.5t15.5 -59t40.5 -56.5t61.5 -42.5t78.5 -16.5q83 0 151 36.5 t116 99.5t87 145.5t66.5 178.5t50 194t43 196t41 180.5t48.5 151t60 104.5q38 42 103 60q36 11 34 -1q0 -1 -2 -4q-32 -39 -60 -105.5t-47 -144.5t-40 -171t-39.5 -186.5t-45.5 -189t-57.5 -181t-77 -161t-102 -130t-134 -86t-171.5 -31.5z" />
<glyph unicode="U" horiz-adv-x="1599" d="M1602 379q9 18 23.5 2.5t6.5 -31.5q-27 -53 -77.5 -138t-118 -186t-136 -172t-110.5 -71q-56 0 -93 17.5t-57 58.5t-24.5 100t7.5 150t36.5 200t64.5 258q8 32 -4 37q-9 4 -20 -18q-297 -596 -492 -596q-88 0 -138 66t-50 202q0 82 38 251t84 329t84 320.5t38 227.5 q0 70 -17.5 123t-46 82t-58.5 42.5t-61 13.5q-78 0 -152.5 -42.5t-131 -114.5t-91 -173.5t-34.5 -212.5q0 -63 27 -114.5t69 -61.5q6 -2 -11 -13q-33 -24 -59 -6q-78 55 -78 195q0 121 41 231.5t106.5 186.5t148.5 121t165 45q42 0 83 -8.5t85 -32t77 -59.5t54 -96.5 t21 -137.5t-58 -305t-120 -458.5t-68 -299.5q-11 -130 5.5 -187t72.5 -57q58 0 144 104t176 267t165.5 321t138.5 308q61 205 80 278q8 28 72 27q55 0 68 -18q4 -4 2 -9q-30 -96 -78.5 -242.5t-67.5 -212.5q-205 -708 -208 -917q-2 -129 65 -129q34 0 95.5 68.5t125 165 t114 182.5t77.5 139z" />
<glyph unicode="V" horiz-adv-x="1339" d="M0 1016q0 122 41.5 231.5t108.5 186t154.5 121t178.5 44.5q47 0 85 -7t75 -27t61.5 -53t40 -89t15.5 -131q0 -93 -35.5 -286.5t-71 -396.5t-35.5 -318q0 -131 22.5 -187.5t80.5 -56.5q47 0 115.5 68.5t139 188t132.5 264t101.5 315t39.5 321.5q0 146 -31 255t-118 206 q-6 6 14 16q41 21 75 -3q9 -7 17 -17q40 -52 66 -166.5t26 -249.5q0 -161 -39.5 -343t-105 -340.5t-143.5 -289t-161.5 -206.5t-152.5 -76q-91 0 -152 75.5t-61 213.5q0 130 35.5 330.5t71 396t35.5 313.5q0 132 -41.5 186t-122.5 54q-105 0 -199 -71.5t-152.5 -198 t-58.5 -273.5q0 -63 27 -114.5t69 -61.5q6 -2 -10 -13q-33 -24 -59 -6q-78 55 -78 195z" />
<glyph unicode="W" horiz-adv-x="1755" d="M1188 51q-128 3 -169 137t-5 394q3 26 -8 24t-27 -33q-3 -6 -27.5 -54.5t-42.5 -83.5t-53 -96t-65.5 -106t-72.5 -97.5t-80 -86t-82.5 -56t-86.5 -22.5q-26 0 -51.5 7.5t-52 25t-42.5 53t-16 84.5q0 114 30.5 251t74.5 262t87.5 244t74 231t30.5 190q0 132 -41.5 186 t-122.5 54q-78 0 -152.5 -42.5t-131 -114.5t-91 -173.5t-34.5 -212.5q0 -63 27 -114.5t69 -61.5q6 -2 -11 -13q-33 -24 -59 -6q-77 54 -77 195q0 122 41.5 231.5t108.5 186t154.5 121t178.5 44.5q59 0 105 -11.5t86.5 -40.5t62.5 -85t22 -137q0 -86 -49 -256.5t-107.5 -333 t-107.5 -341t-49 -279.5q0 -45 15.5 -65.5t37.5 -20.5q54 0 112.5 42t120 135t106.5 166.5t108 213t86.5 194t76.5 183.5q19 45 27 65q20 49 49 137.5t31 94.5q7 17 64 11q55 -5 57 -24q1 -2 0 -4q0 -1 -12.5 -39.5t-28.5 -91t-36.5 -127t-39.5 -160.5t-35.5 -177 t-26.5 -191.5t-10 -190.5q0 -87 19.5 -129.5t46.5 -42.5q59 0 143 105.5t160 265t130 371t54 399.5q0 154 -29 262t-120 199q-6 6 15 16q41 21 77 -6q7 -6 14 -14q41 -51 67 -165.5t26 -250.5q0 -161 -35 -340.5t-94 -333.5t-129 -280.5t-145.5 -199t-139.5 -71.5z" />
<glyph unicode="X" horiz-adv-x="1269" d="M729 709q-38 -165 -47 -324q-4 -81 0.5 -154.5t19.5 -141.5t47.5 -110t79.5 -45q96 -6 206.5 109t236.5 336q10 19 25 4q15 -17 6 -33q-268 -467 -476 -456q-244 14 -266 415q-85 -150 -188.5 -240t-204.5 -83q-46 3 -77 39t-28 86q4 64 48.5 136t123 144.5t154 131 t172.5 124.5q5 21 14 70q22 117 34 229t10.5 226.5t-19.5 200t-62 140.5t-112 58q-136 6 -250 -144.5t-131 -373.5q-5 -63 21 -133.5t63 -88.5q2 -1 -8.5 -10.5t-25.5 -15.5t-23 0q-42 32 -61.5 102.5t-16.5 147.5q7 164 72.5 293.5t171 198.5t229.5 63q137 -7 205 -121.5 t78 -306.5q99 178 226.5 277.5t240.5 94.5q46 -3 74.5 -37.5t25.5 -86.5q-11 -174 -151.5 -352t-399.5 -345zM1214 1513q-80 4 -172.5 -102t-170.5 -277t-128 -368q252 164 389 334t144 332q1 35 -16 57t-46 24zM170 27q65 -3 125 43.5t107 129.5t83 179.5t64 210.5 q-435 -295 -445 -481q-1 -34 18 -57t48 -25z" />
<glyph unicode="Y" horiz-adv-x="1349" d="M1190 1405q4 20 43 28t75 2t33 -20q-69 -424 -119 -651.5t-120 -454.5q-122 -388 -424 -424q-134 -14 -237 45.5t-162 169.5q-22 41 17 73q23 18 34 13l2 -2q56 -145 136.5 -207.5t203.5 -50.5q64 6 115.5 40t87.5 91t60 116.5t44 133.5q43 157 82 375q1 3 -4 4t-6 -2 q-75 -169 -167.5 -269t-193.5 -100q-89 0 -147 78.5t-54 214.5q3 82 19 184.5t30 165.5t44 187q32 129 37.5 221t-14 144.5t-55 77t-89.5 26.5q-77 0 -152.5 -42t-132 -110.5t-91 -161t-34.5 -188.5q0 -168 96 -217q6 -3 -12 -16q-31 -21 -53 -7q-82 56 -82 240 q0 143 70.5 269t186.5 199.5t245 72.5q51 -2 91 -14.5t77 -47t56 -89t18.5 -146.5t-27.5 -213q-7 -31 -23.5 -104.5t-24.5 -113t-19.5 -99.5t-17 -111.5t-7.5 -100.5q-3 -131 15.5 -186t74.5 -55q72 0 152 98.5t146 250t113 329.5q9 55 64 354z" />
<glyph unicode="Z" horiz-adv-x="1228" d="M1284 158q2 2 17 4t32 -9.5t17 -33.5q0 -20 -9.5 -47.5t-30 -59t-62.5 -53.5t-97 -22q-72 0 -141.5 18.5t-134.5 54t-115.5 68.5t-116.5 80t-106 71q-208 -231 -357 -231q-79 0 -122.5 41t-43.5 111q0 42 14 75.5t38.5 54.5t53 36t61 22.5t58.5 10.5t50 3q108 0 200 -24 q148 197 305.5 479t270.5 526q-61 -41 -137 -41q-66 0 -127 25t-107 60.5t-89 71t-91 60.5t-94 25q-84 0 -149.5 -85t-65.5 -208q0 -59 23.5 -110.5t52.5 -65.5q2 -1 -9.5 -12t-24 -17t-22.5 0q-71 71 -71 205q0 144 87 239t199 95q69 0 134.5 -25t115 -60.5t94 -71 t89 -60.5t83.5 -25q42 0 82 27t70 70q32 78 43 106q6 17 41 18.5t64 -12t22 -33.5q-60 -155 -160 -360t-244.5 -447t-279.5 -407q89 -34 181 -92t151 -105t121.5 -82.5t107.5 -35.5q62 0 95.5 51t33.5 127zM158 49q109 0 293 227q-78 33 -142 33q-101 0 -174.5 -41 t-73.5 -118q0 -30 10 -51t26.5 -31t31 -14.5t29.5 -4.5z" />
<glyph unicode="[" horiz-adv-x="624" d="M53 -74q100 -4 166 -4q19 0 30 -12t12 -24l1 -13q-13 0 -132.5 5t-172.5 5q226 1525 274 1815q1 6 67.5 6t152.5 -3t92 -3q0 -5 -1 -13.5t-9 -22t-23 -13.5q-29 0 -73.5 2.5t-74.5 4.5l-30 3q-18 -94 -137.5 -855.5t-141.5 -877.5z" />
<glyph unicode="\" horiz-adv-x="749" d="M541 -180l-500 1872v2q0 9 20 9t23 -9l502 -1872v-2q2 -5 -7 -7q-19 -6 -34 2q-3 2 -4 5z" />
<glyph unicode="]" horiz-adv-x="690" d="M348 -78q33 189 142 891.5t128 849.5q-116 -10 -182 -10q-15 0 -19 12.5t-1 24.5l4 12q6 0 92.5 3t153 3t65.5 -6q-33 -213 -147.5 -923t-149.5 -902q-66 2 -179.5 0.5t-131.5 -0.5q1 5 4.5 13.5t18 22t34.5 13.5z" />
<glyph unicode="^" horiz-adv-x="831" d="M438 1620l269 -471q6 -9 -8 -9q-22 0 -35 15l-244 371l-252 -367q-11 -16 -36 -17q-11 -1 -10 5q0 2 1 4l289 473q5 8 9.5 9.5t7 -1t5.5 -7t4 -5.5z" />
<glyph unicode="_" horiz-adv-x="665" d="M627 -43q0 -40 -25 -49q-30 -11 -263 -5t-298 -7l-2 2q4 40 20 47q24 11 259.5 5.5t306.5 8.5z" />
<glyph unicode="`" horiz-adv-x="479" d="M373 1569q4 -4 -1 -12t-13.5 -13.5t-14.5 -1.5q-134 105 -149 119q-32 29 -5 75q15 25 27 25q3 0 4 -2q55 -77 152 -190z" />
<glyph unicode="a" d="M451 317q6 21 -4 22q-5 0 -11 -11q-170 -310 -291 -310q-74 0 -126.5 61t-49.5 169q2 98 36.5 197.5t92.5 180.5t144.5 132t183.5 51q40 0 66.5 -15.5t33.5 -35.5q11 -26 -17 -51q-15 -13 -17 -5q-2 21 -22 43.5t-58 22.5q-71 0 -144 -91.5t-118.5 -225t-45.5 -252.5 q0 -60 16.5 -99t45.5 -39q49 0 133 113t159.5 269.5t104.5 277.5q8 28 73 27q56 -1 69 -18q4 -5 2 -9q-62 -170 -109 -321.5t-77.5 -278.5t-30 -202t37.5 -75q36 0 98 65t124 158.5t111.5 175.5t76.5 136q8 17 23 3q16 -16 8 -32q-28 -55 -77 -136.5t-116.5 -181.5 t-138.5 -168.5t-119 -68.5q-69 0 -101 46.5t-25.5 164t59.5 311.5z" />
<glyph unicode="b" horiz-adv-x="829" d="M807 379q10 17 25 3q14 -16 6 -32q-118 -196 -385 -254q-111 -137 -244 -137q-32 0 -54 18t-22 46q0 51 68 72q28 8 149 26q44 75 80 180t55 201q12 63 16.5 110.5t3 77t-9 47.5t-18 24.5t-24.5 6.5q-38 0 -92 -51.5t-116 -148.5t-128.5 -261.5t-118.5 -365.5 q-4 -18 -49 -21q-46 -3 -49 16v5q80 380 219 925q75 288 75 290q68 237 150 323q65 67 152 67q84 0 84 -112q0 -80 -120 -303.5t-263 -425.5q-2 -9 -28.5 -110t-29.5 -118q-4 -19 3 -20q5 -1 12 10q38 76 72 131.5t73.5 106.5t82 77.5t85.5 26.5q27 0 53 -9t55 -32.5 t44.5 -63.5t21 -102t-15.5 -149q-13 -59 -48 -144t-85 -159q216 57 315 229zM246 879l-15 -52q122 185 215 364.5t93 242.5q0 38 -10 54.5t-33 16.5q-49 0 -92.5 -112.5t-125.5 -401.5q-21 -73 -32 -112zM209 0q53 0 110 76q-100 -12 -122 -26q-15 -9 -15 -25q0 -25 27 -25z " />
<glyph unicode="c" horiz-adv-x="643" d="M238 -61q-113 0 -180.5 78t-67.5 231q0 107 35 209.5t92.5 179.5t137.5 124.5t165 47.5q56 0 86.5 -33t30.5 -74q0 -46 -27 -90q-12 -15 -32 -8q-17 5 -9 17q25 44 14 96.5t-53 52.5q-67 0 -136.5 -91.5t-113 -227t-43.5 -258.5q0 -66 12 -111t32 -65t37.5 -27.5 t37.5 -7.5q83 0 197 125.5t192 271.5q10 19 25 5q16 -15 6 -34q-30 -55 -63.5 -106.5t-79 -108.5t-91 -99t-100 -69.5t-104.5 -27.5z" />
<glyph unicode="d" d="M676 754q-53 -196 -86 -333t-55.5 -262.5t-15.5 -189t44 -63.5q36 0 92.5 55.5t112 137t99.5 154.5t71 126q8 17 23 3q16 -16 8 -32q-21 -41 -52 -95.5t-79 -126.5t-95 -130.5t-99 -99.5t-91 -41q-69 0 -104 44.5t-39 147t34 268.5q5 20 -2 21q-6 1 -12 -10 q-170 -310 -291 -310q-74 0 -126.5 61t-49.5 169q2 98 36.5 197.5t92.5 180.5t144.5 132t183.5 51q40 0 66.5 -15.5t33.5 -35.5q11 -25 -17 -50q-16 -14 -18 -6q-2 22 -21.5 44t-57.5 22q-71 0 -144 -91.5t-118.5 -225t-45.5 -252.5q0 -60 16.5 -99t45.5 -39 q45 0 120.5 103.5t140 239t89.5 233.5q44 170 61 231q26 98 47 170t50 153.5t58.5 138.5t65.5 106t79.5 74.5t91.5 27.5q40 1 63 -26.5t21 -67.5q-4 -93 -123 -308t-248 -382zM963 1497q-29 2 -58.5 -36.5t-64.5 -128.5t-66 -190t-78 -265l-12 -48q130 185 225 362.5 t95 254.5q0 48 -41 51z" />
<glyph unicode="e" horiz-adv-x="567" d="M569 379q10 19 25 5q16 -15 6 -34q-49 -89 -115 -174.5t-149 -151t-148 -65.5q-116 4 -167.5 81t-51.5 216q0 232 111 390.5t256 158.5q61 0 85.5 -22.5t24.5 -53.5q0 -61 -34.5 -125.5t-84.5 -112t-105.5 -80t-98.5 -38.5q-14 -66 -14 -142q0 -227 96 -229 q48 0 118.5 60t134.5 145t111 172zM358 768q-64 0 -130 -105.5t-99 -250.5q85 16 171.5 115.5t86.5 201.5q0 39 -29 39z" />
<glyph unicode="f" horiz-adv-x="645" d="M647 379q10 19 25 2q14 -16 6 -31q-117 -209 -277 -209q-29 0 -67 15q-13 -103 -37.5 -203.5t-58 -189t-79 -143t-93.5 -54.5q-195 0 -126 496q35 248 136 604q52 184 106.5 336.5t115.5 282.5t125.5 203t125.5 73q40 0 62 -27t22 -70q0 -122 -149.5 -433t-346.5 -578 q-41 -159 -70 -304.5t-43.5 -269.5t-4.5 -198t47 -74q41 0 79.5 54t66.5 141.5t48 185t31 196.5q-39 36 -61.5 93.5t-22.5 115.5q0 45 12.5 72t36.5 27q76 0 86 -158q3 -44 -4 -133q28 -19 63 -19q135 0 246 197zM549 1520q-38 0 -140 -247t-212 -614q-4 -16 -14.5 -47.5 t-14.5 -44.5q172 252 298 523t126 374q0 56 -43 56z" />
<glyph unicode="g" horiz-adv-x="870" d="M494 6q272 163 378 373q8 17 23 3q16 -16 8 -32q-64 -130 -172.5 -223.5t-257.5 -177.5q-58 -165 -106 -295q-57 -153 -141 -223t-173 -70q-58 0 -91.5 37t-33.5 94q0 74 28 134t99.5 116.5t120 86t160.5 89.5q12 7 18 10q24 71 109 389q5 20 -2 21q-6 1 -12 -10 q-25 -45 -53 -87t-66.5 -89t-82.5 -75t-85 -28q-74 0 -126.5 61t-49.5 169q2 99 33.5 193t86 169.5t137.5 121.5t181 46q61 0 97 -23.5t36 -48.5q0 -26 -29 -51q-18 -16 -18 -4q-1 15 -8.5 32.5t-30 36.5t-55.5 19q-74 0 -143.5 -84.5t-110.5 -210.5t-41 -246 q0 -60 16 -98.5t45 -38.5q49 0 132 105.5t157.5 254.5t103.5 269q8 28 73 27q56 -1 69 -18q4 -5 2 -9q-49 -138 -126.5 -394.5t-98.5 -320.5zM264 -338q31 83 72 211q-52 -28 -84 -45.5t-75.5 -44.5t-69.5 -48t-55.5 -50t-45.5 -56.5t-26.5 -61.5t-10.5 -71q0 -45 23 -69.5 t61 -24.5q64 0 114 67t97 193z" />
<glyph unicode="h" horiz-adv-x="890" d="M893 379q8 17 23 3q16 -16 8 -32q-24 -47 -69.5 -113.5t-104 -137t-124 -119t-114.5 -48.5q-19 0 -38 6.5t-39.5 21.5t-33 47t-12.5 77q0 82 37.5 199.5t75 225.5t37.5 165q0 18 -6.5 28.5t-16.5 10.5q-57 0 -163.5 -130t-206 -315t-136.5 -329q-4 -18 -57 -18 q-56 -1 -62 19q-1 2 0 5q97 473 213 921q75 288 75 290q68 237 150 323q65 67 152 67q84 0 84 -112q0 -80 -119.5 -303t-261.5 -422q-79 -312 -90 -398q-1 -10 6 -10q11 1 23 25q250 448 446 448q49 0 72 -29t23 -96q0 -80 -40.5 -206.5t-81 -239t-40.5 -158.5q0 -61 37 -61 q42 0 117 74.5t139.5 165t97.5 155.5zM481 1505q-49 0 -92.5 -112.5t-125.5 -401.5q-21 -73 -32 -112l-14 -52q124 189 215.5 366.5t91.5 240.5q0 38 -10 54.5t-33 16.5z" />
<glyph unicode="i" horiz-adv-x="464" d="M217 930q-30 5 -42.5 31.5t-0.5 68.5q10 36 38 56t56 14q30 -6 43.5 -32t3.5 -62q-11 -41 -39.5 -61t-58.5 -15zM117 -61q-124 0 -150 97q-27 100 45 370q31 117 111 376q9 28 74 27q56 -1 68 -19q2 -4 1 -8q-194 -591 -179 -733q6 -59 44 -59q44 0 115.5 74t128.5 160 t92 155q8 17 23 3q16 -16 8 -32q-25 -50 -65.5 -113.5t-94.5 -133.5t-114 -117t-107 -47z" />
<glyph unicode="j" horiz-adv-x="475" d="M270 1065q-30 5 -42.5 31.5t-0.5 68.5q10 36 38.5 56t56.5 14q30 -6 43.5 -32t3.5 -62q-11 -41 -40 -61t-59 -15zM477 379q10 17 25 3q14 -16 6 -32q-43 -73 -101 -137t-130.5 -116t-136 -89.5t-148.5 -81.5q-44 -128 -98 -272q-57 -153 -141 -223t-173 -70 q-58 0 -91.5 37t-33.5 94q0 34 7.5 65t18.5 57t33.5 53t41 46.5t52.5 44t57 40t67 39.5t69 37t74 38q35 116 114 405.5t138 491.5q8 28 72 27q57 -1 69 -19q3 -4 2 -8q-122 -430 -258 -827q157 83 273.5 176t191.5 221zM-209 -338q42 112 68 199q-71 -36 -116 -61.5t-97 -62 t-81 -69.5t-49 -78t-20 -94q0 -45 23 -69.5t61 -24.5q64 0 114 67t97 193z" />
<glyph unicode="k" horiz-adv-x="874" d="M877 379q9 18 23.5 2.5t6.5 -31.5q-19 -38 -54.5 -97t-85.5 -132.5t-100 -136t-101 -105.5t-85 -43q-61 0 -100 42.5t-54 107t-23.5 139.5t-11 139.5t-14 108.5t-34.5 45q-8 0 -7 17q2 23 25 24q121 0 208 78t87 180q0 63 -39 63q-76 0 -178 -119t-182.5 -282 t-110.5 -299q-3 -13 -29.5 -17.5t-51.5 1t-23 16.5q65 355 190 790q32 112 50 172t50 153.5t59.5 144t64 105t79 78t90.5 23.5q40 0 62 -26.5t22 -67.5q0 -99 -132.5 -352t-280.5 -453l-47 -164q-6 -24 -3 -26q2 -1 7 7q3 5 6 11q195 346 364 346q54 0 94.5 -29.5 t40.5 -93.5q0 -95 -103.5 -173t-236.5 -101q33 -29 52.5 -96.5t27 -142t14 -145.5t23 -117t45.5 -46q44 0 131 103.5t157.5 214.5t107.5 184zM526 1505q-49 0 -106 -138q-37 -87 -144 -427q-10 -33 -18 -59q-27 -87 -35 -111q135 198 240.5 400.5t105.5 281.5q0 53 -43 53z " />
<glyph unicode="l" horiz-adv-x="526" d="M633 1430q-4 -100 -135 -308t-299 -413q-41 -152 -67 -287.5t-34 -233t-4 -169.5t20 -107.5t40 -34.5q34 1 89.5 61t112 147t100.5 163t72 131q8 17 23 3q16 -16 8 -32q-27 -54 -71.5 -129.5t-105.5 -167t-123.5 -154t-104.5 -63.5q-84 -1 -127 62t-46.5 187.5t25 294.5 t88.5 398q40 150 86 277t103.5 238t127.5 173.5t144 59.5q39 -1 59.5 -28.5t18.5 -67.5zM553 1485q-28 3 -81 -80.5t-120 -243t-125 -350.5q148 189 255 363t110 258q0 25 -8.5 37.5t-30.5 15.5z" />
<glyph unicode="m" horiz-adv-x="1275" d="M848 -205q-58 0 -99.5 36t-41.5 106q0 87 47 246t94 301t47 188q0 35 -21 35q-10 0 -26 -5.5t-53.5 -34t-78.5 -76t-100 -144.5t-118 -226q-4 -11 -20.5 -57t-24.5 -72q-7 -21 -59 -23q-50 -2 -56 16q-1 4 0 7q31 113 77.5 263.5t70.5 238.5t28 141q3 45 -20 45 q-45 0 -123 -99.5t-152.5 -234t-136 -265.5t-82.5 -199q-6 -20 -61 -19q-50 1 -52 16v3q50 183 106 388.5t97 354.5q8 28 73 27q55 -1 68 -18q4 -5 2 -9l-116 -336q-6 -15 4 -15.5t18 13.5q124 232 223 349.5t181 113.5q44 -2 75 -34t23 -105q-7 -66 -47 -201q-5 -16 3 -16 q5 1 13 12q162 264 299 256q52 -4 82.5 -31t34.5 -100q2 -46 -45.5 -188.5t-97 -298t-49.5 -230.5q0 -61 34 -61q40 0 130.5 108.5t168.5 229t111 188.5q8 17 23 3q16 -16 8 -32q-24 -49 -77.5 -135.5t-122.5 -183.5t-142 -166.5t-119 -69.5z" />
<glyph unicode="n" horiz-adv-x="827" d="M829 379q10 17 25 3q14 -16 6 -32q-96 -162 -191.5 -256t-174.5 -94q-50 0 -80.5 36t-30.5 89q0 74 33.5 181t66.5 207.5t33 156.5q0 32 -22 32q-51 0 -150.5 -120.5t-198.5 -299t-145 -329.5q-6 -20 -62 -21q-51 -1 -53 14v3q152 549 240 860q8 28 73 27q55 -1 68 -18 q4 -5 2 -9q-12 -31 -66 -198.5t-65 -196.5q-8 -23 -1 -26.5t22 18.5q44 70 82.5 123.5t92.5 113t112.5 92.5t115.5 33q41 0 63.5 -30.5t14.5 -94.5q-10 -78 -73.5 -270t-63.5 -271q0 -21 8.5 -36t21.5 -15q46 0 130 93t167 235z" />
<glyph unicode="o" horiz-adv-x="741" d="M846 637q7 11 23 1q18 -11 8 -30q-28 -55 -52 -95t-62 -91.5t-81 -80t-86 -28.5q-62 0 -107 37q-44 -166 -134 -278.5t-187 -112.5q-89 0 -138.5 58.5t-49.5 166.5q0 132 34.5 253.5t86.5 203t113.5 130t117.5 48.5q26 0 44.5 -15.5t23.5 -30.5l6 -15q1 -5 -6 -6 q-14 -2 -19 6q-12 12 -29 12q-32 0 -73 -57t-76 -143t-59.5 -197t-24.5 -209q0 -74 21.5 -115t54.5 -41q72 0 149 109.5t115 267.5q-23 35 -31 78q-17 69 -5 152t54 83q28 0 38.5 -49t7.5 -102t-11 -94l-6 -41q30 -54 90 -54q34 0 71.5 28t71.5 75.5t58.5 88.5t48.5 87z" />
<glyph unicode="p" horiz-adv-x="796" d="M774 379q10 17 25 3q14 -16 6 -32q-92 -150 -301 -211q-121 -180 -307 -180q-32 0 -54 18t-22 46q0 26 12 43.5t51 32t59 19.5t86 19q24 5 36 8q76 140 102 318q18 111 14 173t-17 83.5t-38 21.5q-71 0 -181 -204.5t-206 -471t-162 -514.5q-5 -21 -52 -23q-45 -2 -50 16 q-1 3 0 7q24 98 78 309t111 441t116 477q6 28 71 27q56 0 70 -18q4 -4 2 -9q-11 -28 -79.5 -248t-69.5 -223q-13 -36 -7 -44q3 -3 9 9q2 4 4 9q102 263 184 382t176 119q22 0 43.5 -6.5t46 -22t42 -42t31 -66.5t13.5 -95.5t-10 -129.5q-19 -123 -74 -230q169 63 242 189z M197 0q73 0 141 104q-112 -21 -140 -37t-28 -42q0 -25 27 -25z" />
<glyph unicode="q" horiz-adv-x="749" d="M547 778q8 28 72 27q57 -1 69 -19q3 -4 2 -8q-196 -669 -346 -1227q-5 -21 -51 -23q-44 -2 -51 16q-1 3 0 7q14 62 39.5 176.5t49.5 216.5t48 201q4 15 -2.5 18t-14.5 -9q-102 -156 -200 -156q-88 0 -139 60t-50 173q1 96 37 198.5t93.5 186.5t139.5 138.5t169 54.5 q90 0 125 -66zM180 41q52 0 127.5 100t130.5 244q56 210 76 277q-6 43 -30 74.5t-56 31.5q-75 0 -148.5 -98t-118 -241t-44.5 -275q0 -113 63 -113z" />
<glyph unicode="r" horiz-adv-x="778" d="M780 379q10 19 25 4q15 -17 6 -33q-55 -102 -112.5 -193t-123.5 -176t-131.5 -135.5t-119.5 -50.5q-69 0 -109.5 51.5t-36.5 143.5q6 116 66.5 309.5t158.5 405.5q13 27 9.5 46t-29.5 33q-77 38 -139 88q-45 -219 -211 -522q-8 -14 -23 2q-14 15 -8 27q170 315 207 526 q-55 52 -55 101q0 37 14 59t39 22t39 -19.5t14 -51.5q0 -52 -8 -96q31 -27 75 -54.5t79 -46t38 -20.5q41 -26 64 -50.5t28.5 -49.5t0.5 -47t-19 -52q-80 -164 -141.5 -354.5t-61.5 -308.5q0 -76 52 -76q65 0 179 151.5t234 366.5z" />
<glyph unicode="s" horiz-adv-x="577" d="M692 637q7 16 22 2q17 -15 9 -31q-49 -95 -143.5 -172t-237.5 -160q4 -33 4 -98q-3 -157 -100 -273t-209 -116q-69 0 -100 36.5t-31 82.5q0 51 23.5 97.5t70.5 89t95 75.5t120 76q-2 195 -37 399q-67 -158 -145 -295q-9 -14 -24 -1q-16 14 -7 30q81 138 164 348 q-14 76 -19 115.5t-2 84t21 74.5q24 43 57 43q26 0 38.5 -25.5t12.5 -62.5q0 -51 -45 -178q2 -8 27.5 -94t35 -123.5t25 -109.5t21.5 -132q135 79 223.5 153t130.5 165zM213 168v33q-132 -79 -201 -148t-69 -153q0 -46 41 -58q66 0 119.5 54t80.5 127t29 145z" />
<glyph unicode="t" horiz-adv-x="520" d="M522 379q10 19 25 5q16 -15 6 -34q-109 -206 -238.5 -338.5t-222.5 -132.5q-68 0 -99.5 44t-31.5 157q0 181 191 856q-52 0 -166 4q-19 1 -25 15.5t-2 28.5l4 15q111 -6 205 -6l80 277q8 29 73 28q55 0 67 -17q2 -3 1 -7q-36 -113 -84 -279q75 2 211 13q1 -2 1.5 -4.5 t0.5 -9.5t-1.5 -12.5t-8 -11t-16.5 -7.5q-98 -16 -203 -23q-248 -836 -199 -970q11 -29 35 -29q62 0 178.5 121.5t218.5 316.5z" />
<glyph unicode="u" horiz-adv-x="919" d="M922 379q9 18 23.5 2.5t6.5 -31.5q-26 -51 -71.5 -126t-105.5 -161.5t-123 -146t-105 -59.5q-246 0 -127 475q3 15 1.5 22.5t-7.5 4t-13 -16.5q-76 -123 -141 -194.5t-121 -71.5q-164 0 -158 187q3 115 83 370q6 16 16 48q5 17 8 26q8 27 73 26q57 -2 69 -20q2 -4 1 -8 q-93 -295 -114 -393q-42 -195 22 -195q48 0 116.5 79t130.5 191t113.5 225t73.5 189q9 29 74 28q55 -1 68 -19q4 -5 2 -9q-72 -202 -121 -359.5t-76.5 -283t-21.5 -193t49 -67.5q44 0 126 98.5t146.5 203t102.5 179.5z" />
<glyph unicode="v" horiz-adv-x="763" d="M176 -82q59 0 122.5 71t109.5 169t78.5 191t39.5 147q-69 90 -69 241q0 97 67 97q89 0 47 -326q39 -39 107 -39q97 0 190 168q8 14 24 -2q14 -14 7 -27q-28 -51 -54.5 -85.5t-71 -62.5t-95.5 -28q-64 0 -113 33q-6 -31 -20.5 -79t-39 -117.5t-59.5 -135.5t-76.5 -125 t-96.5 -95t-113 -36q-55 0 -93.5 21.5t-58 61.5t-29 89.5t-5 113t13 123.5t26 129.5t33.5 123.5t35 112q9 28 74 33q55 4 66 -13q3 -4 1 -9q-46 -114 -80.5 -238.5t-51.5 -240t3 -190.5t82 -75z" />
<glyph unicode="w" horiz-adv-x="1075" d="M895 479q-18 -76 -37 -143t-51.5 -158t-66 -154.5t-79 -109t-92.5 -45.5q-58 0 -100 38.5t-61.5 100.5t-26 130t-0.5 138q0 26 -12 5q-46 -93 -99 -149t-102 -56q-69 0 -109.5 40t-51.5 107.5t-0.5 158t39 189t71.5 203.5q12 30 77 29q54 -1 65 -19q3 -5 1 -10 q-120 -258 -152 -455q-29 -198 60 -202q43 0 94 66t94.5 161t81.5 211l13 41q1 1 1.5 3t1 3t1.5 2q20 24 81 20q49 -3 51 -21q0 -2 -1 -5q-57 -142 -85 -302t-12 -273t80 -113q45 0 90.5 59.5t83 155.5t65 190t48.5 189q-34 38 -52 102t-18 131q0 97 68 97q89 0 47 -316 q45 -33 103 -33q56 0 96.5 40.5t79.5 111.5q8 13 23 -1t7 -28q-21 -38 -37.5 -62t-41.5 -48.5t-56.5 -36.5t-70.5 -12q-57 0 -109 30z" />
<glyph unicode="x" horiz-adv-x="770" d="M772 379q10 19 25 5q16 -15 6 -34q-26 -48 -60.5 -103.5t-91.5 -138.5t-115 -136.5t-100 -53.5q-174 0 -243 281q-100 -142 -123 -213q-1 -4 -16.5 -0.5t-27 19.5t-3.5 42q16 46 155 217q-24 116 -33 279q-2 15 -8.5 16t-11.5 -14q-32 -95 -92 -195q-9 -15 -24 2 q-13 15 -7 27q64 129 92.5 226.5t42.5 203.5q2 20 37.5 25.5t70 -3t34.5 -22.5q0 -227 18 -399q31 38 47 57q94 113 139.5 175t74 129.5t28.5 135.5q2 2 15 3t27 -9t11 -27q-12 -76 -73.5 -177.5t-188.5 -254.5q-32 -38 -74 -92q23 -186 61 -288.5t82 -102.5q27 0 77 53.5 t101 129.5t89.5 138t58.5 99z" />
<glyph unicode="y" horiz-adv-x="829" d="M831 379q8 17 23 3q16 -16 8 -32q-64 -130 -172.5 -223.5t-257.5 -177.5q-58 -165 -106 -295q-57 -153 -141 -223t-173 -70q-58 0 -91.5 37t-33.5 94q0 74 28 134t99.5 116.5t120 86t160.5 89.5q12 7 18 10q9 29 117 414q3 12 -5.5 15.5t-14.5 -7.5 q-78 -136 -151.5 -224.5t-123.5 -88.5q-38 0 -67.5 9.5t-47.5 29t-29.5 43.5t-13.5 59t-1 69.5t10.5 80t19.5 86t27 93t31 94t34 95.5q11 27 76 24q55 -3 67 -22q2 -4 1 -8q-43 -117 -73 -212t-54 -192.5t-20 -152.5t40 -55q37 0 111.5 93.5t146 218.5t111.5 224 q8 31 55 195q8 28 72 27q57 -1 69 -19q3 -4 2 -8q-129 -452 -249 -803q272 163 378 373zM223 -338q31 83 72 211q-52 -28 -84 -45.5t-75.5 -44.5t-69.5 -48t-55.5 -50t-45.5 -56.5t-26.5 -61.5t-10.5 -71q0 -45 23 -69.5t61 -24.5q64 0 114 67t97 193z" />
<glyph unicode="z" horiz-adv-x="778" d="M780 379q8 17 23 3q16 -16 8 -32q-57 -115 -150 -204.5t-217 -168.5q-16 -82 -46 -166t-75 -165.5t-98.5 -144.5t-122 -101.5t-141.5 -38.5q-58 0 -91.5 37t-33.5 94q0 31 7 60t17.5 53.5t31.5 50t38.5 45t49.5 43.5t54.5 39.5t62.5 40t64.5 38t70.5 39.5t71 40 q27 111 27 174q0 237 -78 237q-10 0 -16.5 -5t-16 -18.5t-20.5 -23.5l-2 2l-2 -2q-5 -4 -17 0.5t-20 13.5t-2 15q87 160 117.5 223t95.5 223q12 31 8 47t-29 33q-61 44 -106 94q-28 -154 -87 -321.5t-122 -282.5q-9 -15 -24 2q-13 15 -7 27q63 116 122.5 289.5t84.5 328.5 q-53 72 -53 140q0 37 14 59.5t39 22.5t39 -19.5t14 -52.5q0 -54 -10 -129q53 -65 158 -144q79 -59 92.5 -103t-19.5 -95q-34 -64 -74 -118t-116 -142q-9 -9 -6.5 -16t14.5 -9q160 -27 160 -264q0 -41 -6 -94q231 157 325 346zM-39 -598q56 0 121 75t117.5 183t87.5 225 q-183 -102 -232 -135q-141 -94 -169 -192q-9 -30 -9 -62q0 -45 23 -69.5t61 -24.5z" />
<glyph unicode="{" horiz-adv-x="804" d="M125 788q50 0 85 31.5t55.5 84.5t35 122t27.5 145.5t28.5 153t42.5 145.5t64.5 122t99.5 84.5t144 31.5q25 0 34 -21q4 -10 -2 -10q-74 3 -127 -23t-83 -72.5t-49 -108.5t-28 -133.5t-16 -144.5t-18 -143.5t-29.5 -129t-54.5 -103t-88 -63.5q45 -40 55.5 -112t-4 -152 t-38 -168.5t-41.5 -168t-19.5 -144t33.5 -102.5t112 -38q7 0 -1 -12q-12 -17 -36 -17q-85 0 -134 38.5t-60.5 101t-7 142.5t23.5 163.5t34 163.5t22.5 142.5t-10 101t-64.5 38.5q-4 2 -4.5 14t5 26.5t13.5 14.5z" />
<glyph unicode="|" horiz-adv-x="483" d="M279 -207q0 -6 -13.5 -11.5t-25 -5.5t-13.5 5v1939q0 7 12.5 12.5t23 5.5t13.5 -5v-2z" />
<glyph unicode="}" horiz-adv-x="718" d="M608 788q8 0 8.5 -14t-4.5 -27.5t-10 -13.5q-47 0 -78 -38.5t-45.5 -101t-28 -142.5t-23.5 -163.5t-34 -163.5t-57.5 -142.5t-96 -101t-147.5 -38.5q-27 0 -30 20q-1 9 4 9q77 0 125.5 38t69.5 102.5t31 144t17.5 168t21 168.5t49.5 152t95 112q-46 19 -66.5 63.5 t-18 103t16.5 129t32.5 143.5t34.5 144.5t19.5 133.5t-10 108.5t-57.5 72.5t-119 23q-8 0 4 13q17 18 39 18q104 0 158 -50.5t62 -132t-3 -179.5t-30 -196t-27.5 -179.5t13.5 -132t85 -50.5z" />
<glyph unicode="~" horiz-adv-x="638" d="M514 555h1q-1 -14 -24 -38q-6 -6 -12 -11q-31 -23 -73.5 -19.5t-82 18t-92.5 17t-104 -21.5q-3 -1 -3 1q0 13 23 33q3 1 5 3q34 25 73 28.5t74.5 -6.5t70.5 -20.5t73 -8.5t71 25z" />
<glyph unicode="&#xa1;" horiz-adv-x="698" d="M403 874q50 0 50 -65q0 -45 -22.5 -71.5t-55.5 -26.5q-28 0 -46 18t-18 41q0 36 29.5 70t62.5 34zM336 379q-239 -874 -316 -1145q-8 -28 -73 -27q-55 1 -68 18q-4 5 -2 9q109 305 250.5 735.5t153.5 466.5q3 0 7.5 -0.5t16.5 -3t18.5 -8.5t13 -17t-0.5 -28z" />
<glyph unicode="&#xa2;" horiz-adv-x="897" d="M741 1579v-2l-149 -559q38 -10 58 -38.5t20 -61.5q0 -47 -27 -91q-12 -15 -32 -8q-17 5 -9 17q21 39 16 86t-36 59l-203 -762q62 11 114.5 68.5t71.5 136.5q2 0 4.5 -0.5t11 -2.5t15 -4.5t15.5 -7.5t13 -12t7 -17t-2 -22q-17 -57 -93.5 -116.5t-168.5 -67.5l-125 -469 q-4 -11 -31 -9q-15 3 -14 9v2l125 469q-86 8 -142.5 79t-56.5 187q0 151 58 285t156.5 215t211.5 82l149 555q3 9 23 9t20 -9zM270 387q0 -153 64 -168l205 762q-65 -17 -128 -111t-102 -226.5t-39 -256.5z" />
<glyph unicode="&#xa3;" horiz-adv-x="1460" d="M1114 1466q91 0 150.5 -68t69 -181t-35.5 -259q-25 -75 -51 -98q-30 -28 -78 -13q-12 4 -12 7q21 13 42.5 47.5t35.5 75.5q40 125 32 224t-48 160.5t-93 61.5q-39 0 -71.5 -19.5t-56 -51.5t-43.5 -82.5t-33 -103t-27.5 -124t-24 -133.5t-24 -144t-27.5 -144 q145 -4 209 10l2 -2q0 -41 -24 -49q-31 -11 -199 -7q-68 -306 -201 -448q93 -68 175 -106.5t165 -38.5q92 0 133 49t41 129q2 3 17 2t32 -14t17 -31q0 -11 -5.5 -29t-22 -45t-41.5 -49.5t-70.5 -38.5t-102.5 -16q-160 0 -375 153q-116 -92 -272 -92q-92 0 -167 72.5 t-75 173.5q0 70 33.5 102.5t71.5 32.5q36 0 76.5 -13t68 -25.5t78.5 -47.5t69 -49t78 -60q76 113 140 394q-99 0 -144 -11l-2 2q4 40 21 47q20 9 133 9q9 44 23.5 117.5t24 121t25 115t28.5 112t32.5 100.5t40 92.5t48.5 74t59 59t70.5 35.5t84.5 14zM293 49q124 0 205 94 q-16 12 -52.5 40t-53.5 41t-48 34.5t-49.5 32t-43 23t-44.5 17.5t-39 5q-66 0 -66 -70q0 -86 51 -151.5t140 -65.5z" />
<glyph unicode="&#xa4;" horiz-adv-x="1263" d="M1053 1030q28 -28 18 -51q-8 -17 -98 -113l6 -49q7 -120 -45 -260.5t-141 -241.5q130 -179 151 -198l-2 -4q-40 -17 -51 -9q-5 4 -20.5 23.5t-52 69.5t-60.5 82q-108 -103 -221 -103q-99 0 -172 70q-122 -126 -136 -152h-4q-22 31 -18 49q5 16 125 142q-45 67 -45 157 q0 243 151 398q-82 114 -112 141v2l4 3q4 2 7.5 4t9.5 4t11 2.5t11 -0.5t10 -5q26 -21 94 -119q113 93 227 93q17 0 33 -7t21 -14q19 -25 -2 -52q-9 -11 -9 -5q0 12 -12 20t-29 8q-58 0 -115 -35t-102 -95.5t-72.5 -150.5t-27.5 -192q0 -100 39.5 -161.5t112.5 -61.5 q98 0 195.5 97t154 237.5t49.5 263.5q-6 107 -69 165t-134 34l-2 3q-4 18 11 32q11 10 28 10q60 0 111 -34.5t77 -104.5q13 15 32 36t29 32t19 22.5t13 17.5h2z" />
<glyph unicode="&#xa5;" horiz-adv-x="1318" d="M1044 1343q3 20 41.5 28t75.5 2.5t35 -19.5q-61 -425 -98.5 -628t-96.5 -396q117 0 158 10l2 -2q0 -41 -24 -49q-26 -10 -150 -6q-6 -20 -29 -72q104 -4 160 10l2 -2q0 -41 -24 -49q-28 -10 -158 -6q-130 -254 -367 -279q-134 -14 -237 45.5t-162 169.5q-22 41 17 73 q23 18 34 13l2 -2q62 -145 140 -206.5t200 -51.5q167 15 260 240q-78 3 -127 -8l-2 2q4 40 21 47q20 8 127 8q15 43 22 70q-74 3 -127 -9l-2 3q4 40 21 47q18 8 121 8q36 135 65 311q-61 -150 -142.5 -240t-176.5 -90q-89 0 -146 80.5t-47 216.5q1 23 4.5 49.5t7.5 47.5 t13.5 59.5t15 60t20 75.5t21.5 81q122 458 -82 469q-70 6 -134.5 -47t-104 -138.5t-46.5 -176.5q-3 -40 3.5 -76t19.5 -49l-5 -4q-34 -12 -63 1q-12 5 -18 15t-9 38.5t1 59.5q6 85 34 162t74 137t115 93t150 26q51 -4 90.5 -18t75.5 -49.5t53.5 -90t14 -146.5t-33.5 -212 q-11 -47 -28.5 -117t-25 -102t-16 -73t-12.5 -73q-37 -241 82 -241q66 0 133.5 84t119.5 212.5t87 280.5l49 348v9z" />
<glyph unicode="&#xa6;" horiz-adv-x="483" d="M279 954q0 -7 -13.5 -12t-25 -5t-13.5 5v778q0 7 12.5 12.5t23 5.5t13.5 -5v-2zM274 -197q0 -7 -13 -12t-24.5 -5t-13.5 5v778q0 7 12.5 12.5t23.5 5.5t13 -5v-2z" />
<glyph unicode="&#xa7;" horiz-adv-x="927" d="M621 1608q77 0 130.5 -50.5t53.5 -119.5q0 -12 -11.5 -17.5t-23.5 -4t-12 4.5q0 67 -34.5 107.5t-92.5 40.5q-61 0 -102.5 -53.5t-41.5 -133.5q0 -54 28 -113t68.5 -112t80.5 -105.5t68 -112t28 -114.5q0 -103 -63.5 -166t-161.5 -84q46 -61 68.5 -93.5t45.5 -86 t23 -100.5q0 -65 -27 -116.5t-70.5 -81.5t-92.5 -45t-99 -15q-99 0 -161.5 66t-57.5 141q1 15 15 23t28 7t14 -6q-11 -65 33 -129t119 -65q86 -2 134 50.5t48 149.5q0 63 -27 122t-65.5 106.5t-77 96t-65.5 111.5t-27 132q0 96 65 163t162 72q-44 52 -69 86.5t-47.5 92 t-22.5 116.5q0 100 69.5 168t170.5 68zM508 610q71 13 107 59t36 136q0 66 -25.5 119.5t-74.5 113.5h-8q-60 0 -102 -53.5t-42 -132.5q0 -58 28 -113.5t81 -128.5z" />
<glyph unicode="&#xa8;" horiz-adv-x="589" d="M184 1571q-53 0 -45 63q8 66 66 66q27 0 38 -19t5 -47q-15 -63 -64 -63zM385 1571q-53 0 -45 63q8 66 63 66q28 0 40 -19t6 -47q-15 -63 -64 -63z" />
<glyph unicode="&#xa9;" horiz-adv-x="1804" d="M774 -45q-126 0 -238 38.5t-193.5 108t-138 165t-72.5 209t3 241.5q27 153 112.5 292.5t205.5 240.5t272 160.5t307 59.5q126 0 237.5 -38.5t193 -107.5t138 -164.5t72.5 -209t-4 -241.5q-27 -153 -111.5 -292.5t-204.5 -240.5t-272 -161t-307 -60zM774 -4 q192 0 372.5 96.5t305 262.5t158.5 362q26 145 -6.5 277t-110 227.5t-198 152t-263.5 56.5q-193 0 -373.5 -96.5t-304.5 -262.5t-159 -362q-25 -145 7.5 -277t110 -227.5t198 -152t263.5 -56.5zM805 360q68 0 130.5 59.5t82.5 147.5q2 0 4.5 -0.5t11 -2t15 -4.5t15.5 -8 t12.5 -11.5t6.5 -16.5t-2 -22q-20 -62 -103 -123.5t-179 -61.5t-160 72.5t-64 196.5q0 133 58.5 257.5t159 203.5t213.5 79q56 0 86 -32.5t30 -73.5q0 -47 -26 -90q-12 -15 -32 -9q-17 5 -9 17q25 44 14 96.5t-53 52.5q-67 0 -136.5 -91t-113 -222t-43.5 -244 q0 -99 22 -134.5t60 -35.5z" />
<glyph unicode="&#xaa;" horiz-adv-x="950" d="M741 1296q2 0 6 -1t14.5 -4t15.5 -8t10.5 -14t-1.5 -22q-35 -95 -108.5 -179.5t-136.5 -84.5q-82 0 -111 50t-14 155q3 17 -2 19.5t-13 -11.5q-77 -129 -145 -129q-63 0 -108.5 41.5t-45.5 138.5q0 164 86.5 273.5t192.5 109.5q51 0 85 -29.5t34 -76.5q0 -18 -17 -24 q-10 -3 -10 3q0 36 -18 62t-47 26q-41 0 -86 -56.5t-75 -147.5t-30 -181q0 -106 47 -106q34 0 79 62t76.5 130t59.5 142h2q30 87 64 178q9 24 62 20q42 -3 44 -17q1 -1 0 -3q-231 -576 -118 -597q4 -1 8 -1q52 0 106.5 81t93.5 201zM588 918q0 -41 -25 -50q-30 -11 -222 -5 t-257 -7l-2 2q4 40 20 47q24 11 218.5 6t265.5 9z" />
<glyph unicode="&#xab;" horiz-adv-x="796" d="M125 530q65 43 98 65t82 60.5t84 73.5q7 7 7 -2q0 -14 -11 -35q-18 -35 -48 -69.5t-55 -56.5t-73 -62q20 -16 47 -80t37 -111q9 -44 -1 -48q-2 -1 -5 3q-8 13 -28 42.5t-29.5 43.5t-26.5 38.5t-29.5 40.5t-29.5 35.5t-33 35.5q-8 5 -5.5 10.5t4.5 7t8 5t7 3.5zM360 530 q68 45 99 65.5t81 59.5t85 74q7 7 7 -2q0 -14 -11 -35q-18 -35 -49 -70t-54.5 -56t-73.5 -62q20 -16 47 -80t37 -111q9 -44 -1 -48q-2 -1 -5 3q-8 13 -28 42.5t-29.5 43.5t-26.5 38.5t-29.5 40.5t-29.5 35.5t-33 35.5q-8 5 -5.5 10.5t4.5 7t8 5t7 3.5z" />
<glyph unicode="&#xad;" horiz-adv-x="1228" d="M627 563q0 -40 -25 -49q-30 -11 -222 -5t-257 -7l-2 2q4 40 20 47q24 11 218.5 5.5t265.5 8.5z" />
<glyph unicode="&#xae;" horiz-adv-x="1323" d="M827 1659q120 0 211.5 -58t133.5 -159t22 -221q-31 -179 -182 -307t-334 -128t-289.5 128t-75.5 311q31 180 181.5 307t332.5 127zM1133 1229q28 160 -61.5 274.5t-244.5 114.5q-160 0 -292 -117t-160 -284q-28 -161 60.5 -275.5t242.5 -114.5q161 0 294 118t161 284z M784 1452q10 0 18.5 -0.5t24 -3.5t26 -9t24 -16.5t19 -26.5t9.5 -38.5t-4 -52.5q-9 -57 -46 -97.5t-89 -54.5l92 -152q2 -3 -8 -6q-33 -8 -56 -1q-5 1 -6 3l-59 148h-16q-5 1 -4.5 8.5t3.5 16t5 8.5q49 0 80.5 31.5t40.5 88.5q11 58 -3 91.5t-53 33.5q-34 0 -53 -8 q-17 -66 -45 -213q-20 -117 -29 -205q0 -5 -16 -6.5t-32 1t-15 7.5q19 81 37 203q4 28 19 110.5t20 125.5q2 3 43.5 8.5t72.5 5.5z" />
<glyph unicode="&#xaf;" horiz-adv-x="665" d="M545 1651q0 -40 -25 -49q-30 -11 -181 -5.5t-216 -7.5l-2 2q4 40 20 47q24 11 178 6t224 9z" />
<glyph unicode="&#xb0;" horiz-adv-x="821" d="M551 1573q23 0 42 -4t39.5 -17t34.5 -35t23 -61t8 -92q-1 -68 -25 -149.5t-63.5 -154.5t-98 -122t-120.5 -49q-86 0 -136 56t-50 151q0 166 88 287.5t209 121.5q29 0 41 -16q15 -21 -2 -41q-10 -8 -13 0q0 16 -24 16q-52 0 -99.5 -56t-76.5 -146t-29 -185 q0 -70 24 -109.5t68 -39.5q67 0 131.5 73.5t102 174.5t37.5 188q0 109 -42.5 151t-93.5 19q-7 -3 -8 7q-1 20 18 29q7 3 15 3z" />
<glyph unicode="&#xb1;" horiz-adv-x="753" d="M639 610l2 -2q-14 -42 -33 -49q-33 -12 -207 -8q-21 -102 -18 -166l-2 -2q-41 0 -45 25q-6 31 16 145q-162 7 -227 -6v2q9 39 29 47q31 11 208 4q25 140 23 184l4 2q39 -5 43 -20q5 -22 -22 -166q170 -4 229 10zM115 303q25 9 219.5 4.5t265.5 9.5l2 -2q-14 -42 -33 -49 q-35 -14 -227 -7t-256 -5v2q9 39 29 47z" />
<glyph unicode="&#xb2;" horiz-adv-x="909" d="M623 723q6 22 38 22q14 -1 13 -6l-6 -15q-5 -15 -10.5 -25.5t-15.5 -28.5t-22.5 -30.5t-29.5 -25t-39.5 -19.5t-48.5 -7q-38 0 -80 9t-65.5 17t-68.5 26.5t-57 23.5q-63 -48 -108 -48q-29 0 -45.5 15.5t-16.5 40.5q0 26 30.5 46.5t70.5 20.5q29 0 71 -10q81 82 163.5 204 t146 276t63.5 276q0 139 -76 139q-68 0 -127 -82.5t-59 -191.5q0 -54 18 -76q6 -5 -10 -10q-33 -9 -51 10q-10 20 -10 63q0 135 74.5 227.5t181.5 92.5q72 0 115 -47.5t43 -124.5q0 -183 -130.5 -410t-283.5 -364q7 -3 33 -13.5t35.5 -14t31.5 -11t35 -10.5t30.5 -6t32.5 -3 q35 0 62 9t41.5 23t21 22.5t9.5 15.5z" />
<glyph unicode="&#xb3;" horiz-adv-x="915" d="M483 1178q72 0 122 -44.5t50 -132.5q0 -75 -26.5 -146.5t-75.5 -131t-127.5 -95.5t-173.5 -36q-79 0 -132 41t-59 108q-1 17 26 27q24 9 24 -2q12 -139 141 -139q56 0 105 25.5t82.5 65.5t58 90.5t36 99.5t11.5 93q0 40 -12 68.5t-31 41.5t-34.5 18.5t-29.5 5.5 q-51 0 -84 -17q-7 -2 -11 10q-6 23 7 37l2 2q4 4 10.5 8t17 8.5t15.5 6.5q21 7 55 31.5t71.5 62.5t64 94t26.5 115q0 56 -24.5 89.5t-65.5 33.5q-60 0 -106.5 -38.5t-67 -86t-20.5 -90.5q0 -12 -18 -3q-23 10 -23 29q-2 27 12.5 63t43 72.5t80 61.5t114.5 25q81 0 127.5 -42 t46.5 -114q0 -95 -72 -186.5t-156 -128.5z" />
<glyph unicode="&#xb4;" horiz-adv-x="477" d="M164 1569q34 39 119 149q29 30 49 23.5t34 -27.5t9 -24q-52 -45 -182 -148q-6 -4 -14.5 1.5t-13.5 13.5t-1 12z" />
<glyph unicode="&#xb6;" horiz-adv-x="1228" d="M1065 1579q51 51 121 25q46 -17 59 -49t-29 -41q-9 -2 -20 -3q-34 -2 -96 2q-42 -80 -75 -179.5t-53.5 -194.5t-41 -200t-36 -200.5t-39.5 -190.5t-51.5 -174.5t-72 -148.5t-100.5 -117t-137.5 -75t-182.5 -27q-133 0 -221 104.5t-88 276.5q0 175 66 275q20 25 42.5 23 t42 -14.5t15.5 -17.5q-96 -125 -96 -295q0 -135 66.5 -223t172.5 -88q85 0 152.5 46t112 123.5t83.5 184t66 222.5t59 245t63 245t78.5 229.5t104.5 191.5q-63 11 -172 47.5t-176 36.5q-125 0 -203 -88t-78 -246q0 -77 20.5 -140t76.5 -132q2 -2 -6 -6q-38 -19 -96 -18 q-66 2 -91 40q-49 74 -49 227q0 190 119 297t323 107q74 0 134.5 -12t132 -36t100.5 -32z" />
<glyph unicode="&#xb7;" horiz-adv-x="458" d="M162 498q-49 0 -49 65q0 45 22 72t55 27q28 0 46 -18.5t18 -41.5q0 -36 -29.5 -70t-62.5 -34z" />
<glyph unicode="&#xb8;" horiz-adv-x="567" d="M264 -340q-49 0 -71.5 21.5t-22.5 48.5q0 16 10 28.5t25 12.5q10 0 16 -5.5t7 -10.5l1 -5q-11 0 -18.5 -7t-7.5 -17q0 -15 14.5 -27t42.5 -12q34 0 55.5 24t24.5 58q7 73 -41 73q-8 0 -54 -13q-21 -7 -20 3q0 3 2 8q11 26 35 88l35 2l-25 -63q-2 -7 -2.5 -9t2 -3t9.5 2 q24 8 47 8q35 0 58.5 -20.5t19.5 -71.5q-4 -53 -49.5 -83t-92.5 -30z" />
<glyph unicode="&#xb9;" horiz-adv-x="722" d="M621 1616q0 -43 -50 -96q-45 -119 -139.5 -431.5t-132.5 -459.5q-4 -17 -54 -17q-48 -1 -48 15v2q39 144 247 790q-24 -16 -79.5 -52t-82.5 -55t-62 -47t-50.5 -50.5t-15.5 -43.5t10 -34q-6 -9 -24 -8.5t-25 10.5q-13 19 -13 43q0 28 22 58t64.5 61.5t83 57.5t99 61 t90.5 57q8 22 12 41q25 93 85 121q38 18 56 -4q7 -7 7 -19z" />
<glyph unicode="&#xba;" horiz-adv-x="692" d="M676 1507q2 0 5 -1.5t11.5 -5.5t12 -9.5t7 -15t-2.5 -21.5q-13 -34 -54 -61t-88 -27q-42 0 -69 18q-2 -13 -8.5 -37t-8.5 -34q-73 -283 -211 -283q-32 0 -60.5 10.5t-54.5 32.5t-41.5 64t-15.5 98q0 92 34 179.5t105.5 149.5t163.5 62q21 0 41 -10q8 16 31 16 q74 0 31 -223q21 -14 49 -14q43 0 70.5 27t52.5 85zM287 1065q42 0 90 65.5t76 188.5q13 53 18 88q-50 56 -43 162q0 4 1 10.5t1 9.5q-9 6 -20 6q-49 0 -89.5 -40t-63.5 -100.5t-35.5 -125t-12.5 -121.5q0 -69 22 -106t56 -37zM102 905q24 11 218.5 6t265.5 9l2 -2 q0 -41 -25 -50q-30 -11 -222 -5t-257 -7l-2 2q4 40 20 47z" />
<glyph unicode="&#xbb;" horiz-adv-x="778" d="M668 508q-43 -31 -91 -73.5t-78.5 -72.5t-88.5 -90q-10 -9 -10 3q1 14 18 42q23 44 74 109.5t77 81.5q-34 41 -50.5 62.5t-34 56t-23.5 69.5q-8 29 1 39q3 3 7 -2q22 -34 53 -65.5t75 -70.5t67 -62l6 -5q7 -5 6.5 -8.5t-8.5 -13.5zM432 504q-43 -31 -91 -73.5 t-78.5 -72.5t-88.5 -90q-10 -9 -10 3q1 14 18 42q23 44 74 109t78 82q-35 42 -51 62.5t-34 55.5t-24 70q-8 29 1 39q3 3 7 -2q22 -34 53 -66t75.5 -71.5t66.5 -61.5l6 -4q7 -5 6.5 -9t-8.5 -13z" />
<glyph unicode="&#xbc;" horiz-adv-x="2336" d="M1266 1694q3 9 23 9t20 -9v-2l-500 -1872q-4 -11 -31 -9q-15 3 -14 9v2zM2089 1008q16 12 37 -3q10 -6 6 -10q-78 -78 -174 -86q-58 -233 -82 -311q-7 -15 -46 -14q-32 1 -30 14q10 39 36.5 146.5t41.5 168.5q-66 7 -182 37.5t-123 32.5q-43 -43 -78 -43q-43 0 -43 39 q0 22 23.5 36.5t58.5 14.5q23 0 35 -2q63 84 109 253.5t46 379.5q0 15 28 8q33 -8 41 -32q1 -5 1 -9q0 -183 -54.5 -345.5t-129.5 -258.5q40 -7 134.5 -33t143.5 -33q83 358 135 500q6 17 56 14q44 -3 43 -16v-2q-72 -182 -152 -502q24 1 45 8.5t32 14.5t25 19t17 14z M473 1518q25 93 85 121q38 18 56 -4q7 -7 7 -19q0 -43 -50 -96q-45 -119 -139.5 -431.5t-132.5 -459.5q-4 -17 -54 -17q-48 -1 -48 15v2q39 144 247 790q-24 -16 -79.5 -52t-82.5 -55t-62 -47t-50.5 -50.5t-15.5 -43.5t10 -34q-6 -9 -24 -8.5t-25 10.5q-13 19 -13 43 q0 28 22 58t64.5 61.5t83 57.5t99 61t90.5 57q8 22 12 41z" />
<glyph unicode="&#xbd;" horiz-adv-x="2299" d="M1266 1694q3 9 23 9t20 -9v-2l-500 -1872q-4 -11 -31 -9q-15 3 -14 9v2zM2013 723q6 22 38 22q14 -1 13 -6l-6 -15q-5 -15 -10.5 -25.5t-15.5 -28.5t-22.5 -30.5t-29.5 -25t-39.5 -19.5t-48.5 -7q-38 0 -79.5 9t-65.5 17.5t-68 26.5t-57 23q-63 -48 -109 -48 q-29 0 -45 15.5t-16 40.5q0 26 30 46.5t70 20.5q30 0 72 -10q81 82 163.5 204t146 276t63.5 276q0 139 -76 139q-68 0 -127 -82.5t-59 -191.5q0 -54 18 -76q6 -5 -10 -10q-33 -9 -51 10q-11 22 -11 63q0 135 74.5 227.5t181.5 92.5q72 0 115 -47.5t43 -124.5 q0 -183 -130.5 -410t-283.5 -364q5 -2 33 -13.5t36 -14.5t31 -11t35.5 -10.5t30.5 -5.5t33 -3q35 0 62 9t41.5 23t20.5 22.5t9 15.5zM473 1518q25 93 85 121q38 18 56 -4q7 -7 7 -19q0 -43 -50 -96q-45 -119 -139.5 -431.5t-132.5 -459.5q-4 -17 -54 -17q-48 -1 -48 15v2 q39 144 247 790q-24 -16 -79.5 -52t-82.5 -55t-62 -47t-50.5 -50.5t-15.5 -43.5t10 -34q-6 -9 -24 -8.5t-25 10.5q-13 19 -13 43q0 28 22 58t64.5 61.5t83 57.5t99 61t90.5 57q8 22 12 41z" />
<glyph unicode="&#xbe;" horiz-adv-x="2529" d="M1458 1694q3 9 23 9t20 -9v-2l-500 -1872q-4 -11 -31 -9q-15 3 -14 9v2zM2281 1008q16 12 37 -3q10 -6 6 -10q-78 -78 -174 -86q-58 -233 -82 -311q-6 -15 -45 -14q-32 1 -30 14q10 39 36.5 146.5t41.5 168.5q-66 7 -182.5 38t-123.5 32q-43 -43 -77 -43q-43 0 -43 39 q0 22 23 36.5t58 14.5q23 0 35 -2q63 85 109.5 254.5t46.5 378.5q0 15 28 8q33 -8 41 -32q1 -5 1 -9q0 -183 -54.5 -345t-130.5 -259q40 -7 135 -33t144 -33q83 358 135 500q6 17 56 14q44 -4 42 -18q-69 -175 -151 -502q24 1 45 8.5t31.5 14.5t24.5 19t17 14zM711 1493 q0 -95 -72 -186.5t-156 -128.5q72 0 122 -44.5t50 -132.5q0 -75 -26.5 -146.5t-75.5 -131t-127.5 -95.5t-173.5 -36q-79 0 -132 41t-59 108q-1 17 26 27q24 9 24 -2q12 -139 141 -139q56 0 105 25.5t82.5 65.5t58 90.5t36 99.5t11.5 93q0 40 -12 68.5t-31 41.5t-34.5 18.5 t-29.5 5.5q-51 0 -84 -17q-7 -2 -11 10q-6 23 7 37l2 2q4 4 10.5 8t17 8.5t15.5 6.5q21 7 55 31.5t71.5 62.5t64 94t26.5 115q0 56 -24.5 89.5t-65.5 33.5q-60 0 -106.5 -38.5t-67 -86t-20.5 -90.5q0 -12 -18 -3q-23 10 -23 29q-2 27 12.5 63t43 72.5t80 61.5t114.5 25 q81 0 127.5 -42t46.5 -114z" />
<glyph unicode="&#xbf;" horiz-adv-x="864" d="M432 848q49 0 49 -66q0 -45 -22.5 -71.5t-55.5 -26.5q-28 0 -45.5 18t-17.5 41q0 36 29.5 70.5t62.5 34.5zM379 399q5 0 11.5 -1t18 -9t11.5 -22q0 -40 -30 -93t-78.5 -110t-107 -121t-116.5 -134.5t-106.5 -141.5t-78.5 -151t-30 -155q0 -96 41.5 -151t114.5 -55 q70 0 132 25.5t105.5 66.5t75 90.5t46.5 98t15 89.5q0 71 -36.5 109.5t-94.5 38.5q1 6 3 15t13 23.5t27 14.5q49 0 89 -55t40 -146q0 -45 -17 -98.5t-52.5 -109t-83.5 -100.5t-116.5 -74t-145.5 -29q-54 0 -105.5 15t-95.5 44t-71 78t-27 110q0 79 36 162t93 155t126 143 t138.5 135.5t126.5 123t93 116t36 103.5z" />
<glyph unicode="&#xc0;" horiz-adv-x="1792" d="M1477 1858q-32 29 -5 75q15 25 27 25q3 0 4 -2q59 -83 152 -191q4 -4 -1 -12t-13.5 -13t-14.5 -1q-134 105 -149 119zM1794 379q8 17 23 3q16 -16 8 -32q-27 -55 -72 -130.5t-105.5 -167t-123.5 -154t-105 -62.5q-117 0 -181 80t-50 248q16 188 102 516q-18 0 -52 -1 t-52 -1q-38 -1 -114.5 -2t-113.5 -2q-56 -119 -105.5 -213.5t-109.5 -195.5t-118.5 -174.5t-122.5 -134t-132.5 -91.5t-138.5 -31q-116 0 -194 88t-78 209q0 230 183.5 382.5t490.5 186.5q133 12 289 17q31 67 87 190.5t90.5 198t80.5 166t84 155.5q63 105 125 160t116 55 q60 0 88.5 -39.5t28.5 -105.5q0 -21 -8.5 -70t-26 -129.5t-34.5 -156t-44 -194t-45 -199.5q194 20 277 53q4 2 10 -10q17 -33 -7 -57q-9 -9 -24 -15q-65 -23 -270 -33q-88 -394 -109 -580q-14 -117 5 -173t73 -56q34 0 89.5 60t112.5 147.5t101 163.5t72 131zM1190 727 l115 6q34 127 89.5 317.5t88 309t37.5 170.5q2 25 -6.5 45t-32.5 20q-33 0 -79 -49.5t-95 -138.5q-45 -83 -97.5 -192.5t-121.5 -260t-109 -235.5q138 4 211 8zM236 -125q53 0 106.5 23t102 62t98.5 99.5t93.5 125.5t91 149.5t87 163t84.5 174.5q-157 -3 -262 -13 q-288 -32 -434.5 -172.5t-143.5 -361.5q2 -105 49.5 -177.5t127.5 -72.5z" />
<glyph unicode="&#xc1;" horiz-adv-x="1792" d="M1475 1739q-6 -4 -14.5 1t-13.5 13t-1 12q25 29 119 150q29 30 49 23.5t34 -28t9 -24.5q-41 -36 -182 -147zM1794 379q8 17 23 3q16 -16 8 -32q-27 -55 -72 -130.5t-105.5 -167t-123.5 -154t-105 -62.5q-117 0 -181 80t-50 248q16 188 102 516q-18 0 -52 -1t-52 -1 q-38 -1 -114.5 -2t-113.5 -2q-56 -119 -105.5 -213.5t-109.5 -195.5t-118.5 -174.5t-122.5 -134t-132.5 -91.5t-138.5 -31q-116 0 -194 88t-78 209q0 230 183.5 382.5t490.5 186.5q133 12 289 17q31 67 87 190.5t90.5 198t80.5 166t84 155.5q63 105 125 160t116 55 q60 0 88.5 -39.5t28.5 -105.5q0 -21 -8.5 -70t-26 -129.5t-34.5 -156t-44 -194t-45 -199.5q194 20 277 53q4 2 10 -10q17 -33 -7 -57q-9 -9 -24 -15q-65 -23 -270 -33q-88 -394 -109 -580q-14 -117 5 -173t73 -56q34 0 89.5 60t112.5 147.5t101 163.5t72 131zM1190 727 l115 6q34 127 89.5 317.5t88 309t37.5 170.5q2 25 -6.5 45t-32.5 20q-33 0 -79 -49.5t-95 -138.5q-45 -83 -97.5 -192.5t-121.5 -260t-109 -235.5q138 4 211 8zM236 -125q53 0 106.5 23t102 62t98.5 99.5t93.5 125.5t91 149.5t87 163t84.5 174.5q-157 -3 -262 -13 q-288 -32 -434.5 -172.5t-143.5 -361.5q2 -105 49.5 -177.5t127.5 -72.5z" />
<glyph unicode="&#xc2;" horiz-adv-x="1792" d="M1378 1716q-30 -14 -41 -2q-5 5 2 10q2 1 62 52.5t120.5 99t73.5 47.5q11 0 71.5 -80t88.5 -127q7 -11 -10 -10q-18 0 -39 12q-10 5 -43.5 29.5t-63 44.5t-34.5 20q-8 0 -79.5 -37.5t-107.5 -58.5zM1794 379q8 17 23 3q16 -16 8 -32q-27 -55 -72 -130.5t-105.5 -167 t-123.5 -154t-105 -62.5q-117 0 -181 80t-50 248q16 188 102 516q-18 0 -52 -1t-52 -1q-38 -1 -114.5 -2t-113.5 -2q-56 -119 -105.5 -213.5t-109.5 -195.5t-118.5 -174.5t-122.5 -134t-132.5 -91.5t-138.5 -31q-116 0 -194 88t-78 209q0 230 183.5 382.5t490.5 186.5 q133 12 289 17q31 67 87 190.5t90.5 198t80.5 166t84 155.5q63 105 125 160t116 55q60 0 88.5 -39.5t28.5 -105.5q0 -21 -8.5 -70t-26 -129.5t-34.5 -156t-44 -194t-45 -199.5q194 20 277 53q4 2 10 -10q17 -33 -7 -57q-9 -9 -24 -15q-65 -23 -270 -33q-88 -394 -109 -580 q-14 -117 5 -173t73 -56q34 0 89.5 60t112.5 147.5t101 163.5t72 131zM1190 727l115 6q34 127 89.5 317.5t88 309t37.5 170.5q2 25 -6.5 45t-32.5 20q-33 0 -79 -49.5t-95 -138.5q-45 -83 -97.5 -192.5t-121.5 -260t-109 -235.5q138 4 211 8zM236 -125q53 0 106.5 23t102 62 t98.5 99.5t93.5 125.5t91 149.5t87 163t84.5 174.5q-157 -3 -262 -13q-288 -32 -434.5 -172.5t-143.5 -361.5q2 -105 49.5 -177.5t127.5 -72.5z" />
<glyph unicode="&#xc3;" horiz-adv-x="1792" d="M1358 1804q-6 -4 -7 7q-1 12 5 18q49 53 106 53q30 0 89 -26.5t100 -26.5q51 0 82 39q6 6 8 -7q2 -14 -4 -22q-36 -53 -101 -53q-37 0 -100 26.5t-86 26.5q-45 0 -92 -35zM1794 379q8 17 23 3q16 -16 8 -32q-27 -55 -72 -130.5t-105.5 -167t-123.5 -154t-105 -62.5 q-117 0 -181 80t-50 248q16 188 102 516q-18 0 -52 -1t-52 -1q-38 -1 -114.5 -2t-113.5 -2q-56 -119 -105.5 -213.5t-109.5 -195.5t-118.5 -174.5t-122.5 -134t-132.5 -91.5t-138.5 -31q-116 0 -194 88t-78 209q0 230 183.5 382.5t490.5 186.5q133 12 289 17q31 67 87 190.5 t90.5 198t80.5 166t84 155.5q63 105 125 160t116 55q60 0 88.5 -39.5t28.5 -105.5q0 -21 -8.5 -70t-26 -129.5t-34.5 -156t-44 -194t-45 -199.5q194 20 277 53q4 2 10 -10q17 -33 -7 -57q-9 -9 -24 -15q-65 -23 -270 -33q-88 -394 -109 -580q-14 -117 5 -173t73 -56 q34 0 89.5 60t112.5 147.5t101 163.5t72 131zM1190 727l115 6q34 127 89.5 317.5t88 309t37.5 170.5q2 25 -6.5 45t-32.5 20q-33 0 -79 -49.5t-95 -138.5q-45 -83 -97.5 -192.5t-121.5 -260t-109 -235.5q138 4 211 8zM236 -125q53 0 106.5 23t102 62t98.5 99.5t93.5 125.5 t91 149.5t87 163t84.5 174.5q-157 -3 -262 -13q-288 -32 -434.5 -172.5t-143.5 -361.5q2 -105 49.5 -177.5t127.5 -72.5z" />
<glyph unicode="&#xc4;" horiz-adv-x="1792" d="M1448 1767q-27 0 -37.5 18t-7.5 46q7 65 65 65q27 0 38 -19t5 -46q-7 -30 -21 -47t-42 -17zM1649 1767q-27 0 -37.5 18t-7.5 46q7 65 63 65q28 0 39.5 -18.5t5.5 -46.5q-7 -30 -21 -47t-42 -17zM1794 379q8 17 23 3q16 -16 8 -32q-27 -55 -72 -130.5t-105.5 -167 t-123.5 -154t-105 -62.5q-117 0 -181 80t-50 248q16 188 102 516q-18 0 -52 -1t-52 -1q-38 -1 -114.5 -2t-113.5 -2q-56 -119 -105.5 -213.5t-109.5 -195.5t-118.5 -174.5t-122.5 -134t-132.5 -91.5t-138.5 -31q-116 0 -194 88t-78 209q0 230 183.5 382.5t490.5 186.5 q133 12 289 17q31 67 87 190.5t90.5 198t80.5 166t84 155.5q63 105 125 160t116 55q60 0 88.5 -39.5t28.5 -105.5q0 -21 -8.5 -70t-26 -129.5t-34.5 -156t-44 -194t-45 -199.5q194 20 277 53q4 2 10 -10q17 -33 -7 -57q-9 -9 -24 -15q-65 -23 -270 -33q-88 -394 -109 -580 q-14 -117 5 -173t73 -56q34 0 89.5 60t112.5 147.5t101 163.5t72 131zM1190 727l115 6q34 127 89.5 317.5t88 309t37.5 170.5q2 25 -6.5 45t-32.5 20q-33 0 -79 -49.5t-95 -138.5q-45 -83 -97.5 -192.5t-121.5 -260t-109 -235.5q138 4 211 8zM236 -125q53 0 106.5 23t102 62 t98.5 99.5t93.5 125.5t91 149.5t87 163t84.5 174.5q-157 -3 -262 -13q-288 -32 -434.5 -172.5t-143.5 -361.5q2 -105 49.5 -177.5t127.5 -72.5z" />
<glyph unicode="&#xc5;" horiz-adv-x="1792" d="M1561 1700q-54 0 -87.5 41t-25.5 98q8 54 50.5 93.5t96.5 39.5q53 0 86 -40.5t27 -96.5q-9 -56 -51.5 -95.5t-95.5 -39.5zM1495 1835q-5 -38 15 -68t53 -30t60 32t32 70t-11.5 66t-50.5 28q-39 0 -66 -29.5t-32 -68.5zM1794 379q8 17 23 3q16 -16 8 -32 q-27 -55 -72 -130.5t-105.5 -167t-123.5 -154t-105 -62.5q-117 0 -181 80t-50 248q16 188 102 516q-18 0 -52 -1t-52 -1q-38 -1 -114.5 -2t-113.5 -2q-56 -119 -105.5 -213.5t-109.5 -195.5t-118.5 -174.5t-122.5 -134t-132.5 -91.5t-138.5 -31q-116 0 -194 88t-78 209 q0 230 183.5 382.5t490.5 186.5q133 12 289 17q31 67 87 190.5t90.5 198t80.5 166t84 155.5q63 105 125 160t116 55q60 0 88.5 -39.5t28.5 -105.5q0 -21 -8.5 -70t-26 -129.5t-34.5 -156t-44 -194t-45 -199.5q194 20 277 53q4 2 10 -10q17 -33 -7 -57q-9 -9 -24 -15 q-65 -23 -270 -33q-88 -394 -109 -580q-14 -117 5 -173t73 -56q34 0 89.5 60t112.5 147.5t101 163.5t72 131zM1190 727l115 6q34 127 89.5 317.5t88 309t37.5 170.5q2 25 -6.5 45t-32.5 20q-33 0 -79 -49.5t-95 -138.5q-45 -83 -97.5 -192.5t-121.5 -260t-109 -235.5 q138 4 211 8zM236 -125q53 0 106.5 23t102 62t98.5 99.5t93.5 125.5t91 149.5t87 163t84.5 174.5q-157 -3 -262 -13q-288 -32 -434.5 -172.5t-143.5 -361.5q2 -105 49.5 -177.5t127.5 -72.5z" />
<glyph unicode="&#xc6;" horiz-adv-x="2678" d="M2712 379q10 20 24.5 4.5t5.5 -33.5q-26 -47 -43 -76.5t-51 -80t-63 -83.5t-74 -73t-90 -63t-104.5 -39.5t-123.5 -16.5q-79 0 -155 31.5t-138 88t-99 146.5t-36 197v25q0 6 2 10q3 69 21 131q5 27 15 78.5t14 70.5q-16 -1 -70.5 -8t-110.5 -12q-39 -4 -112 -4 q-31 -95 -58 -167t-63.5 -154t-72.5 -141.5t-83.5 -117t-98 -93.5t-114.5 -57.5t-135 -21.5q-204 0 -305 162q-302 -135 -580 20q-23 13 -11 51q11 32 32 36q8 1 16 -5q106 -87 245.5 -104t276.5 41q-45 98 -45 229q0 78 24.5 157.5t68 147.5t114 111t154.5 43q61 0 92 -33 t31 -84q0 -152 -100 -314.5t-236 -250.5q35 -79 94 -122.5t129 -43.5q89 0 165.5 39.5t132.5 101t109.5 160.5t89.5 191.5t79 220.5q-298 18 -514 225q-18 18 7 48q24 29 45 24q8 -2 13 -10q59 -111 185.5 -173.5t277.5 -70.5q11 32 47 145t52.5 161t47.5 133t59.5 147.5 t59.5 117.5q55 97 139 158t156 51l10 -1q11 -1 19 -2.5t21.5 -4t24 -6t20 -8t15 -11t5.5 -14.5q0 -23 -2 -35q110 82 250 82q113 0 173 -60.5t60 -142.5q0 -92 -29 -166t-53 -98q-15 -15 -45 2q-26 15 -17 29q1 2 3 4q98 90 98 225q0 84 -45.5 125t-108.5 41 q-87 0 -159.5 -57t-111 -143.5t-38.5 -178.5q0 -265 162 -381q17 -12 10 -41q-5 -23 -18 -16l-31 14q-28 7 -65 7q-91 0 -162 -76.5t-97 -210.5q-12 -94 -12 -123v-2q-2 -94 17 -169t49 -121t69.5 -76.5t76.5 -42t73 -11.5q73 0 141.5 28.5t118 69t99 102t79 109.5t62.5 109 zM1606 719q73 6 144 15.5t79 10.5q31 139 92 377t85.5 352.5t6.5 116.5q-39 3 -108.5 -53t-112.5 -137q-25 -47 -50 -105t-42.5 -101.5t-44.5 -121.5t-38 -112t-41 -128t-38 -118q22 0 68 4zM2150 862q-64 54 -106 137l-41 -176q64 33 147 39zM905 768q-70 0 -132.5 -67.5 t-98 -170.5t-35.5 -208q0 -77 20 -152q124 87 213 243t89 287q0 68 -56 68z" />
<glyph unicode="&#xc7;" horiz-adv-x="1187" d="M1190 379q10 19 25 1q14 -16 6 -30q-140 -245 -283 -377.5t-305 -136.5l-21 -51q-2 -7 -2.5 -9t2 -3t9.5 2q24 8 47 8q35 0 58 -20.5t19 -71.5q-4 -53 -49 -83t-92 -30q-49 0 -71.5 21.5t-22.5 48.5q0 16 10 28.5t25 12.5q10 0 16 -5.5t7 -10.5l1 -5q-11 0 -18.5 -7 t-7.5 -17q0 -15 14.5 -27t42.5 -12q34 0 55.5 24t24.5 58q7 73 -41 73q-8 0 -54 -13q-21 -7 -20 3q0 3 2 8q10 19 31 78q-90 4 -166.5 39.5t-138.5 105t-97.5 186.5t-35.5 271q0 178 41 349t116.5 311.5t174 248t221 167t250.5 59.5q81 0 139 -34t86 -91t27.5 -134.5 t-31.5 -162.5q-14 -38 -68 -41q-32 -1 -35 9q-1 1 0 3q63 133 58.5 224t-47 138.5t-105.5 47.5q-93 0 -189 -52.5t-181.5 -153.5t-153 -235.5t-107 -310.5t-39.5 -366q0 -248 87.5 -392.5t230.5 -144.5q270 0 555 502z" />
<glyph unicode="&#xc8;" horiz-adv-x="1017" d="M956 1800q4 -4 -0.5 -12t-13 -13t-14.5 -1q-16 12 -53 41t-62.5 49t-34.5 28q-32 29 -4 76q16 26 28 25q2 0 3 -2q64 -90 151 -191zM1020 379q10 19 25 5q16 -15 6 -34q-34 -63 -70.5 -120.5t-100 -138.5t-127.5 -139t-149 -99.5t-168 -40.5q-187 0 -286 90.5t-99 228.5 q0 115 38.5 214t102.5 167t145 110.5t169 55.5q-82 54 -132 149t-50 220q0 119 29.5 222t79.5 174.5t114.5 122.5t134.5 75t141 24q80 0 140.5 -36.5t89.5 -97.5t32 -140t-32 -164q-14 -38 -68 -41q-32 -1 -35 9q-1 1 0 3q64 132 60 227t-50 147t-112 52q-62 0 -128 -45.5 t-120 -120.5t-88.5 -181t-34.5 -218q0 -157 64 -267t161 -110q5 0 6.5 -15t-5.5 -29.5t-23 -14.5q-103 0 -191 -42t-146 -111t-91 -156.5t-33 -180.5q0 -124 66 -199t170 -75q68 0 141.5 38.5t134.5 95.5t120 131t98.5 135.5t70.5 119.5z" />
<glyph unicode="&#xc9;" horiz-adv-x="1017" d="M748 1800q14 17 118 150q29 30 49 23.5t34 -28t9 -24.5q-41 -36 -182 -147q-6 -4 -14.5 1t-13 13t-0.5 12zM1020 379q10 19 25 5q16 -15 6 -34q-34 -63 -70.5 -120.5t-100 -138.5t-127.5 -139t-149 -99.5t-168 -40.5q-187 0 -286 90.5t-99 228.5q0 115 38.5 214 t102.5 167t145 110.5t169 55.5q-82 54 -132 149t-50 220q0 119 29.5 222t79.5 174.5t114.5 122.5t134.5 75t141 24q80 0 140.5 -36.5t89.5 -97.5t32 -140t-32 -164q-14 -38 -68 -41q-32 -1 -35 9q-1 1 0 3q64 132 60 227t-50 147t-112 52q-62 0 -128 -45.5t-120 -120.5 t-88.5 -181t-34.5 -218q0 -157 64 -267t161 -110q5 0 6.5 -15t-5.5 -29.5t-23 -14.5q-103 0 -191 -42t-146 -111t-91 -156.5t-33 -180.5q0 -124 66 -199t170 -75q68 0 141.5 38.5t134.5 95.5t120 131t98.5 135.5t70.5 119.5z" />
<glyph unicode="&#xca;" horiz-adv-x="1017" d="M641 1759q2 1 62 52.5t120.5 99t73.5 47.5q11 0 71.5 -80t88.5 -127q7 -11 -10 -10q-18 0 -39 12q-10 5 -44 29.5t-63.5 44.5t-34.5 20q-8 0 -78.5 -37t-107.5 -59q-30 -14 -41 -2q-5 5 2 10zM1020 379q10 19 25 5q16 -15 6 -34q-34 -63 -70.5 -120.5t-100 -138.5 t-127.5 -139t-149 -99.5t-168 -40.5q-187 0 -286 90.5t-99 228.5q0 115 38.5 214t102.5 167t145 110.5t169 55.5q-82 54 -132 149t-50 220q0 119 29.5 222t79.5 174.5t114.5 122.5t134.5 75t141 24q80 0 140.5 -36.5t89.5 -97.5t32 -140t-32 -164q-14 -38 -68 -41 q-32 -1 -35 9q-1 1 0 3q64 132 60 227t-50 147t-112 52q-62 0 -128 -45.5t-120 -120.5t-88.5 -181t-34.5 -218q0 -157 64 -267t161 -110q5 0 6.5 -15t-5.5 -29.5t-23 -14.5q-103 0 -191 -42t-146 -111t-91 -156.5t-33 -180.5q0 -124 66 -199t170 -75q68 0 141.5 38.5 t134.5 95.5t120 131t98.5 135.5t70.5 119.5z" />
<glyph unicode="&#xcb;" horiz-adv-x="1017" d="M750 1802q-27 0 -37.5 18t-7.5 46q7 65 65 65q27 0 38 -19t5 -46q-7 -30 -21 -47t-42 -17zM950 1802q-27 0 -37.5 18t-7.5 46q3 29 19 47t45 18q28 0 39.5 -18.5t5.5 -46.5q-16 -64 -64 -64zM1020 379q10 19 25 5q16 -15 6 -34q-34 -63 -70.5 -120.5t-100 -138.5 t-127.5 -139t-149 -99.5t-168 -40.5q-187 0 -286 90.5t-99 228.5q0 115 38.5 214t102.5 167t145 110.5t169 55.5q-82 54 -132 149t-50 220q0 119 29.5 222t79.5 174.5t114.5 122.5t134.5 75t141 24q80 0 140.5 -36.5t89.5 -97.5t32 -140t-32 -164q-14 -38 -68 -41 q-32 -1 -35 9q-1 1 0 3q64 132 60 227t-50 147t-112 52q-62 0 -128 -45.5t-120 -120.5t-88.5 -181t-34.5 -218q0 -157 64 -267t161 -110q5 0 6.5 -15t-5.5 -29.5t-23 -14.5q-103 0 -191 -42t-146 -111t-91 -156.5t-33 -180.5q0 -124 66 -199t170 -75q68 0 141.5 38.5 t134.5 95.5t120 131t98.5 135.5t70.5 119.5z" />
<glyph unicode="&#xcc;" horiz-adv-x="1112" d="M1290 1810q4 -4 -0.5 -12t-13 -13t-14.5 -1q-142 112 -150 119q-32 29 -4 75q15 25 27 25q3 0 4 -2q64 -90 151 -191zM1073 1638q33 27 94 15q31 -7 29 -15q-25 -41 -47.5 -129.5t-42 -198t-42 -242t-52 -266.5t-67 -266.5t-92.5 -247t-123.5 -203t-164.5 -139 t-211 -50.5q-150 0 -242 105.5t-92 279.5q0 106 37.5 206t106.5 172q24 21 47 20t40.5 -11.5t12.5 -16.5q-84 -85 -129 -192.5t-45 -206.5q0 -135 67 -223t173 -88q92 0 171 53.5t135 141.5t104 209.5t80 249.5t62 269.5t50 261t43.5 233t44.5 177.5q-41 -19 -106 -28.5 t-125.5 -10.5t-125.5 -11t-114 -27.5t-83.5 -61.5t-39.5 -113q-5 -65 19 -117.5t67.5 -84t97 -48t111.5 -16.5q2 -3 3 -22t-18 -41.5t-51 -22.5q-51 0 -101.5 24t-90 66t-62 106.5t-16.5 139.5q6 77 39.5 130t85 79t113 41t127 20.5t123.5 11.5t107 20.5t73 41.5l12 18 q1 1 2 4t2 4h4z" />
<glyph unicode="&#xcd;" horiz-adv-x="1112" d="M1200 1960q29 30 49 23.5t34 -28t9 -24.5q-41 -36 -182 -147q-6 -4 -14.5 1t-13.5 13t-1 12q25 29 119 150zM1073 1638q33 27 94 15q31 -7 29 -15q-25 -41 -47.5 -129.5t-42 -198t-42 -242t-52 -266.5t-67 -266.5t-92.5 -247t-123.5 -203t-164.5 -139t-211 -50.5 q-150 0 -242 105.5t-92 279.5q0 106 37.5 206t106.5 172q24 21 47 20t40.5 -11.5t12.5 -16.5q-84 -85 -129 -192.5t-45 -206.5q0 -135 67 -223t173 -88q92 0 171 53.5t135 141.5t104 209.5t80 249.5t62 269.5t50 261t43.5 233t44.5 177.5q-41 -19 -106 -28.5t-125.5 -10.5 t-125.5 -11t-114 -27.5t-83.5 -61.5t-39.5 -113q-5 -65 19 -117.5t67.5 -84t97 -48t111.5 -16.5q2 -3 3 -22t-18 -41.5t-51 -22.5q-51 0 -101.5 24t-90 66t-62 106.5t-16.5 139.5q6 77 39.5 130t85 79t113 41t127 20.5t123.5 11.5t107 20.5t73 41.5l12 18q1 1 2 4t2 4h4z " />
<glyph unicode="&#xce;" horiz-adv-x="1112" d="M1391 1761q7 -11 -9 -10q-19 0 -41 12q-10 5 -43.5 29.5t-63 45t-34.5 20.5q-8 0 -78 -37t-108 -60q-30 -14 -41 -2q-5 5 2 10q2 1 62 52.5t120.5 99t73.5 47.5q11 0 71.5 -80t88.5 -127zM1073 1638q33 27 94 15q31 -7 29 -15q-25 -41 -47.5 -129.5t-42 -198t-42 -242 t-52 -266.5t-67 -266.5t-92.5 -247t-123.5 -203t-164.5 -139t-211 -50.5q-150 0 -242 105.5t-92 279.5q0 106 37.5 206t106.5 172q24 21 47 20t40.5 -11.5t12.5 -16.5q-84 -85 -129 -192.5t-45 -206.5q0 -135 67 -223t173 -88q92 0 171 53.5t135 141.5t104 209.5t80 249.5 t62 269.5t50 261t43.5 233t44.5 177.5q-41 -19 -106 -28.5t-125.5 -10.5t-125.5 -11t-114 -27.5t-83.5 -61.5t-39.5 -113q-5 -65 19 -117.5t67.5 -84t97 -48t111.5 -16.5q2 -3 3 -22t-18 -41.5t-51 -22.5q-51 0 -101.5 24t-90 66t-62 106.5t-16.5 139.5q6 77 39.5 130t85 79 t113 41t127 20.5t123.5 11.5t107 20.5t73 41.5l12 18q1 1 2 4t2 4h4z" />
<glyph unicode="&#xcf;" horiz-adv-x="1112" d="M1083 1812q-27 0 -37.5 18t-7.5 46q8 66 66 66q27 0 38 -19t5 -47q-16 -64 -64 -64zM1303 1942q28 0 39.5 -19t5.5 -47q-16 -64 -64 -64q-27 0 -37.5 18t-7.5 46q8 66 64 66zM1073 1638q33 27 94 15q31 -7 29 -15q-25 -41 -47.5 -129.5t-42 -198t-42 -242t-52 -266.5 t-67 -266.5t-92.5 -247t-123.5 -203t-164.5 -139t-211 -50.5q-150 0 -242 105.5t-92 279.5q0 106 37.5 206t106.5 172q24 21 47 20t40.5 -11.5t12.5 -16.5q-84 -85 -129 -192.5t-45 -206.5q0 -135 67 -223t173 -88q92 0 171 53.5t135 141.5t104 209.5t80 249.5t62 269.5 t50 261t43.5 233t44.5 177.5q-41 -19 -106 -28.5t-125.5 -10.5t-125.5 -11t-114 -27.5t-83.5 -61.5t-39.5 -113q-5 -65 19 -117.5t67.5 -84t97 -48t111.5 -16.5q2 -3 3 -22t-18 -41.5t-51 -22.5q-51 0 -101.5 24t-90 66t-62 106.5t-16.5 139.5q6 77 39.5 130t85 79t113 41 t127 20.5t123.5 11.5t107 20.5t73 41.5l12 18q1 1 2 4t2 4h4z" />
<glyph unicode="&#xd0;" horiz-adv-x="1804" d="M1194 1593q90 -12 172.5 -42.5t159.5 -87t133.5 -133.5t90.5 -187.5t34 -241.5q0 -145 -35.5 -290.5t-104 -272.5t-160.5 -225.5t-213 -155.5t-253 -57q-184 0 -440 77q-85 -57 -193 -57q-71 0 -107 24t-36 60q0 26 11.5 44t30 26t33.5 11t29 3q57 0 182 -33 q19 22 37.5 51t33.5 56t32 70t28.5 71.5t28 83t25 82.5t26 92.5t24 90t24.5 98t24 94.5q-65 0 -117 -10l-2 2q4 40 21 47q18 8 110 8q119 474 242 668q-111 -5 -217.5 -48.5t-188.5 -114t-132 -169t-50 -205.5q0 -63 27 -114.5t69 -61.5q6 -2 -10 -13q-33 -24 -59 -6 q-78 55 -78 195q0 121 58 229.5t152 183.5t214.5 119t243.5 45l30 37q24 27 70 24q31 -2 29 -17q0 -2 -2 -5q-3 -4 -12.5 -20t-14.5 -25zM1018 -47q132 0 246 79.5t191 211.5t121 303.5t44 353.5q0 131 -25.5 237.5t-67 178t-100.5 122.5t-121 77t-132 36 q-45 -89 -86.5 -210.5t-66 -213.5t-60.5 -241q112 0 153 10l2 -2q0 -41 -24 -49q-26 -10 -142 -6q-33 -137 -49 -201.5t-49.5 -178.5t-60.5 -178.5t-68.5 -136.5t-87.5 -118q246 -74 383 -74zM358 -33q68 0 121 41q-107 35 -137 35q-21 0 -34 -8.5t-13 -22.5q0 -45 63 -45z " />
<glyph unicode="&#xd1;" horiz-adv-x="1716" d="M1733 1876q6 6 8 -7q2 -14 -4 -22q-36 -53 -101 -53q-37 0 -100 26.5t-86 26.5q-45 0 -92 -35q-6 -4 -7 7q-1 12 5 18q49 53 106 53q30 0 89 -26.5t100 -26.5q51 0 82 39zM1315 -20q-61 2 -105 40t-47 119q-8 231 135 804q17 69 51 200q87 338 92 409q3 43 -11 43 q-55 -4 -140 -227q-18 -48 -48.5 -152t-60 -213t-74.5 -244t-93 -256t-115.5 -239t-140.5 -203t-169.5 -137.5t-201.5 -52.5q-142 0 -226.5 89t-84.5 218q0 127 41.5 244.5t109 200.5t155 132.5t177.5 49.5q40 0 64 -12q14 -6 17.5 -26t-0.5 -37t-9 -17q-36 16 -80 16 q-107 0 -204 -77t-156.5 -205t-59.5 -269q0 -110 71.5 -188t186.5 -78q92 0 178 51.5t154.5 135t133 199t112.5 234.5t94 251.5t77.5 239t63 209t49.5 150.5q56 146 101.5 202t99.5 58q43 2 71 -28t29 -84q2 -83 -37 -284t-87 -404t-88 -423.5t-40 -336.5q0 -23 8.5 -35 t22.5 -10q19 -1 41 30.5t47 91t51.5 131t58.5 164.5q10 29 15 44q41 117 114 348.5t130.5 403.5t91.5 241t70.5 114.5t73.5 66.5t67.5 28t67.5 6q90 -1 141 -41t49 -90q-1 -48 -48 -67q-28 -10 -34 -1q0 152 -108 158q-123 7 -217 -178q-19 -38 -70.5 -188t-139 -412 t-137.5 -408q-87 -252 -116 -320q-71 -162 -144 -177q-10 -2 -20 -2z" />
<glyph unicode="&#xd2;" horiz-adv-x="1525" d="M1073 1800q-32 29 -4 75q15 25 27 25q3 0 4 -2q60 -84 151 -190q4 -4 -0.5 -12t-13 -13.5t-14.5 -1.5q-142 112 -150 119zM1528 379q8 14 24 -2q14 -14 7 -27q-135 -241 -367 -241q-15 0 -43 4q-73 -114 -155.5 -179t-166.5 -65q-68 0 -130 18.5t-123 64.5t-105.5 116 t-71 181t-24.5 251q2 193 41 373.5t106.5 322.5t155 249.5t191.5 165.5t210 58q26 0 37 -27q6 -14 0 -14q-60 0 -127.5 -38t-133.5 -106.5t-126.5 -171t-107 -223.5t-75 -272t-30.5 -309q-1 -125 15.5 -225.5t45.5 -167.5t70 -112t86 -65t96 -20q147 0 281 205 q-61 20 -112.5 70t-86.5 117.5t-62 151t-38.5 170t-15.5 174t6 163.5q13 124 52 221t94 154t120 83t133 17q51 -7 90.5 -36t62.5 -70.5t36.5 -98t18 -110.5t3.5 -115q-4 -221 -68.5 -454t-166.5 -408q8 -2 22 -2q203 0 332 229zM938 946q-15 -138 2.5 -300t69 -300 t125.5 -180q103 173 166 412t63 452q0 42 -2.5 80.5t-12.5 90.5t-26 90t-47 67.5t-72 34.5q-105 13 -173.5 -109.5t-92.5 -337.5z" />
<glyph unicode="&#xd3;" horiz-adv-x="1525" d="M1071 1681q-6 -4 -14.5 1.5t-13.5 13.5t-1 12q25 29 119 150q29 30 49 23.5t34 -28t9 -24.5q-52 -45 -182 -148zM1528 379q8 14 24 -2q14 -14 7 -27q-135 -241 -367 -241q-15 0 -43 4q-73 -114 -155.5 -179t-166.5 -65q-68 0 -130 18.5t-123 64.5t-105.5 116t-71 181 t-24.5 251q2 193 41 373.5t106.5 322.5t155 249.5t191.5 165.5t210 58q26 0 37 -27q6 -14 0 -14q-60 0 -127.5 -38t-133.5 -106.5t-126.5 -171t-107 -223.5t-75 -272t-30.5 -309q-1 -125 15.5 -225.5t45.5 -167.5t70 -112t86 -65t96 -20q147 0 281 205q-61 20 -112.5 70 t-86.5 117.5t-62 151t-38.5 170t-15.5 174t6 163.5q13 124 52 221t94 154t120 83t133 17q51 -7 90.5 -36t62.5 -70.5t36.5 -98t18 -110.5t3.5 -115q-4 -221 -68.5 -454t-166.5 -408q8 -2 22 -2q203 0 332 229zM938 946q-15 -138 2.5 -300t69 -300t125.5 -180 q103 173 166 412t63 452q0 42 -2.5 80.5t-12.5 90.5t-26 90t-47 67.5t-72 34.5q-105 13 -173.5 -109.5t-92.5 -337.5z" />
<glyph unicode="&#xd4;" horiz-adv-x="1525" d="M975 1659q-30 -14 -41 -2q-5 5 2 10q2 1 62 52.5t120.5 99t73.5 47.5q11 0 71.5 -80t88.5 -127q7 -11 -10 -10q-18 0 -39 12q-10 5 -44 29.5t-63.5 44.5t-34.5 20q-8 0 -78.5 -37t-107.5 -59zM1528 379q8 14 24 -2q14 -14 7 -27q-135 -241 -367 -241q-15 0 -43 4 q-73 -114 -155.5 -179t-166.5 -65q-68 0 -130 18.5t-123 64.5t-105.5 116t-71 181t-24.5 251q2 193 41 373.5t106.5 322.5t155 249.5t191.5 165.5t210 58q26 0 37 -27q6 -14 0 -14q-60 0 -127.5 -38t-133.5 -106.5t-126.5 -171t-107 -223.5t-75 -272t-30.5 -309 q-1 -125 15.5 -225.5t45.5 -167.5t70 -112t86 -65t96 -20q147 0 281 205q-61 20 -112.5 70t-86.5 117.5t-62 151t-38.5 170t-15.5 174t6 163.5q13 124 52 221t94 154t120 83t133 17q51 -7 90.5 -36t62.5 -70.5t36.5 -98t18 -110.5t3.5 -115q-4 -221 -68.5 -454t-166.5 -408 q8 -2 22 -2q203 0 332 229zM938 946q-15 -138 2.5 -300t69 -300t125.5 -180q103 173 166 412t63 452q0 42 -2.5 80.5t-12.5 90.5t-26 90t-47 67.5t-72 34.5q-105 13 -173.5 -109.5t-92.5 -337.5z" />
<glyph unicode="&#xd5;" horiz-adv-x="1525" d="M954 1747q-6 -4 -7 7q-1 12 5 18q49 53 107 53q30 0 88.5 -26.5t99.5 -26.5q52 0 82 38q6 6 8 -7.5t-4 -20.5q-36 -53 -100 -53q-37 0 -100 26.5t-86 26.5q-46 0 -93 -35zM1528 379q8 14 24 -2q14 -14 7 -27q-135 -241 -367 -241q-15 0 -43 4q-73 -114 -155.5 -179 t-166.5 -65q-68 0 -130 18.5t-123 64.5t-105.5 116t-71 181t-24.5 251q2 193 41 373.5t106.5 322.5t155 249.5t191.5 165.5t210 58q26 0 37 -27q6 -14 0 -14q-60 0 -127.5 -38t-133.5 -106.5t-126.5 -171t-107 -223.5t-75 -272t-30.5 -309q-1 -125 15.5 -225.5t45.5 -167.5 t70 -112t86 -65t96 -20q147 0 281 205q-61 20 -112.5 70t-86.5 117.5t-62 151t-38.5 170t-15.5 174t6 163.5q13 124 52 221t94 154t120 83t133 17q51 -7 90.5 -36t62.5 -70.5t36.5 -98t18 -110.5t3.5 -115q-4 -221 -68.5 -454t-166.5 -408q8 -2 22 -2q203 0 332 229z M938 946q-15 -138 2.5 -300t69 -300t125.5 -180q103 173 166 412t63 452q0 42 -2.5 80.5t-12.5 90.5t-26 90t-47 67.5t-72 34.5q-105 13 -173.5 -109.5t-92.5 -337.5z" />
<glyph unicode="&#xd6;" horiz-adv-x="1525" d="M1044 1710q-27 0 -37.5 18t-7.5 46q3 29 19.5 47t46.5 18q27 0 38 -19t5 -46q-16 -64 -64 -64zM1245 1710q-27 0 -37.5 18t-7.5 46q3 29 19 47t45 18q28 0 39.5 -18.5t5.5 -46.5q-16 -64 -64 -64zM1528 379q8 14 24 -2q14 -14 7 -27q-135 -241 -367 -241q-15 0 -43 4 q-73 -114 -155.5 -179t-166.5 -65q-68 0 -130 18.5t-123 64.5t-105.5 116t-71 181t-24.5 251q2 193 41 373.5t106.5 322.5t155 249.5t191.5 165.5t210 58q26 0 37 -27q6 -14 0 -14q-60 0 -127.5 -38t-133.5 -106.5t-126.5 -171t-107 -223.5t-75 -272t-30.5 -309 q-1 -125 15.5 -225.5t45.5 -167.5t70 -112t86 -65t96 -20q147 0 281 205q-61 20 -112.5 70t-86.5 117.5t-62 151t-38.5 170t-15.5 174t6 163.5q13 124 52 221t94 154t120 83t133 17q51 -7 90.5 -36t62.5 -70.5t36.5 -98t18 -110.5t3.5 -115q-4 -221 -68.5 -454t-166.5 -408 q8 -2 22 -2q203 0 332 229zM938 946q-15 -138 2.5 -300t69 -300t125.5 -180q103 173 166 412t63 452q0 42 -2.5 80.5t-12.5 90.5t-26 90t-47 67.5t-72 34.5q-105 13 -173.5 -109.5t-92.5 -337.5z" />
<glyph unicode="&#xd7;" horiz-adv-x="659" d="M522 733q20 -29 10 -47q-2 -4 -6.5 -9.5t-11.5 -12.5t-14 -13.5t-18.5 -16.5t-20.5 -17.5t-23.5 -20t-24 -20.5t-26.5 -22t-27 -22q104 -129 142 -155v-2q-39 -26 -56 -17q-4 2 -9 6t-11.5 10.5t-12 11.5t-14 15.5t-13.5 16.5t-15.5 19t-15.5 19.5t-16.5 22t-16.5 21.5 q-130 -101 -183 -166h-2q-7 7 -11 19.5t3 33.5q17 28 166 148q-95 123 -137 153v2q35 26 51 19q23 -7 114 -128q7 -9 11 -14q140 109 186 166h2z" />
<glyph unicode="&#xd8;" horiz-adv-x="1228" d="M1528 379q8 14 24 -2q14 -14 7 -27q-135 -241 -367 -241q-15 0 -43 4q-73 -114 -155.5 -179t-166.5 -65q-35 0 -69 6l-82 -274q-3 -9 -24 -9t-21 9v2l84 280q-71 19 -130.5 61t-109 113.5t-76.5 184.5t-26 258q2 193 41 373.5t106.5 322.5t155 249.5t191.5 165.5t210 58 q26 0 37 -27q6 -14 0 -14q-60 0 -127.5 -38t-133.5 -106.5t-126.5 -171t-107 -223.5t-75 -272t-30.5 -309q-3 -242 57 -383t160 -186l137 460q-49 125 -66 279t-3 291q25 236 132.5 359.5t246.5 117.5l90 303q3 9 23 9t20 -9v-2l-90 -307q57 -13 96.5 -55.5t59 -105t27 -127 t5.5 -138.5q-4 -221 -68.5 -454t-166.5 -408q8 -2 22 -2q203 0 332 229zM1364 1030q0 42 -2.5 80t-12 90t-25.5 90t-46.5 67.5t-71.5 35.5l-250 -846q25 -140 70.5 -243t108.5 -138q103 173 166 412t63 452zM938 946q-14 -128 2 -299l221 746q-88 -15 -145 -135t-78 -312z M827 -82q147 0 281 205q-133 45 -213 215l-123 -414q27 -6 55 -6z" />
<glyph unicode="&#xd9;" horiz-adv-x="1599" d="M1225 1677q4 -4 -1 -12t-13.5 -13t-14.5 -1q-143 112 -149 118q-32 29 -5 76q16 26 28 25q2 0 3 -2q59 -83 152 -191zM1602 379q9 18 23.5 2.5t6.5 -31.5q-27 -53 -77.5 -138t-118 -186t-136 -172t-110.5 -71q-56 0 -93 17.5t-57 58.5t-24.5 100t7.5 150t36.5 200 t64.5 258q8 32 -4 37q-9 4 -20 -18q-297 -596 -492 -596q-88 0 -138 66t-50 202q0 82 38 251t84 329t84 320.5t38 227.5q0 70 -17.5 123t-46 82t-58.5 42.5t-61 13.5q-78 0 -152.5 -42.5t-131 -114.5t-91 -173.5t-34.5 -212.5q0 -63 27 -114.5t69 -61.5q6 -2 -11 -13 q-33 -24 -59 -6q-78 55 -78 195q0 121 41 231.5t106.5 186.5t148.5 121t165 45q42 0 83 -8.5t85 -32t77 -59.5t54 -96.5t21 -137.5t-58 -305t-120 -458.5t-68 -299.5q-11 -130 5.5 -187t72.5 -57q58 0 144 104t176 267t165.5 321t138.5 308q61 205 80 278q8 28 72 27 q55 0 68 -18q4 -4 2 -9q-30 -96 -78.5 -242.5t-67.5 -212.5q-205 -708 -208 -917q-2 -129 65 -129q34 0 95.5 68.5t125 165t114 182.5t77.5 139z" />
<glyph unicode="&#xda;" horiz-adv-x="1599" d="M1016 1677q25 29 119 150q29 30 49 23.5t34 -28t9 -24.5q-32 -28 -183 -147q-6 -4 -14.5 1t-13 13t-0.5 12zM1602 379q9 18 23.5 2.5t6.5 -31.5q-27 -53 -77.5 -138t-118 -186t-136 -172t-110.5 -71q-56 0 -93 17.5t-57 58.5t-24.5 100t7.5 150t36.5 200t64.5 258 q8 32 -4 37q-9 4 -20 -18q-297 -596 -492 -596q-88 0 -138 66t-50 202q0 82 38 251t84 329t84 320.5t38 227.5q0 70 -17.5 123t-46 82t-58.5 42.5t-61 13.5q-78 0 -152.5 -42.5t-131 -114.5t-91 -173.5t-34.5 -212.5q0 -63 27 -114.5t69 -61.5q6 -2 -11 -13q-33 -24 -59 -6 q-78 55 -78 195q0 121 41 231.5t106.5 186.5t148.5 121t165 45q42 0 83 -8.5t85 -32t77 -59.5t54 -96.5t21 -137.5t-58 -305t-120 -458.5t-68 -299.5q-11 -130 5.5 -187t72.5 -57q58 0 144 104t176 267t165.5 321t138.5 308q61 205 80 278q8 28 72 27q55 0 68 -18q4 -4 2 -9 q-30 -96 -78.5 -242.5t-67.5 -212.5q-205 -708 -208 -917q-2 -129 65 -129q34 0 95.5 68.5t125 165t114 182.5t77.5 139z" />
<glyph unicode="&#xdb;" horiz-adv-x="1599" d="M909 1636q2 1 62 52.5t120.5 99t73.5 47.5q11 0 71.5 -80t88.5 -127q7 -11 -10 -10q-18 0 -39 12q-10 5 -43.5 29.5t-63 44.5t-34.5 20q-8 0 -79.5 -37.5t-107.5 -58.5q-30 -14 -41 -2q-5 5 2 10zM1602 379q9 18 23.5 2.5t6.5 -31.5q-27 -53 -77.5 -138t-118 -186 t-136 -172t-110.5 -71q-56 0 -93 17.5t-57 58.5t-24.5 100t7.5 150t36.5 200t64.5 258q8 32 -4 37q-9 4 -20 -18q-297 -596 -492 -596q-88 0 -138 66t-50 202q0 82 38 251t84 329t84 320.5t38 227.5q0 70 -17.5 123t-46 82t-58.5 42.5t-61 13.5q-78 0 -152.5 -42.5 t-131 -114.5t-91 -173.5t-34.5 -212.5q0 -63 27 -114.5t69 -61.5q6 -2 -11 -13q-33 -24 -59 -6q-78 55 -78 195q0 121 41 231.5t106.5 186.5t148.5 121t165 45q42 0 83 -8.5t85 -32t77 -59.5t54 -96.5t21 -137.5t-58 -305t-120 -458.5t-68 -299.5q-11 -130 5.5 -187 t72.5 -57q58 0 144 104t176 267t165.5 321t138.5 308q61 205 80 278q8 28 72 27q55 0 68 -18q4 -4 2 -9q-30 -96 -78.5 -242.5t-67.5 -212.5q-205 -708 -208 -917q-2 -129 65 -129q34 0 95.5 68.5t125 165t114 182.5t77.5 139z" />
<glyph unicode="&#xdc;" horiz-adv-x="1599" d="M1018 1679q-27 0 -37.5 18t-7.5 46q7 65 65 65q27 0 38 -19t5 -46q-7 -30 -21 -47t-42 -17zM1219 1679q-27 0 -37.5 18t-7.5 46q7 65 63 65q28 0 39.5 -18.5t5.5 -46.5q-7 -30 -21 -47t-42 -17zM1602 379q9 18 23.5 2.5t6.5 -31.5q-27 -53 -77.5 -138t-118 -186 t-136 -172t-110.5 -71q-56 0 -93 17.5t-57 58.5t-24.5 100t7.5 150t36.5 200t64.5 258q8 32 -4 37q-9 4 -20 -18q-297 -596 -492 -596q-88 0 -138 66t-50 202q0 82 38 251t84 329t84 320.5t38 227.5q0 70 -17.5 123t-46 82t-58.5 42.5t-61 13.5q-78 0 -152.5 -42.5 t-131 -114.5t-91 -173.5t-34.5 -212.5q0 -63 27 -114.5t69 -61.5q6 -2 -11 -13q-33 -24 -59 -6q-78 55 -78 195q0 121 41 231.5t106.5 186.5t148.5 121t165 45q42 0 83 -8.5t85 -32t77 -59.5t54 -96.5t21 -137.5t-58 -305t-120 -458.5t-68 -299.5q-11 -130 5.5 -187 t72.5 -57q58 0 144 104t176 267t165.5 321t138.5 308q61 205 80 278q8 28 72 27q55 0 68 -18q4 -4 2 -9q-30 -96 -78.5 -242.5t-67.5 -212.5q-205 -708 -208 -917q-2 -129 65 -129q34 0 95.5 68.5t125 165t114 182.5t77.5 139z" />
<glyph unicode="&#xdd;" horiz-adv-x="1349" d="M895 1718q25 29 119 150q29 30 49 23.5t34 -28t9 -24.5q-41 -36 -182 -147q-6 -4 -14.5 1t-13.5 13t-1 12zM1190 1405q4 20 43 28t75 2t33 -20q-69 -424 -119 -651.5t-120 -454.5q-122 -388 -424 -424q-134 -14 -237 45.5t-162 169.5q-22 41 17 73q23 18 34 13l2 -2 q56 -145 136.5 -207.5t203.5 -50.5q64 6 115.5 40t87.5 91t60 116.5t44 133.5q43 157 82 375q1 3 -4 4t-6 -2q-75 -169 -167.5 -269t-193.5 -100q-89 0 -147 78.5t-54 214.5q3 82 19 184.5t30 165.5t44 187q32 129 37.5 221t-14 144.5t-55 77t-89.5 26.5q-77 0 -152.5 -42 t-132 -110.5t-91 -161t-34.5 -188.5q0 -168 96 -217q6 -3 -12 -16q-31 -21 -53 -7q-82 56 -82 240q0 143 70.5 269t186.5 199.5t245 72.5q51 -2 91 -14.5t77 -47t56 -89t18.5 -146.5t-27.5 -213q-7 -31 -23.5 -104.5t-24.5 -113t-19.5 -99.5t-17 -111.5t-7.5 -100.5 q-3 -131 15.5 -186t74.5 -55q72 0 152 98.5t146 250t113 329.5q9 55 64 354z" />
<glyph unicode="&#xde;" horiz-adv-x="1587" d="M1298 1329q126 0 208.5 -97.5t80.5 -242.5q-1 -162 -47 -305t-120 -240.5t-169.5 -154t-195.5 -56.5q-93 0 -142 38t-61 83q-9 34 23 60q17 13 18 6q5 -24 13.5 -46t26 -47t49 -39.5t73.5 -13.5q64 0 132.5 57t125 151t93 229t36.5 278q0 127 -45 209t-113 82 q-305 0 -563 -739q-76 -324 -148 -570q-8 -27 -68 -33q-54 -4 -66 13q-2 4 -1 8q291 1112 291 1399q0 132 -41.5 185.5t-122.5 53.5q-105 0 -199 -71.5t-152 -197.5t-58 -273q0 -63 27 -114.5t69 -61.5q6 -2 -11 -13q-33 -24 -59 -6q-78 55 -78 195q0 122 41.5 231.5 t109 186t155 121t178.5 44.5q47 0 84.5 -7t74.5 -27t62 -53t40 -89t15 -131q0 -107 -55 -387q-2 -12 5 -12q11 0 22 22q199 375 462 375z" />
<glyph unicode="&#xdf;" horiz-adv-x="962" d="M426 -57q-86 0 -140.5 31t-58.5 61q-3 18 9 33.5t25 21.5l13 6q0 -39 40 -73.5t112 -34.5q107 0 185.5 68.5t78.5 170.5q0 78 -28 145t-67.5 116t-79 96t-67.5 104.5t-28 120.5q0 57 38 118t92 116t108 110.5t92 120.5t38 127q0 66 -36.5 109.5t-96.5 43.5 q-148 0 -244 -219q-68 -157 -142 -528q-9 -46 -27 -140q-80 -415 -137 -606q-124 -421 -322 -570q-122 -93 -281 -93q-171 0 -297 83.5t-166 223.5q-10 37 11.5 62.5t48.5 32.5l27 7q35 -176 129.5 -272t246.5 -96q116 0 206 74t147.5 198.5t102.5 286.5t79.5 340.5 t69.5 357t81 340.5t105 286.5t151 198.5t211 74q118 0 182 -56.5t64 -149.5q0 -47 -21 -92t-54.5 -82t-74.5 -73t-81.5 -71.5t-74 -71t-54.5 -77t-21 -84.5q0 -53 28.5 -105.5t69 -98.5t80.5 -96t68.5 -119t28.5 -147q0 -89 -52.5 -165.5t-137.5 -120t-179 -43.5z" />
<glyph unicode="&#xe0;" d="M596 961q4 -4 -1 -12t-13.5 -13.5t-14.5 -1.5q-134 105 -149 119q-32 29 -5 75q15 25 27 25q3 0 4 -2q55 -77 152 -190zM451 317q6 21 -4 22q-5 0 -11 -11q-170 -310 -291 -310q-74 0 -126.5 61t-49.5 169q2 98 36.5 197.5t92.5 180.5t144.5 132t183.5 51 q40 0 66.5 -15.5t33.5 -35.5q11 -26 -17 -51q-15 -13 -17 -5q-2 21 -22 43.5t-58 22.5q-71 0 -144 -91.5t-118.5 -225t-45.5 -252.5q0 -60 16.5 -99t45.5 -39q49 0 133 113t159.5 269.5t104.5 277.5q8 28 73 27q56 -1 69 -18q4 -5 2 -9q-62 -170 -109 -321.5t-77.5 -278.5 t-30 -202t37.5 -75q36 0 98 65t124 158.5t111.5 175.5t76.5 136q8 17 23 3q16 -16 8 -32q-28 -55 -77 -136.5t-116.5 -181.5t-138.5 -168.5t-119 -68.5q-69 0 -101 46.5t-25.5 164t59.5 311.5z" />
<glyph unicode="&#xe1;" d="M387 961q34 39 119 149q29 30 49 23.5t34 -28t9 -24.5q-41 -36 -182 -147q-6 -4 -14.5 1.5t-13.5 13.5t-1 12zM451 317q6 21 -4 22q-5 0 -11 -11q-170 -310 -291 -310q-74 0 -126.5 61t-49.5 169q2 98 36.5 197.5t92.5 180.5t144.5 132t183.5 51q40 0 66.5 -15.5 t33.5 -35.5q11 -26 -17 -51q-15 -13 -17 -5q-2 21 -22 43.5t-58 22.5q-71 0 -144 -91.5t-118.5 -225t-45.5 -252.5q0 -60 16.5 -99t45.5 -39q49 0 133 113t159.5 269.5t104.5 277.5q8 28 73 27q56 -1 69 -18q4 -5 2 -9q-62 -170 -109 -321.5t-77.5 -278.5t-30 -202t37.5 -75 q36 0 98 65t124 158.5t111.5 175.5t76.5 136q8 17 23 3q16 -16 8 -32q-28 -55 -77 -136.5t-116.5 -181.5t-138.5 -168.5t-119 -68.5q-69 0 -101 46.5t-25.5 164t59.5 311.5z" />
<glyph unicode="&#xe2;" d="M281 920q2 1 62 52.5t120.5 98.5t73.5 47q11 0 70.5 -79.5t88.5 -127.5q7 -11 -10 -10q-18 0 -39 12q-10 5 -43.5 29.5t-63 45t-34.5 20.5q-8 0 -78.5 -37.5t-108.5 -59.5q-29 -14 -40 -1q-5 5 2 10zM451 317q6 21 -4 22q-5 0 -11 -11q-170 -310 -291 -310 q-74 0 -126.5 61t-49.5 169q2 98 36.5 197.5t92.5 180.5t144.5 132t183.5 51q40 0 66.5 -15.5t33.5 -35.5q11 -26 -17 -51q-15 -13 -17 -5q-2 21 -22 43.5t-58 22.5q-71 0 -144 -91.5t-118.5 -225t-45.5 -252.5q0 -60 16.5 -99t45.5 -39q49 0 133 113t159.5 269.5 t104.5 277.5q8 28 73 27q56 -1 69 -18q4 -5 2 -9q-62 -170 -109 -321.5t-77.5 -278.5t-30 -202t37.5 -75q36 0 98 65t124 158.5t111.5 175.5t76.5 136q8 17 23 3q16 -16 8 -32q-28 -55 -77 -136.5t-116.5 -181.5t-138.5 -168.5t-119 -68.5q-69 0 -101 46.5t-25.5 164 t59.5 311.5z" />
<glyph unicode="&#xe3;" d="M674 1063q6 6 8 -7q2 -14 -4 -22q-36 -53 -100 -53q-37 0 -100.5 26.5t-86.5 26.5q-45 0 -92 -35q-6 -4 -7 7q-1 12 5 18q49 53 106 53q30 0 89 -26.5t100 -26.5q51 0 82 39zM451 317q6 21 -4 22q-5 0 -11 -11q-170 -310 -291 -310q-74 0 -126.5 61t-49.5 169 q2 98 36.5 197.5t92.5 180.5t144.5 132t183.5 51q40 0 66.5 -15.5t33.5 -35.5q11 -26 -17 -51q-15 -13 -17 -5q-2 21 -22 43.5t-58 22.5q-71 0 -144 -91.5t-118.5 -225t-45.5 -252.5q0 -60 16.5 -99t45.5 -39q49 0 133 113t159.5 269.5t104.5 277.5q8 28 73 27q56 -1 69 -18 q4 -5 2 -9q-62 -170 -109 -321.5t-77.5 -278.5t-30 -202t37.5 -75q36 0 98 65t124 158.5t111.5 175.5t76.5 136q8 17 23 3q16 -16 8 -32q-28 -55 -77 -136.5t-116.5 -181.5t-138.5 -168.5t-119 -68.5q-69 0 -101 46.5t-25.5 164t59.5 311.5z" />
<glyph unicode="&#xe4;" d="M389 963q-53 0 -45 63q8 66 66 66q27 0 38 -19t5 -47q-15 -63 -64 -63zM590 963q-53 0 -45 63q8 66 63 66q28 0 39.5 -19t5.5 -47q-15 -63 -63 -63zM451 317q6 21 -4 22q-5 0 -11 -11q-170 -310 -291 -310q-74 0 -126.5 61t-49.5 169q2 98 36.5 197.5t92.5 180.5 t144.5 132t183.5 51q40 0 66.5 -15.5t33.5 -35.5q11 -26 -17 -51q-15 -13 -17 -5q-2 21 -22 43.5t-58 22.5q-71 0 -144 -91.5t-118.5 -225t-45.5 -252.5q0 -60 16.5 -99t45.5 -39q49 0 133 113t159.5 269.5t104.5 277.5q8 28 73 27q56 -1 69 -18q4 -5 2 -9 q-62 -170 -109 -321.5t-77.5 -278.5t-30 -202t37.5 -75q36 0 98 65t124 158.5t111.5 175.5t76.5 136q8 17 23 3q16 -16 8 -32q-28 -55 -77 -136.5t-116.5 -181.5t-138.5 -168.5t-119 -68.5q-69 0 -101 46.5t-25.5 164t59.5 311.5z" />
<glyph unicode="&#xe5;" d="M502 895q-54 0 -87.5 41t-25.5 98q8 54 51 93.5t97 39.5q53 0 85.5 -40.5t26.5 -96.5q-9 -56 -51.5 -95.5t-95.5 -39.5zM504 932q33 0 60 32t32 70t-11.5 66t-49.5 28q-39 0 -66.5 -29.5t-32.5 -68.5q-5 -38 15 -68t53 -30zM451 317q6 21 -4 22q-5 0 -11 -11 q-170 -310 -291 -310q-74 0 -126.5 61t-49.5 169q2 98 36.5 197.5t92.5 180.5t144.5 132t183.5 51q40 0 66.5 -15.5t33.5 -35.5q11 -26 -17 -51q-15 -13 -17 -5q-2 21 -22 43.5t-58 22.5q-71 0 -144 -91.5t-118.5 -225t-45.5 -252.5q0 -60 16.5 -99t45.5 -39q49 0 133 113 t159.5 269.5t104.5 277.5q8 28 73 27q56 -1 69 -18q4 -5 2 -9q-62 -170 -109 -321.5t-77.5 -278.5t-30 -202t37.5 -75q36 0 98 65t124 158.5t111.5 175.5t76.5 136q8 17 23 3q16 -16 8 -32q-28 -55 -77 -136.5t-116.5 -181.5t-138.5 -168.5t-119 -68.5q-69 0 -101 46.5 t-25.5 164t59.5 311.5z" />
<glyph unicode="&#xe6;" horiz-adv-x="1071" d="M1073 379q10 19 25 5q16 -15 6 -34q-36 -66 -84 -131t-105 -125t-121.5 -97.5t-121.5 -37.5q-107 0 -170 84t-60 211q0 21 2 29q-53 -96 -119.5 -160t-136.5 -64q-89 0 -139 63.5t-49 190.5t57 241t155 184.5t216 70.5q65 0 103.5 -44.5t41.5 -107.5q56 72 125.5 112 t141.5 40q45 0 76.5 -13t46.5 -36t20.5 -47t3.5 -51q-7 -116 -125 -207t-262 -99q-13 -48 -20 -110q-11 -105 18 -174.5t90 -69.5q58 0 133.5 60.5t139.5 144t112 172.5zM487 498q15 41 43 92q10 67 -16.5 122.5t-69.5 55.5q-75 0 -146 -76t-113 -193t-42 -235 q0 -82 13.5 -122t50.5 -40q56 0 134.5 98.5t123.5 219.5q11 47 22 76v2zM868 768q-66 0 -140.5 -112t-117.5 -261q123 -1 227.5 85.5t110.5 185.5q3 46 -18 74t-62 28z" />
<glyph unicode="&#xe7;" horiz-adv-x="643" d="M645 379q10 19 25 5q16 -15 6 -34q-30 -55 -63.5 -106.5t-79 -108.5t-91 -99t-100 -69.5t-104.5 -27.5q-23 0 -33 2l-12 -33q-3 -8 -3 -9t2 -3t9 2q24 8 47 8q35 0 58.5 -20.5t19.5 -71.5q-4 -53 -49.5 -83t-92.5 -30q-49 0 -71.5 21.5t-22.5 48.5q0 16 10 28.5t25 12.5 q10 0 16.5 -5t7.5 -11l1 -5q-12 0 -19.5 -7.5t-7.5 -16.5q0 -15 14.5 -27t42.5 -12q34 0 55.5 24t24.5 58q7 73 -41 73q-8 0 -54 -13q-21 -7 -20 3q0 3 2 8q1 2 10.5 25t16.5 39q-86 21 -135 97t-49 206q0 107 35 209.5t92.5 179.5t137.5 124.5t165 47.5q56 0 86.5 -33 t30.5 -74q0 -46 -27 -90q-12 -15 -32 -8q-17 5 -9 17q25 44 14 96.5t-53 52.5q-67 0 -136.5 -91.5t-113 -227t-43.5 -258.5q0 -66 12 -111t32 -65t37.5 -27.5t37.5 -7.5q83 0 197 125.5t192 271.5z" />
<glyph unicode="&#xe8;" horiz-adv-x="567" d="M311 1061q-32 29 -4 75q15 25 27 25q3 0 4 -2q60 -84 151 -190q4 -4 -0.5 -12t-13 -13.5t-14.5 -1.5q-142 112 -150 119zM569 379q10 19 25 5q16 -15 6 -34q-49 -89 -115 -174.5t-149 -151t-148 -65.5q-116 4 -167.5 81t-51.5 216q0 232 111 390.5t256 158.5 q61 0 85.5 -22.5t24.5 -53.5q0 -61 -34.5 -125.5t-84.5 -112t-105.5 -80t-98.5 -38.5q-14 -66 -14 -142q0 -227 96 -229q48 0 118.5 60t134.5 145t111 172zM358 768q-64 0 -130 -105.5t-99 -250.5q85 16 171.5 115.5t86.5 201.5q0 39 -29 39z" />
<glyph unicode="&#xe9;" horiz-adv-x="567" d="M309 942q-6 -4 -14.5 1.5t-13 13.5t-0.5 12q23 27 118 149q29 30 49 23.5t34.5 -27.5t9.5 -24q-43 -38 -183 -148zM569 379q10 19 25 5q16 -15 6 -34q-49 -89 -115 -174.5t-149 -151t-148 -65.5q-116 4 -167.5 81t-51.5 216q0 232 111 390.5t256 158.5q61 0 85.5 -22.5 t24.5 -53.5q0 -61 -34.5 -125.5t-84.5 -112t-105.5 -80t-98.5 -38.5q-14 -66 -14 -142q0 -227 96 -229q48 0 118.5 60t134.5 145t111 172zM358 768q-64 0 -130 -105.5t-99 -250.5q85 16 171.5 115.5t86.5 201.5q0 39 -29 39z" />
<glyph unicode="&#xea;" horiz-adv-x="567" d="M213 920q-30 -14 -41 -2q-5 5 2 10q2 1 62 52.5t120.5 98.5t73.5 47q11 0 71.5 -79.5t88.5 -126.5q7 -11 -10 -10q-18 0 -39 12q-10 5 -44 29.5t-63.5 44.5t-34.5 20q-8 0 -78.5 -37t-107.5 -59zM569 379q10 19 25 5q16 -15 6 -34q-49 -89 -115 -174.5t-149 -151 t-148 -65.5q-116 4 -167.5 81t-51.5 216q0 232 111 390.5t256 158.5q61 0 85.5 -22.5t24.5 -53.5q0 -61 -34.5 -125.5t-84.5 -112t-105.5 -80t-98.5 -38.5q-14 -66 -14 -142q0 -227 96 -229q48 0 118.5 60t134.5 145t111 172zM358 768q-64 0 -130 -105.5t-99 -250.5 q85 16 171.5 115.5t86.5 201.5q0 39 -29 39z" />
<glyph unicode="&#xeb;" horiz-adv-x="567" d="M283 971q-53 0 -45 63q8 66 65 66q27 0 38 -19t5 -47q-15 -63 -63 -63zM483 971q-53 0 -45 63q8 66 64 66q28 0 39.5 -19t5.5 -47q-15 -63 -64 -63zM569 379q10 19 25 5q16 -15 6 -34q-49 -89 -115 -174.5t-149 -151t-148 -65.5q-116 4 -167.5 81t-51.5 216 q0 232 111 390.5t256 158.5q61 0 85.5 -22.5t24.5 -53.5q0 -61 -34.5 -125.5t-84.5 -112t-105.5 -80t-98.5 -38.5q-14 -66 -14 -142q0 -227 96 -229q48 0 118.5 60t134.5 145t111 172zM358 768q-64 0 -130 -105.5t-99 -250.5q85 16 171.5 115.5t86.5 201.5q0 39 -29 39z" />
<glyph unicode="&#xec;" horiz-adv-x="464" d="M338 944q4 -4 -1 -12t-13.5 -13t-14.5 -1q-143 112 -149 118q-32 29 -5 76q16 26 28 25q2 0 3 -2q59 -83 152 -191zM117 -61q-124 0 -150 97q-27 100 45 370q31 117 111 376q9 28 74 27q56 -1 68 -19q2 -4 1 -8q-194 -591 -179 -733q6 -59 44 -59q44 0 115.5 74 t128.5 160t92 155q8 17 23 3q16 -16 8 -32q-25 -50 -65.5 -113.5t-94.5 -133.5t-114 -117t-107 -47z" />
<glyph unicode="&#xed;" horiz-adv-x="464" d="M129 944q25 29 119 150q29 30 49 23.5t34 -28t9 -24.5q-41 -36 -182 -147q-6 -4 -14.5 1t-13.5 13t-1 12zM117 -61q-124 0 -150 97q-27 100 45 370q31 117 111 376q9 28 74 27q56 -1 68 -19q2 -4 1 -8q-194 -591 -179 -733q6 -59 44 -59q44 0 115.5 74t128.5 160t92 155 q8 17 23 3q16 -16 8 -32q-25 -50 -65.5 -113.5t-94.5 -133.5t-114 -117t-107 -47z" />
<glyph unicode="&#xee;" horiz-adv-x="464" d="M23 903q2 1 62 52.5t120.5 99t73.5 47.5q11 0 70.5 -79.5t88.5 -127.5q7 -11 -10 -10q-18 0 -39 12q-10 5 -43.5 29.5t-63 44.5t-34.5 20q-8 0 -79.5 -37.5t-107.5 -58.5q-29 -14 -40 -2q-5 5 2 10zM117 -61q-124 0 -150 97q-27 100 45 370q31 117 111 376q9 28 74 27 q56 -1 68 -19q2 -4 1 -8q-194 -591 -179 -733q6 -59 44 -59q44 0 115.5 74t128.5 160t92 155q8 17 23 3q16 -16 8 -32q-25 -50 -65.5 -113.5t-94.5 -133.5t-114 -117t-107 -47z" />
<glyph unicode="&#xef;" horiz-adv-x="464" d="M131 946q-27 0 -37.5 18t-7.5 46q3 29 19.5 47t46.5 18q27 0 38 -19t5 -46q-16 -64 -64 -64zM332 946q-27 0 -37.5 18t-7.5 46q7 65 63 65q28 0 39.5 -18.5t5.5 -46.5q-7 -30 -21 -47t-42 -17zM117 -61q-124 0 -150 97q-27 100 45 370q31 117 111 376q9 28 74 27 q56 -1 68 -19q2 -4 1 -8q-194 -591 -179 -733q6 -59 44 -59q44 0 115.5 74t128.5 160t92 155q8 17 23 3q16 -16 8 -32q-25 -50 -65.5 -113.5t-94.5 -133.5t-114 -117t-107 -47z" />
<glyph unicode="&#xf0;" horiz-adv-x="761" d="M756 1190q2 -4 3.5 -12.5t0 -21.5t-9.5 -19q-29 -23 -136 -58q41 -134 41 -338q0 -160 -39.5 -305t-102 -244t-140 -157t-152.5 -58q-96 0 -160.5 90.5t-60.5 245.5q6 217 120 356.5t271 139.5q92 0 119.5 -65.5t-10.5 -163.5q-6 -18 -39 -11q-19 6 -19 15 q32 60 29.5 122t-49.5 62q-64 0 -127.5 -77t-105 -201t-46.5 -254q-2 -47 1 -82t12 -67.5t30.5 -49.5t53.5 -17q47 0 105 67.5t108.5 174t85 255t34.5 294.5q0 140 -24 248q-111 -35 -168 -70h-2q-9 40 2 51q25 23 158 64q-21 74 -52 119q-15 21 3 43q10 12 18 6 q51 -41 92 -148q107 36 154 68z" />
<glyph unicode="&#xf1;" horiz-adv-x="827" d="M686 1047q6 6 8 -7q2 -14 -4 -22q-36 -53 -100 -53q-37 0 -100.5 26.5t-86.5 26.5q-45 0 -92 -35q-6 -4 -7 7q-1 12 5 18q49 53 107 53q30 0 88.5 -26.5t99.5 -26.5q51 0 82 39zM829 379q10 17 25 3q14 -16 6 -32q-96 -162 -191.5 -256t-174.5 -94q-50 0 -80.5 36 t-30.5 89q0 74 33.5 181t66.5 207.5t33 156.5q0 32 -22 32q-51 0 -150.5 -120.5t-198.5 -299t-145 -329.5q-6 -20 -62 -21q-51 -1 -53 14v3q152 549 240 860q8 28 73 27q55 -1 68 -18q4 -5 2 -9q-12 -31 -66 -198.5t-65 -196.5q-8 -23 -1 -26.5t22 18.5q44 70 82.5 123.5 t92.5 113t112.5 92.5t115.5 33q41 0 63.5 -30.5t14.5 -94.5q-10 -78 -73.5 -270t-63.5 -271q0 -21 8.5 -36t21.5 -15q46 0 130 93t167 235z" />
<glyph unicode="&#xf2;" horiz-adv-x="741" d="M389 1036q-32 29 -4 76q16 26 28 25q2 0 3 -2q64 -90 151 -191q4 -4 -0.5 -12t-13 -13t-14.5 -1q-16 12 -53 41t-62.5 49t-34.5 28zM846 637q7 11 23 1q18 -11 8 -30q-28 -55 -52 -95t-62 -91.5t-81 -80t-86 -28.5q-62 0 -107 37q-44 -166 -134 -278.5t-187 -112.5 q-89 0 -138.5 58.5t-49.5 166.5q0 132 34.5 253.5t86.5 203t113.5 130t117.5 48.5q26 0 44.5 -15.5t23.5 -30.5l6 -15q1 -5 -6 -6q-14 -2 -19 6q-12 12 -29 12q-32 0 -73 -57t-76 -143t-59.5 -197t-24.5 -209q0 -74 21.5 -115t54.5 -41q72 0 149 109.5t115 267.5 q-23 35 -31 78q-17 69 -5 152t54 83q28 0 38.5 -49t7.5 -102t-11 -94l-6 -41q30 -54 90 -54q34 0 71.5 28t71.5 75.5t58.5 88.5t48.5 87z" />
<glyph unicode="&#xf3;" horiz-adv-x="741" d="M387 918q-6 -4 -14.5 1t-13.5 13t-1 12q25 29 119 150q29 30 49 23.5t34 -28t9 -24.5q-41 -36 -182 -147zM846 637q7 11 23 1q18 -11 8 -30q-28 -55 -52 -95t-62 -91.5t-81 -80t-86 -28.5q-62 0 -107 37q-44 -166 -134 -278.5t-187 -112.5q-89 0 -138.5 58.5t-49.5 166.5 q0 132 34.5 253.5t86.5 203t113.5 130t117.5 48.5q26 0 44.5 -15.5t23.5 -30.5l6 -15q1 -5 -6 -6q-14 -2 -19 6q-12 12 -29 12q-32 0 -73 -57t-76 -143t-59.5 -197t-24.5 -209q0 -74 21.5 -115t54.5 -41q72 0 149 109.5t115 267.5q-23 35 -31 78q-17 69 -5 152t54 83 q28 0 38.5 -49t7.5 -102t-11 -94l-6 -41q30 -54 90 -54q34 0 71.5 28t71.5 75.5t58.5 88.5t48.5 87z" />
<glyph unicode="&#xf4;" horiz-adv-x="741" d="M291 895q-30 -14 -41 -2q-5 5 2 10q2 1 62 52.5t120.5 99t73.5 47.5q11 0 71.5 -80t88.5 -127q7 -11 -9 -10q-19 0 -41 12q-10 5 -43.5 29.5t-63 44.5t-34.5 20q-8 0 -78.5 -37t-107.5 -59zM846 637q7 11 23 1q18 -11 8 -30q-28 -55 -52 -95t-62 -91.5t-81 -80t-86 -28.5 q-62 0 -107 37q-44 -166 -134 -278.5t-187 -112.5q-89 0 -138.5 58.5t-49.5 166.5q0 132 34.5 253.5t86.5 203t113.5 130t117.5 48.5q26 0 44.5 -15.5t23.5 -30.5l6 -15q1 -5 -6 -6q-14 -2 -19 6q-12 12 -29 12q-32 0 -73 -57t-76 -143t-59.5 -197t-24.5 -209 q0 -74 21.5 -115t54.5 -41q72 0 149 109.5t115 267.5q-23 35 -31 78q-17 69 -5 152t54 83q28 0 38.5 -49t7.5 -102t-11 -94l-6 -41q30 -54 90 -54q34 0 71.5 28t71.5 75.5t58.5 88.5t48.5 87z" />
<glyph unicode="&#xf5;" horiz-adv-x="741" d="M270 983q-6 -4 -7 7q-1 12 5 18q49 53 107 53q30 0 88.5 -26.5t99.5 -26.5q51 0 82 39q6 6 8 -7q2 -14 -4 -22q-36 -53 -100 -53q-37 0 -100.5 26.5t-86.5 26.5q-45 0 -92 -35zM846 637q7 11 23 1q18 -11 8 -30q-28 -55 -52 -95t-62 -91.5t-81 -80t-86 -28.5 q-62 0 -107 37q-44 -166 -134 -278.5t-187 -112.5q-89 0 -138.5 58.5t-49.5 166.5q0 132 34.5 253.5t86.5 203t113.5 130t117.5 48.5q26 0 44.5 -15.5t23.5 -30.5l6 -15q1 -5 -6 -6q-14 -2 -19 6q-12 12 -29 12q-32 0 -73 -57t-76 -143t-59.5 -197t-24.5 -209 q0 -74 21.5 -115t54.5 -41q72 0 149 109.5t115 267.5q-23 35 -31 78q-17 69 -5 152t54 83q28 0 38.5 -49t7.5 -102t-11 -94l-6 -41q30 -54 90 -54q34 0 71.5 28t71.5 75.5t58.5 88.5t48.5 87z" />
<glyph unicode="&#xf6;" horiz-adv-x="741" d="M360 946q-27 0 -37.5 18t-7.5 46q3 29 19.5 47t46.5 18q27 0 38 -19t5 -46q-16 -64 -64 -64zM561 946q-27 0 -37.5 18t-7.5 46q3 29 19 47t45 18q28 0 39.5 -18.5t5.5 -46.5q-16 -64 -64 -64zM846 637q7 11 23 1q18 -11 8 -30q-28 -55 -52 -95t-62 -91.5t-81 -80 t-86 -28.5q-62 0 -107 37q-44 -166 -134 -278.5t-187 -112.5q-89 0 -138.5 58.5t-49.5 166.5q0 132 34.5 253.5t86.5 203t113.5 130t117.5 48.5q26 0 44.5 -15.5t23.5 -30.5l6 -15q1 -5 -6 -6q-14 -2 -19 6q-12 12 -29 12q-32 0 -73 -57t-76 -143t-59.5 -197t-24.5 -209 q0 -74 21.5 -115t54.5 -41q72 0 149 109.5t115 267.5q-23 35 -31 78q-17 69 -5 152t54 83q28 0 38.5 -49t7.5 -102t-11 -94l-6 -41q30 -54 90 -54q34 0 71.5 28t71.5 75.5t58.5 88.5t48.5 87z" />
<glyph unicode="&#xf7;" horiz-adv-x="749" d="M393 612q-49 0 -49 66q0 45 22.5 71.5t55.5 26.5q28 0 45.5 -18t17.5 -41q0 -36 -29.5 -70.5t-62.5 -34.5zM627 563q0 -40 -25 -49q-30 -11 -222 -5t-257 -7l-2 2q4 40 20 47q24 11 218.5 5.5t265.5 8.5zM319 268q-49 0 -49 66q0 45 22.5 71.5t55.5 26.5q28 0 46 -18 t18 -41q0 -36 -30 -70.5t-63 -34.5z" />
<glyph unicode="&#xf8;" horiz-adv-x="741" d="M846 637q7 11 23 1q18 -11 8 -30q-28 -55 -52 -95t-62 -91.5t-81 -80t-86 -28.5q-62 0 -107 37q-40 -154 -121 -263t-171 -126l-39 -141q-4 -11 -31 -9q-15 3 -14 9v2l37 137q-80 6 -125 64.5t-45 160.5q0 132 34.5 253.5t86.5 203t113.5 130t117.5 48.5q29 0 45 -16 l39 145q3 9 23 9t20 -9v-2l-250 -936q69 11 141 118t109 257q-23 35 -31 78q-17 69 -5 152t54 83q28 0 38.5 -49t7.5 -102t-11 -94l-6 -41q30 -54 90 -54q34 0 71.5 28t71.5 75.5t58.5 88.5t48.5 87zM119 164q0 -117 47 -146l201 750q-4 2 -15 2q-32 0 -73 -57t-76 -143 t-59.5 -197t-24.5 -209z" />
<glyph unicode="&#xf9;" horiz-adv-x="919" d="M545 944q4 -4 -1 -12t-13.5 -13t-14.5 -1q-143 112 -149 118q-32 29 -5 76q16 26 28 25q2 0 3 -2q59 -83 152 -191zM922 379q9 18 23.5 2.5t6.5 -31.5q-26 -51 -71.5 -126t-105.5 -161.5t-123 -146t-105 -59.5q-246 0 -127 475q3 15 1.5 22.5t-7.5 4t-13 -16.5 q-76 -123 -141 -194.5t-121 -71.5q-164 0 -158 187q3 115 83 370q6 16 16 48q5 17 8 26q8 27 73 26q57 -2 69 -20q2 -4 1 -8q-93 -295 -114 -393q-42 -195 22 -195q48 0 116.5 79t130.5 191t113.5 225t73.5 189q9 29 74 28q55 -1 68 -19q4 -5 2 -9q-72 -202 -121 -359.5 t-76.5 -283t-21.5 -193t49 -67.5q44 0 126 98.5t146.5 203t102.5 179.5z" />
<glyph unicode="&#xfa;" horiz-adv-x="919" d="M336 944q25 29 119 150q29 30 49 23.5t34 -28t9 -24.5q-41 -36 -182 -147q-6 -4 -14.5 1t-13.5 13t-1 12zM922 379q9 18 23.5 2.5t6.5 -31.5q-26 -51 -71.5 -126t-105.5 -161.5t-123 -146t-105 -59.5q-246 0 -127 475q3 15 1.5 22.5t-7.5 4t-13 -16.5 q-76 -123 -141 -194.5t-121 -71.5q-164 0 -158 187q3 115 83 370q6 16 16 48q5 17 8 26q8 27 73 26q57 -2 69 -20q2 -4 1 -8q-93 -295 -114 -393q-42 -195 22 -195q48 0 116.5 79t130.5 191t113.5 225t73.5 189q9 29 74 28q55 -1 68 -19q4 -5 2 -9q-72 -202 -121 -359.5 t-76.5 -283t-21.5 -193t49 -67.5q44 0 126 98.5t146.5 203t102.5 179.5z" />
<glyph unicode="&#xfb;" horiz-adv-x="919" d="M229 903q2 1 62 52.5t120.5 99t73.5 47.5q11 0 71.5 -80t88.5 -127q7 -11 -10 -10q-18 0 -39 12q-10 5 -43.5 29.5t-63 44.5t-34.5 20q-8 0 -79.5 -37.5t-107.5 -58.5q-30 -14 -41 -2q-5 5 2 10zM922 379q9 18 23.5 2.5t6.5 -31.5q-26 -51 -71.5 -126t-105.5 -161.5 t-123 -146t-105 -59.5q-246 0 -127 475q3 15 1.5 22.5t-7.5 4t-13 -16.5q-76 -123 -141 -194.5t-121 -71.5q-164 0 -158 187q3 115 83 370q6 16 16 48q5 17 8 26q8 27 73 26q57 -2 69 -20q2 -4 1 -8q-93 -295 -114 -393q-42 -195 22 -195q48 0 116.5 79t130.5 191t113.5 225 t73.5 189q9 29 74 28q55 -1 68 -19q4 -5 2 -9q-72 -202 -121 -359.5t-76.5 -283t-21.5 -193t49 -67.5q44 0 126 98.5t146.5 203t102.5 179.5z" />
<glyph unicode="&#xfc;" horiz-adv-x="919" d="M338 946q-27 0 -37.5 18t-7.5 46q7 65 65 65q27 0 38 -19t5 -46q-7 -30 -21 -47t-42 -17zM539 946q-27 0 -37.5 18t-7.5 46q7 65 63 65q28 0 39.5 -18.5t5.5 -46.5q-7 -30 -21 -47t-42 -17zM922 379q9 18 23.5 2.5t6.5 -31.5q-26 -51 -71.5 -126t-105.5 -161.5t-123 -146 t-105 -59.5q-246 0 -127 475q3 15 1.5 22.5t-7.5 4t-13 -16.5q-76 -123 -141 -194.5t-121 -71.5q-164 0 -158 187q3 115 83 370q6 16 16 48q5 17 8 26q8 27 73 26q57 -2 69 -20q2 -4 1 -8q-93 -295 -114 -393q-42 -195 22 -195q48 0 116.5 79t130.5 191t113.5 225t73.5 189 q9 29 74 28q55 -1 68 -19q4 -5 2 -9q-72 -202 -121 -359.5t-76.5 -283t-21.5 -193t49 -67.5q44 0 126 98.5t146.5 203t102.5 179.5z" />
<glyph unicode="&#xfd;" horiz-adv-x="829" d="M332 944q25 29 119 150q29 30 49 23.5t34 -28t9 -24.5q-32 -28 -183 -147q-6 -4 -14.5 1t-13 13t-0.5 12zM831 379q8 17 23 3q16 -16 8 -32q-64 -130 -172.5 -223.5t-257.5 -177.5q-58 -165 -106 -295q-57 -153 -141 -223t-173 -70q-58 0 -91.5 37t-33.5 94q0 74 28 134 t99.5 116.5t120 86t160.5 89.5q12 7 18 10q9 29 117 414q3 12 -5.5 15.5t-14.5 -7.5q-78 -136 -151.5 -224.5t-123.5 -88.5q-38 0 -67.5 9.5t-47.5 29t-29.5 43.5t-13.5 59t-1 69.5t10.5 80t19.5 86t27 93t31 94t34 95.5q11 27 76 24q55 -3 67 -22q2 -4 1 -8 q-43 -117 -73 -212t-54 -192.5t-20 -152.5t40 -55q37 0 111.5 93.5t146 218.5t111.5 224q8 31 55 195q8 28 72 27q57 -1 69 -19q3 -4 2 -8q-129 -452 -249 -803q272 163 378 373zM223 -338q31 83 72 211q-52 -28 -84 -45.5t-75.5 -44.5t-69.5 -48t-55.5 -50t-45.5 -56.5 t-26.5 -61.5t-10.5 -71q0 -45 23 -69.5t61 -24.5q64 0 114 67t97 193z" />
<glyph unicode="&#xfe;" horiz-adv-x="741" d="M463 782q27 0 53 -9t55 -31t46 -59t25 -94t-7 -136q-16 -94 -48.5 -178.5t-82 -157t-123.5 -115.5t-162 -43q-52 0 -81 29t-29 80q0 19 24.5 19.5t24.5 -19.5q0 -35 13.5 -51.5t47.5 -16.5q58 0 119.5 85.5t102.5 200t55 216.5q34 239 -47 239q-60 0 -143 -84.5 t-179 -269.5q-44 -154 -88 -317.5t-86 -321t-53 -197.5q-5 -21 -53 -23q-45 -2 -50 16q-1 3 0 7q67 271 203 782.5t246 893.5q8 28 73 27q55 -1 68 -18q4 -5 2 -9q-88 -246 -209 -656q72 114 139 162.5t144 48.5z" />
<glyph unicode="&#xff;" horiz-adv-x="829" d="M334 946q-27 0 -37.5 18t-7.5 46q7 65 65 65q27 0 38 -19t5 -46q-7 -30 -21 -47t-42 -17zM535 946q-27 0 -38 18.5t-8 45.5q3 29 19 47t45 18q28 0 39.5 -18.5t5.5 -46.5q-7 -30 -21 -47t-42 -17zM831 379q8 17 23 3q16 -16 8 -32q-64 -130 -172.5 -223.5t-257.5 -177.5 q-58 -165 -106 -295q-57 -153 -141 -223t-173 -70q-58 0 -91.5 37t-33.5 94q0 74 28 134t99.5 116.5t120 86t160.5 89.5q12 7 18 10q9 29 117 414q3 12 -5.5 15.5t-14.5 -7.5q-78 -136 -151.5 -224.5t-123.5 -88.5q-38 0 -67.5 9.5t-47.5 29t-29.5 43.5t-13.5 59t-1 69.5 t10.5 80t19.5 86t27 93t31 94t34 95.5q11 27 76 24q55 -3 67 -22q2 -4 1 -8q-43 -117 -73 -212t-54 -192.5t-20 -152.5t40 -55q37 0 111.5 93.5t146 218.5t111.5 224q8 31 55 195q8 28 72 27q57 -1 69 -19q3 -4 2 -8q-129 -452 -249 -803q272 163 378 373zM223 -338 q31 83 72 211q-52 -28 -84 -45.5t-75.5 -44.5t-69.5 -48t-55.5 -50t-45.5 -56.5t-26.5 -61.5t-10.5 -71q0 -45 23 -69.5t61 -24.5q64 0 114 67t97 193z" />
<glyph unicode="&#x152;" horiz-adv-x="1849" d="M1882 379q10 19 25 5q16 -15 6 -34q-26 -47 -43 -76.5t-51 -80t-63 -83.5t-74 -73t-90 -63t-104.5 -39.5t-123.5 -16.5q-79 0 -155 31.5t-137.5 88t-99 146.5t-36.5 197v6q-91 -199 -217 -313.5t-256 -114.5q-50 0 -100.5 14t-103.5 42.5t-99 79t-82 118t-57 165.5 t-21 214q0 185 35 344t87.5 264.5t119.5 185t125.5 119.5t109.5 54q21 5 36.5 3t25.5 -9.5t16 -15.5t8 -15l2 -6q-64 -14 -136 -95.5t-134.5 -206.5t-103.5 -301.5t-41 -359.5q0 -241 102.5 -397t232.5 -156q131 0 260.5 146.5t210.5 392.5q6 27 15 51q50 169 65 362 q-23 -2 -63 -2q-247 0 -375.5 85.5t-128.5 248.5q0 136 95.5 220.5t228.5 84.5q128 0 209 -128.5t81 -346.5q0 -43 -4 -117q30 3 125 25q-30 82 -30 168q0 109 36 194.5t98 138t140.5 80t167.5 27.5q105 0 153 -41t48 -106q0 -133 -138.5 -260t-341.5 -203q40 -123 136 -191 q16 -11 10 -40q-4 -19 -15 -18q-2 0 -4 1l-30 14q-28 7 -66 7q-112 0 -189.5 -111.5t-80.5 -300.5q-1 -94 17.5 -169t48.5 -121t69 -76.5t76 -42t73 -11.5q73 0 141.5 28.5t118 69t99 102t79 109.5t62.5 109zM1311 1210q0 -81 16 -147q120 46 217.5 108t163.5 144t66 164 q0 43 -31.5 76.5t-89.5 33.5q-103 0 -183 -57.5t-119.5 -143t-39.5 -178.5zM985 989q35 0 53 2q4 82 4 123q0 199 -69.5 316.5t-175.5 117.5q-81 0 -143 -68t-62 -173q0 -70 24 -126t62.5 -91t90.5 -58.5t105.5 -33t110.5 -9.5zM1044 721q101 128 277 141q-59 50 -98 123 q-88 -22 -146 -29q-7 -93 -33 -235z" />
<glyph unicode="&#x153;" horiz-adv-x="1064" d="M1067 379q10 19 25 5q16 -15 6 -34q-36 -66 -84 -131t-105 -125t-121.5 -97.5t-121.5 -37.5q-97 0 -159 71t-71 181q-90 -213 -227 -213q-85 0 -149.5 52.5t-75.5 154.5q-11 96 13 203.5t74 198.5t133.5 145.5t180.5 44.5q28 -3 49 -15q20 23 47 23q77 0 58 -193 q57 92 135 144.5t160 52.5q147 0 147 -147q0 -58 -37 -111t-91.5 -86.5t-112.5 -53.5t-103 -20q-23 0 -33 2q-26 -92 -31 -147q-11 -104 18.5 -174t90.5 -70q58 0 133.5 60.5t139.5 144t112 172.5zM862 768q-63 0 -134 -101.5t-116 -242.5h27q32 0 82 18.5t100 48.5 t85.5 77.5t35.5 97.5q0 47 -20 74.5t-60 27.5zM231 43q52 0 112 80t103 235q5 40 23 101q-70 75 -70 219q0 40 15 74q-12 4 -17 4q-66 7 -123.5 -52t-91.5 -150t-48 -196t-1 -188q8 -53 33 -90t65 -37z" />
<glyph unicode="&#x178;" horiz-adv-x="1349" d="M897 1720q-27 0 -37.5 18t-7.5 46q3 29 19.5 47t46.5 18q27 0 38 -19t5 -46q-16 -64 -64 -64zM1098 1720q-27 0 -37.5 18t-7.5 46q7 65 63 65q28 0 39.5 -18.5t5.5 -46.5q-7 -30 -21 -47t-42 -17zM1190 1405q4 20 43 28t75 2t33 -20q-69 -424 -119 -651.5t-120 -454.5 q-122 -388 -424 -424q-134 -14 -237 45.5t-162 169.5q-22 41 17 73q23 18 34 13l2 -2q56 -145 136.5 -207.5t203.5 -50.5q64 6 115.5 40t87.5 91t60 116.5t44 133.5q43 157 82 375q1 3 -4 4t-6 -2q-75 -169 -167.5 -269t-193.5 -100q-89 0 -147 78.5t-54 214.5 q3 82 19 184.5t30 165.5t44 187q32 129 37.5 221t-14 144.5t-55 77t-89.5 26.5q-77 0 -152.5 -42t-132 -110.5t-91 -161t-34.5 -188.5q0 -168 96 -217q6 -3 -12 -16q-31 -21 -53 -7q-82 56 -82 240q0 143 70.5 269t186.5 199.5t245 72.5q51 -2 91 -14.5t77 -47t56 -89 t18.5 -146.5t-27.5 -213q-7 -31 -23.5 -104.5t-24.5 -113t-19.5 -99.5t-17 -111.5t-7.5 -100.5q-3 -131 15.5 -186t74.5 -55q72 0 152 98.5t146 250t113 329.5q9 55 64 354z" />
<glyph unicode="&#x2c6;" horiz-adv-x="755" d="M162 1528q2 1 62 52.5t120.5 98.5t73.5 47q11 0 71.5 -79.5t88.5 -126.5q7 -11 -9 -10q-19 0 -41 12q-10 5 -43.5 29.5t-63 44.5t-34.5 20q-8 0 -78.5 -37t-107.5 -59q-30 -14 -41 -2q-5 5 2 10z" />
<glyph unicode="&#x2dc;" horiz-adv-x="675" d="M551 1671q6 6 8 -7q2 -14 -4 -22q-36 -53 -100 -53q-37 0 -100.5 26.5t-86.5 26.5q-46 0 -92 -34q-6 -5 -7 6.5t5 17.5q50 54 107 54q30 0 88.5 -27t99.5 -27q51 0 82 39z" />
<glyph unicode="&#x2000;" horiz-adv-x="1001" />
<glyph unicode="&#x2001;" horiz-adv-x="2003" />
<glyph unicode="&#x2002;" horiz-adv-x="1001" />
<glyph unicode="&#x2003;" horiz-adv-x="2003" />
<glyph unicode="&#x2004;" horiz-adv-x="667" />
<glyph unicode="&#x2005;" horiz-adv-x="500" />
<glyph unicode="&#x2006;" horiz-adv-x="333" />
<glyph unicode="&#x2007;" horiz-adv-x="333" />
<glyph unicode="&#x2008;" horiz-adv-x="250" />
<glyph unicode="&#x2009;" horiz-adv-x="400" />
<glyph unicode="&#x200a;" horiz-adv-x="111" />
<glyph unicode="&#x2010;" horiz-adv-x="749" d="M627 563q0 -40 -25 -49q-30 -11 -222 -5t-257 -7l-2 2q4 40 20 47q24 11 218.5 5.5t265.5 8.5z" />
<glyph unicode="&#x2011;" horiz-adv-x="749" d="M627 563q0 -40 -25 -49q-30 -11 -222 -5t-257 -7l-2 2q4 40 20 47q24 11 218.5 5.5t265.5 8.5z" />
<glyph unicode="&#x2012;" horiz-adv-x="749" d="M627 563q0 -40 -25 -49q-30 -11 -222 -5t-257 -7l-2 2q4 40 20 47q24 11 218.5 5.5t265.5 8.5z" />
<glyph unicode="&#x2013;" horiz-adv-x="913" d="M793 563q0 -40 -25 -49q-31 -11 -304.5 -5t-338.5 -7l-2 2q4 40 20 47q24 11 300.5 5.5t347.5 8.5z" />
<glyph unicode="&#x2014;" horiz-adv-x="1241" d="M1120 563q0 -41 -24 -49q-31 -11 -468.5 -5t-502.5 -7l-2 2q4 40 20 47q24 11 464 5.5t511 8.5z" />
<glyph unicode="&#x2018;" horiz-adv-x="483" d="M346 1511q33 0 35 -16q1 -6 -4 -6q-31 0 -47.5 -47.5t-16.5 -128.5q0 -66 -55 -66q-27 0 -40 17t-13 41q0 86 46 146t95 60z" />
<glyph unicode="&#x2019;" horiz-adv-x="483" d="M219 1247q-33 0 -35 16q-1 7 4 7q31 0 47.5 47.5t16.5 128.5q0 36 14 50.5t41 14.5t40 -16.5t13 -40.5q0 -86 -46 -146.5t-95 -60.5z" />
<glyph unicode="&#x201a;" horiz-adv-x="387" d="M90 59q-5 -23 -2.5 -106.5t10.5 -83.5t41 78.5t43 111.5q5 16 -20 21q-36 7 -62 -8q-9 -6 -10 -13z" />
<glyph unicode="&#x201c;" horiz-adv-x="669" d="M346 1532q33 0 35 -16q1 -7 -4 -7q-31 0 -47.5 -47.5t-16.5 -128.5q0 -36 -14 -50.5t-41 -14.5t-40 16.5t-13 40.5q0 86 46 146.5t95 60.5zM532 1526q33 0 35 -16q1 -7 -4 -7q-25 0 -45.5 -55.5t-17.5 -120.5t-56 -65q-27 0 -40 16.5t-13 40.5q0 82 48.5 144.5t92.5 62.5 z" />
<glyph unicode="&#x201d;" horiz-adv-x="669" d="M219 1270q-33 0 -35 16q-1 6 4 6q25 0 46 55.5t18 120.5q-3 66 55 66q27 0 40 -16.5t13 -40.5q0 -82 -48.5 -144.5t-92.5 -62.5zM406 1264q-33 0 -35 16q-1 6 4 6q31 0 47 47.5t16 128.5q0 66 56 66q27 0 40 -17t13 -41q0 -86 -46 -146t-95 -60z" />
<glyph unicode="&#x201e;" horiz-adv-x="530" d="M90 59q-5 -23 -2.5 -106.5t10.5 -83.5t41 78.5t43 111.5q5 16 -20 21q-36 7 -62 -8q-9 -6 -10 -13zM233 59q-5 -23 -2 -106.5t11 -83.5t41 78.5t43 111.5q5 16 -20 21q-35 7 -62 -8q-10 -6 -11 -13z" />
<glyph unicode="&#x2022;" horiz-adv-x="636" d="M270 453q-65 0 -65 86q0 60 29 95.5t73 35.5q36 0 60 -24t24 -54q0 -54 -31 -96.5t-90 -42.5z" />
<glyph unicode="&#x2026;" horiz-adv-x="858" d="M131 -88q-49 0 -49 65q0 45 22.5 72t55.5 27q28 0 45.5 -18.5t17.5 -41.5q0 -36 -29.5 -70t-62.5 -34zM367 -92q-50 0 -50 65q0 45 22.5 72t55.5 27q28 0 46 -18.5t18 -41.5q0 -36 -29.5 -70t-62.5 -34zM602 -92q-49 0 -49 65q0 45 22.5 72t55.5 27q28 0 45.5 -18.5 t17.5 -41.5q0 -36 -29.5 -70t-62.5 -34z" />
<glyph unicode="&#x202f;" horiz-adv-x="400" />
<glyph unicode="&#x2039;" horiz-adv-x="561" d="M125 530q65 43 98 65t82 60.5t84 73.5q7 7 7 -2q0 -14 -11 -35q-18 -35 -48 -69.5t-55 -56.5t-73 -62q20 -16 47 -80t37 -111q9 -44 -1 -48q-2 -1 -5 3q-8 13 -28 42.5t-29.5 43.5t-26.5 38.5t-29.5 40.5t-29.5 35.5t-33 35.5q-8 5 -5.5 10.5t4.5 7t8 5t7 3.5z" />
<glyph unicode="&#x203a;" horiz-adv-x="542" d="M432 504q-43 -31 -91 -73.5t-78.5 -72.5t-88.5 -90q-10 -9 -10 3q1 14 18 42q23 44 74 109t78 82q-35 42 -51 62.5t-34 55.5t-24 70q-8 29 1 39q3 3 7 -2q22 -34 53 -66t75.5 -71.5t66.5 -61.5l6 -4q7 -5 6.5 -9t-8.5 -13z" />
<glyph unicode="&#x205f;" horiz-adv-x="500" />
<glyph unicode="&#x20ac;" horiz-adv-x="1165" d="M846 1421q100 0 152 -68t44 -167q-4 -4 -18 -4t-29.5 12t-15.5 31q0 68 -33.5 112.5t-87.5 44.5q-100 0 -193.5 -89t-162 -232.5t-111.5 -323.5q111 -3 235 -2t165 10l2 -2q0 -40 -25 -49q-11 -4 -37.5 -6t-69.5 -2t-81.5 0.5t-100 2t-98.5 1.5q-11 -56 -21 -121 q332 -4 390 9l2 -3q0 -40 -25 -49q-11 -3 -35.5 -5t-68 -2h-77.5t-97.5 1.5t-94.5 1.5q-14 -104 -14 -219q0 -142 53 -221.5t135 -79.5q96 0 170.5 85.5t118.5 217.5q2 0 4.5 -0.5t11 -2t14.5 -4.5t14.5 -7.5t11.5 -11t5 -16t-4 -21.5q-40 -101 -137.5 -191t-208.5 -90 q-151 -2 -243 97.5t-92 299.5q0 93 8 164q-84 0 -117 -8l-2 2q4 40 20 47q16 8 105 8q1 5 18 119q-54 0 -100 -8l-2 2q4 40 20 47q16 8 95 8q46 194 132 346.5t210.5 244t265.5 91.5z" />
<glyph unicode="&#x2122;" horiz-adv-x="1443" d="M698 1503q2 -3 0.5 -18t-5.5 -33t-7 -18q-47 0 -101 6.5t-65 7.5q-25 -119 -55 -295q-42 -251 -53 -344q0 -9 -51 -7q-36 1 -33 9q40 183 67 342t43 295q-10 0 -65.5 -6t-104.5 -6q-2 0 0.5 17t6.5 34.5t6 17.5q35 0 97.5 -1t108.5 -1h211zM1268 1135q-2 -20 -13 -131.5 t-18 -186.5q-1 -6 -22.5 -8t-42 0t-19.5 8q22 125 45 316q20 175 21 188l6 41l-17 -39l-204 -389q-9 -8 -39.5 -7.5t-34.5 9.5l-68 391l-4 33l-4 -37q-34 -130 -45 -180q-40 -181 -66 -330q-1 -6 -19 -7.5t-35.5 1t-16.5 8.5q69 263 82 328q4 20 33 145t40 203q1 7 22 9.5 t41.5 0.5t20.5 -8l78 -483l244 483q2 5 24.5 7t43.5 0t20 -9q-7 -52 -28 -178.5t-25 -177.5z" />
<glyph unicode="&#x25fc;" horiz-adv-x="911" d="M0 911h911v-911h-911v911z" />
</font>
</defs>
</svg>
